<svg width="24" height="25" viewBox="0 0 24 25" fill="none" xmlns="http://www.w3.org/2000/svg">
<path d="M14 9.41797C14 9.9484 13.7893 10.4571 13.4142 10.8322C13.0391 11.2073 12.5304 11.418 12 11.418H6L2 15.418V4.41797C2 3.31797 2.9 2.41797 4 2.41797H12C12.5304 2.41797 13.0391 2.62868 13.4142 3.00376C13.7893 3.37883 14 3.88754 14 4.41797V9.41797Z" stroke="#007AF5" stroke-width="1.25" stroke-linecap="round" stroke-linejoin="round"/>
<path d="M18 9.41797H20C20.5304 9.41797 21.0391 9.62868 21.4142 10.0038C21.7893 10.3788 22 10.8875 22 11.418V22.418L18 18.418H12C11.4696 18.418 10.9609 18.2073 10.5858 17.8322C10.2107 17.4571 10 16.9484 10 16.418V15.418" stroke="#0076EC" stroke-width="1.25" stroke-linecap="round" stroke-linejoin="round"/>
</svg>
