<svg width="24" height="25" viewBox="0 0 24 25" fill="none" xmlns="http://www.w3.org/2000/svg">
<path d="M1.96379 3.9263L2.01837 3.817L2.07295 3.9263H1.96379Z" fill="#007AF5" stroke="#007AF5" stroke-width="1.25"/>
<path d="M20.4863 22.473V22.3634L20.5958 22.4182L20.4863 22.473Z" fill="#007AF5" stroke="#007AF5" stroke-width="1.25"/>
<path d="M2.01855 4.125V22.4183H20.2875" stroke="#007AF5" stroke-width="1.25" stroke-miterlimit="1.5" stroke-linecap="round" stroke-linejoin="round"/>
<path d="M6.45695 19.3952C7.24137 19.3952 7.87727 18.7585 7.87727 17.973C7.87727 17.1875 7.24137 16.5508 6.45695 16.5508C5.67252 16.5508 5.03662 17.1875 5.03662 17.973C5.03662 18.7585 5.67252 19.3952 6.45695 19.3952Z" stroke="#007AF5" stroke-width="1.25" stroke-miterlimit="1.5" stroke-linecap="round" stroke-linejoin="round"/>
<path d="M17.6424 19.0396C18.2307 19.0396 18.7076 18.562 18.7076 17.9729C18.7076 17.3838 18.2307 16.9062 17.6424 16.9062C17.0541 16.9062 16.5771 17.3838 16.5771 17.9729C16.5771 18.562 17.0541 19.0396 17.6424 19.0396Z" stroke="#007AF5" stroke-width="1.25" stroke-miterlimit="1.5" stroke-linecap="round" stroke-linejoin="round"/>
<path d="M6.45715 8.99518C7.63379 8.99518 8.58765 8.04006 8.58765 6.86185C8.58765 5.68364 7.63379 4.72852 6.45715 4.72852C5.28051 4.72852 4.32666 5.68364 4.32666 6.86185C4.32666 8.04006 5.28051 8.99518 6.45715 8.99518Z" stroke="#007AF5" stroke-width="1.25" stroke-miterlimit="1.5" stroke-linecap="round" stroke-linejoin="round"/>
<path d="M17.6423 7.57262C18.0345 7.57262 18.3525 7.25424 18.3525 6.86151C18.3525 6.46877 18.0345 6.15039 17.6423 6.15039C17.2501 6.15039 16.9321 6.46877 16.9321 6.86151C16.9321 7.25424 17.2501 7.57262 17.6423 7.57262Z" stroke="#007AF5" stroke-width="1.25" stroke-miterlimit="1.5" stroke-linecap="round" stroke-linejoin="round"/>
<path d="M12.2275 8.28389C13.0119 8.28389 13.6478 7.64714 13.6478 6.86167C13.6478 6.0762 13.0119 5.43945 12.2275 5.43945C11.443 5.43945 10.8071 6.0762 10.8071 6.86167C10.8071 7.64714 11.443 8.28389 12.2275 8.28389Z" stroke="#007AF5" stroke-width="1.25" stroke-miterlimit="1.5" stroke-linecap="round" stroke-linejoin="round"/>
<path d="M17.642 15.2845C18.5612 15.2845 19.3064 14.5383 19.3064 13.6178C19.3064 12.6974 18.5612 11.9512 17.642 11.9512C16.7227 11.9512 15.9775 12.6974 15.9775 13.6178C15.9775 14.5383 16.7227 15.2845 17.642 15.2845Z" stroke="#007AF5" stroke-width="1.25" stroke-miterlimit="1.5" stroke-linecap="round" stroke-linejoin="round"/>
<path d="M6.45734 14.5943C7.04566 14.5943 7.52258 14.1167 7.52258 13.5276C7.52258 12.9385 7.04566 12.4609 6.45734 12.4609C5.86902 12.4609 5.39209 12.9385 5.39209 13.5276C5.39209 14.1167 5.86902 14.5943 6.45734 14.5943Z" stroke="#007AF5" stroke-width="1.25" stroke-miterlimit="1.5" stroke-linecap="round" stroke-linejoin="round"/>
<path d="M12.2273 18.6839C12.6195 18.6839 12.9374 18.3656 12.9374 17.9728C12.9374 17.5801 12.6195 17.2617 12.2273 17.2617C11.835 17.2617 11.5171 17.5801 11.5171 17.9728C11.5171 18.3656 11.835 18.6839 12.2273 18.6839Z" stroke="#007AF5" stroke-width="1.25" stroke-miterlimit="1.5" stroke-linecap="round" stroke-linejoin="round"/>
<path d="M12.2275 14.9499C13.0119 14.9499 13.6478 14.3132 13.6478 13.5277C13.6478 12.7422 13.0119 12.1055 12.2275 12.1055C11.443 12.1055 10.8071 12.7422 10.8071 13.5277C10.8071 14.3132 11.443 14.9499 12.2275 14.9499Z" stroke="#007AF5" stroke-width="1.25" stroke-miterlimit="1.5" stroke-linecap="round" stroke-linejoin="round"/>
</svg>
