<svg width="24" height="25" viewBox="0 0 24 25" fill="none" xmlns="http://www.w3.org/2000/svg">
<g id="layout-dashboard">
<path id="Vector" d="M9 3.98438H4C3.44772 3.98438 3 4.43209 3 4.98438V11.9844C3 12.5367 3.44772 12.9844 4 12.9844H9C9.55228 12.9844 10 12.5367 10 11.9844V4.98438C10 4.43209 9.55228 3.98438 9 3.98438Z" stroke="#262626" stroke-width="1.25" stroke-linecap="round" stroke-linejoin="round"/>
<path id="Vector_2" d="M20 3.98438H15C14.4477 3.98438 14 4.43209 14 4.98438V7.98438C14 8.53666 14.4477 8.98438 15 8.98438H20C20.5523 8.98438 21 8.53666 21 7.98438V4.98438C21 4.43209 20.5523 3.98438 20 3.98438Z" stroke="#262626" stroke-width="1.25" stroke-linecap="round" stroke-linejoin="round"/>
<path id="Vector_3" d="M20 12.9844H15C14.4477 12.9844 14 13.4321 14 13.9844V20.9844C14 21.5367 14.4477 21.9844 15 21.9844H20C20.5523 21.9844 21 21.5367 21 20.9844V13.9844C21 13.4321 20.5523 12.9844 20 12.9844Z" stroke="#262626" stroke-width="1.25" stroke-linecap="round" stroke-linejoin="round"/>
<path id="Vector_4" d="M9 16.9844H4C3.44772 16.9844 3 17.4321 3 17.9844V20.9844C3 21.5367 3.44772 21.9844 4 21.9844H9C9.55228 21.9844 10 21.5367 10 20.9844V17.9844C10 17.4321 9.55228 16.9844 9 16.9844Z" stroke="#262626" stroke-width="1.25" stroke-linecap="round" stroke-linejoin="round"/>
</g>
</svg>
