<svg width="36" height="37" viewBox="0 0 36 37" fill="none" xmlns="http://www.w3.org/2000/svg">
<path d="M0 8.41016C0 3.99188 3.58172 0.410156 8 0.410156H28C32.4183 0.410156 36 3.99188 36 8.41016V28.4102C36 32.8284 32.4183 36.4102 28 36.4102H8C3.58172 36.4102 0 32.8284 0 28.4102V8.41016Z" fill="#EC1000"/>
<path d="M25 15.4102L22.1526 17.2429C21.0466 18.0869 18.107 19.9496 16.6227 20.9392L13 23.4102C13 24.5148 13.8954 25.4102 15 25.4102H25C26.1046 25.4102 27 24.5148 27 23.4102V17.4102C27 16.3056 26.1046 15.4102 25 15.4102Z" stroke="white" stroke-width="1.5" stroke-linecap="round" stroke-linejoin="round"/>
<path d="M20 22.4102C21.1046 22.4102 22 21.5148 22 20.4102C22 19.3056 21.1046 18.4102 20 18.4102C18.8954 18.4102 18 19.3056 18 20.4102C18 21.5148 18.8954 22.4102 20 22.4102Z" fill="white"/>
<path d="M15.6046 17.7501C16.7191 17.0248 16.978 16.8522 17.9606 16.1851C18.179 15.1023 17.4784 14.0475 16.3956 13.8291C15.3128 13.6107 14.258 14.3113 14.0396 15.3941C13.8211 16.4769 14.5218 17.5317 15.6046 17.7501Z" fill="white"/>
<path d="M22.9731 14.4618C22.8301 14.2526 22.9421 12.7223 22.9421 12.7223C22.9329 12.2025 22.7133 11.7077 22.3317 11.3469C21.9501 10.986 21.4378 10.7886 20.9075 10.798L10.9091 10.9761C10.3788 10.9855 9.87381 11.2011 9.50535 11.5753C9.13687 11.9496 8.93508 12.4519 8.94434 12.9717L9.04907 18.8515C9.05833 19.3713 9.27789 19.866 9.65946 20.2269C10.041 20.5878 10.5533 20.7853 11.0837 20.7758C11.0837 20.7758 13.0001 20.6247 13.0834 20.7402" stroke="white" stroke-width="1.5" stroke-linecap="square" stroke-linejoin="round"/>
<line x1="29.228" y1="12.1005" x2="7.32412" y2="26.6073" stroke="white"/>
</svg>
