<svg width="116" height="18" viewBox="0 0 116 18" fill="none" xmlns="http://www.w3.org/2000/svg">
<path d="M11.497 2.348C13.697 2.348 15.3543 2.77333 16.469 3.624C17.5837 4.46 18.141 5.692 18.141 7.32C18.141 8.12667 17.9943 9.058 17.701 10.114C17.217 11.8153 16.5643 13.1647 15.743 14.162C14.9217 15.1593 13.8363 15.8853 12.487 16.34C11.1523 16.7947 9.43632 17.0147 7.33898 17L1.35498 16.978C1.04698 16.978 0.812318 16.9267 0.650984 16.824C0.474984 16.7213 0.386984 16.582 0.386984 16.406C0.386984 16.318 0.408984 16.2227 0.452984 16.12C0.496984 15.988 0.562984 15.8927 0.650984 15.834C0.724318 15.7753 0.841651 15.6947 1.00298 15.592C1.23765 15.46 1.42098 15.3133 1.55298 15.152C1.69965 14.9907 1.82432 14.734 1.92698 14.382L4.61098 4.922C4.66965 4.73133 4.69898 4.548 4.69898 4.372C4.69898 4.21067 4.66965 4.07867 4.61098 3.976C4.56698 3.85867 4.50098 3.72667 4.41298 3.58C4.28098 3.38933 4.21498 3.23533 4.21498 3.118C4.21498 3.074 4.22965 2.99333 4.25898 2.876C4.31765 2.68533 4.44232 2.55333 4.63298 2.48C4.83832 2.392 5.14632 2.348 5.55698 2.348H11.497ZM12.069 9.63C12.4503 8.25133 12.641 7.166 12.641 6.374C12.641 5.59667 12.4797 5.06133 12.157 4.768C11.8343 4.47467 11.3723 4.328 10.771 4.328H10.287L7.31698 15.02H7.84498C8.51965 15.02 9.08432 14.8807 9.53898 14.602C10.0083 14.3087 10.441 13.7807 10.837 13.018C11.233 12.2407 11.6437 11.1113 12.069 9.63ZM28.7551 5.362C29.5765 5.362 30.2291 5.61133 30.7131 6.11C31.2118 6.60867 31.4611 7.22467 31.4611 7.958C31.4611 8.23667 31.4318 8.49333 31.3731 8.728C31.2265 9.32933 30.9478 9.79133 30.5371 10.114C30.1265 10.4367 29.6351 10.598 29.0631 10.598C28.5058 10.598 28.0805 10.466 27.7871 10.202C27.5085 9.938 27.2591 9.586 27.0391 9.146C26.9218 8.89667 26.8118 8.71333 26.7091 8.596C26.6065 8.47867 26.4891 8.42 26.3571 8.42C26.2105 8.42 26.0785 8.47867 25.9611 8.596C25.8585 8.71333 25.7631 8.91867 25.6751 9.212L23.9811 14.712C23.9518 14.7853 23.9371 14.8953 23.9371 15.042C23.9371 15.2327 23.9885 15.394 24.0911 15.526C24.2085 15.6433 24.3625 15.7607 24.5531 15.878C24.7291 15.9953 24.8465 16.0907 24.9051 16.164C24.9638 16.2373 24.9858 16.3327 24.9711 16.45C24.9418 16.6407 24.8318 16.78 24.6411 16.868C24.4651 16.956 24.1571 17 23.7171 17H18.0851C17.7038 17 17.4325 16.9413 17.2711 16.824C17.0951 16.692 17.0291 16.5233 17.0731 16.318C17.1318 16.142 17.2858 15.988 17.5351 15.856C17.7551 15.7387 17.9385 15.5993 18.0851 15.438C18.2318 15.2767 18.3565 15.02 18.4591 14.668L20.4171 8.31C20.4465 8.23667 20.4611 8.134 20.4611 8.002C20.4611 7.84067 20.4245 7.716 20.3511 7.628C20.2925 7.54 20.1898 7.43 20.0431 7.298C19.8965 7.18067 19.7938 7.078 19.7351 6.99C19.6765 6.902 19.6691 6.78467 19.7131 6.638C19.8011 6.30067 20.2631 6.00733 21.0991 5.758C21.9351 5.494 22.8078 5.362 23.7171 5.362C24.3185 5.362 24.8171 5.50133 25.2131 5.78C25.6091 6.044 25.8658 6.42533 25.9831 6.924C26.6871 5.88267 27.6111 5.362 28.7551 5.362ZM36.4794 5.362C37.33 5.362 37.9534 5.52333 38.3494 5.846C38.7454 6.16867 38.9434 6.60867 38.9434 7.166C38.9434 7.50333 38.892 7.826 38.7894 8.134L36.7654 14.712C36.7214 14.888 36.6994 15.042 36.6994 15.174C36.6994 15.3647 36.736 15.5187 36.8094 15.636C36.8827 15.7387 36.9854 15.8413 37.1174 15.944C37.22 16.0467 37.2934 16.1347 37.3374 16.208C37.3814 16.2667 37.3887 16.3473 37.3594 16.45C37.286 16.6407 37.1394 16.78 36.9194 16.868C36.6994 16.956 36.362 17 35.9074 17H30.8914C30.51 17 30.2314 16.9413 30.0554 16.824C29.8794 16.692 29.8207 16.5233 29.8794 16.318C29.938 16.142 30.092 15.988 30.3414 15.856C30.5614 15.7387 30.7447 15.5993 30.8914 15.438C31.038 15.2767 31.1627 15.02 31.2654 14.668L33.1794 8.31C33.2234 8.178 33.2454 8.068 33.2454 7.98C33.2454 7.81867 33.2087 7.694 33.1354 7.606C33.062 7.50333 32.952 7.40067 32.8054 7.298C32.6587 7.18067 32.556 7.078 32.4974 6.99C32.4387 6.902 32.4314 6.78467 32.4754 6.638C32.5634 6.30067 33.0254 6.00733 33.8614 5.758C34.6974 5.494 35.57 5.362 36.4794 5.362ZM37.9534 0.499999C38.5254 0.499999 39.002 0.690666 39.3834 1.072C39.7647 1.43867 39.9554 1.89333 39.9554 2.436C39.9554 2.81733 39.8527 3.19133 39.6474 3.558C39.4567 3.92467 39.178 4.22533 38.8114 4.46C38.4594 4.68 38.0634 4.79 37.6234 4.79C37.066 4.79 36.5967 4.60667 36.2154 4.24C35.8487 3.85867 35.658 3.38933 35.6434 2.832C35.6434 2.46533 35.7387 2.106 35.9294 1.754C36.12 1.38733 36.3914 1.08667 36.7434 0.851999C37.0954 0.617332 37.4987 0.499999 37.9534 0.499999ZM49.486 5.362C50.2633 5.362 50.9087 5.64067 51.422 6.198C51.9353 6.75533 52.192 7.518 52.192 8.486C52.192 9.79133 51.7373 11.126 50.828 12.49C49.9187 13.854 48.7673 14.9833 47.374 15.878C45.9807 16.758 44.624 17.198 43.304 17.198C42.0427 17.198 41.016 16.9413 40.224 16.428C39.4467 15.9147 39.058 15.1813 39.058 14.228C39.058 13.876 39.124 13.48 39.256 13.04L40.642 8.31C40.6713 8.19267 40.686 8.10467 40.686 8.046C40.686 7.89933 40.6493 7.77467 40.576 7.672C40.5027 7.56933 40.4 7.45933 40.268 7.342C40.048 7.15133 39.938 6.98267 39.938 6.836C39.9233 6.63067 40.048 6.41067 40.312 6.176C40.576 5.94133 40.9427 5.75067 41.412 5.604C41.896 5.44267 42.4387 5.362 43.04 5.362C44.0227 5.362 44.7853 5.604 45.328 6.088C45.8853 6.55733 46.164 7.17333 46.164 7.936C46.164 8.27333 46.1053 8.64 45.988 9.036L44.558 13.744C44.514 13.876 44.492 13.986 44.492 14.074C44.492 14.2647 44.558 14.4113 44.69 14.514C44.822 14.6167 45.0053 14.668 45.24 14.668C45.5627 14.668 45.9367 14.5287 46.362 14.25C46.802 13.9567 47.2347 13.546 47.66 13.018C48.0853 12.4753 48.43 11.8373 48.694 11.104C48.1073 10.5907 47.6893 10.0847 47.44 9.586C47.2053 9.08733 47.088 8.574 47.088 8.046C47.088 7.298 47.2933 6.66733 47.704 6.154C48.1147 5.626 48.7087 5.362 49.486 5.362ZM59.3779 5.252C61.2406 5.252 62.5899 5.55267 63.4259 6.154C64.2619 6.74067 64.6799 7.496 64.6799 8.42C64.6799 8.69867 64.6506 8.95533 64.5919 9.19C64.3719 10.158 63.7559 10.8547 62.7439 11.28C61.7466 11.6907 60.5659 11.896 59.2019 11.896C58.5126 11.896 57.8673 11.852 57.2659 11.764C57.2513 12.5267 57.4566 13.062 57.8819 13.37C58.3073 13.678 58.9013 13.832 59.6639 13.832C60.0159 13.832 60.3533 13.7953 60.6759 13.722C60.9986 13.634 61.4093 13.5093 61.9079 13.348C62.3186 13.2013 62.5973 13.128 62.7439 13.128C62.9053 13.128 62.9859 13.2233 62.9859 13.414C63.0006 13.9273 62.8099 14.47 62.4139 15.042C62.0179 15.5993 61.4313 16.076 60.6539 16.472C59.8766 16.868 58.9379 17.066 57.8379 17.066C56.2099 17.066 54.8753 16.6553 53.8339 15.834C52.7926 15.0127 52.2719 13.8173 52.2719 12.248C52.2719 11.808 52.3306 11.2947 52.4479 10.708C52.8146 8.904 53.6139 7.54733 54.8459 6.638C56.0926 5.714 57.6033 5.252 59.3779 5.252ZM57.4199 10.444C57.4786 10.4587 57.5593 10.466 57.6619 10.466C58.2779 10.466 58.7473 10.18 59.0699 9.608C59.3926 9.036 59.5466 8.398 59.5319 7.694C59.5173 7.28333 59.3999 7.078 59.1799 7.078C59.0186 7.078 58.8279 7.21 58.6079 7.474C58.3879 7.72333 58.1679 8.10467 57.9479 8.618C57.7426 9.13133 57.5666 9.74 57.4199 10.444ZM81.3685 2.348C81.9698 2.348 82.2705 2.53867 82.2705 2.92C82.2705 3.02267 82.2631 3.096 82.2485 3.14C82.2045 3.28667 82.1385 3.404 82.0505 3.492C81.9625 3.56533 81.8378 3.65333 81.6765 3.756C81.4565 3.888 81.2731 4.03467 81.1265 4.196C80.9798 4.35733 80.8551 4.60667 80.7525 4.944L78.0245 14.712C77.7751 15.592 77.4598 16.208 77.0785 16.56C76.7118 16.912 76.1985 17.088 75.5385 17.088C74.9518 17.088 74.4605 16.9193 74.0645 16.582C73.6831 16.23 73.3238 15.6947 72.9865 14.976L69.6645 7.98L67.8165 14.404C67.7725 14.5947 67.7505 14.7633 67.7505 14.91C67.7505 15.1007 67.7798 15.262 67.8385 15.394C67.9118 15.5113 68.0071 15.636 68.1245 15.768C68.2858 15.9587 68.3665 16.12 68.3665 16.252C68.3665 16.34 68.3591 16.406 68.3445 16.45C68.2858 16.6553 68.1538 16.802 67.9485 16.89C67.7431 16.9633 67.4351 17 67.0245 17H64.6265C64.0251 17 63.7245 16.8093 63.7245 16.428C63.7245 16.3253 63.7318 16.252 63.7465 16.208C63.7905 16.0613 63.8565 15.9513 63.9445 15.878C64.0325 15.79 64.1571 15.6947 64.3185 15.592C64.5385 15.46 64.7218 15.3133 64.8685 15.152C65.0151 14.9907 65.1398 14.7413 65.2425 14.404L68.0365 4.526L67.6845 3.8C67.5378 3.50667 67.4645 3.25 67.4645 3.03C67.4645 2.57533 67.7578 2.348 68.3445 2.348H71.6005C72.0698 2.348 72.4218 2.458 72.6565 2.678C72.9058 2.88333 73.1698 3.25733 73.4485 3.8L76.6605 10.246L78.1785 4.944C78.2225 4.73867 78.2445 4.57 78.2445 4.438C78.2445 4.24733 78.2078 4.09333 78.1345 3.976C78.0758 3.844 77.9878 3.712 77.8705 3.58C77.7091 3.38933 77.6285 3.228 77.6285 3.096C77.6285 3.008 77.6358 2.942 77.6505 2.898C77.7091 2.69267 77.8411 2.55333 78.0465 2.48C78.2518 2.392 78.5598 2.348 78.9705 2.348H81.3685ZM88.7288 5.362C90.7235 5.362 92.1902 5.76533 93.1288 6.572C94.0822 7.37867 94.5588 8.43467 94.5588 9.74C94.5588 10.18 94.5002 10.6713 94.3828 11.214C94.1042 12.4167 93.5835 13.4727 92.8208 14.382C92.0582 15.2767 91.1195 15.9733 90.0048 16.472C88.9048 16.956 87.7095 17.198 86.4188 17.198C84.3802 17.198 82.8695 16.7947 81.8868 15.988C80.9188 15.1667 80.4348 14.0813 80.4348 12.732C80.4348 12.2773 80.4935 11.7713 80.6108 11.214C80.8895 10.07 81.4175 9.058 82.1948 8.178C82.9868 7.28333 83.9475 6.594 85.0768 6.11C86.2208 5.61133 87.4382 5.362 88.7288 5.362ZM88.6628 7.32C88.3548 7.32 88.0248 7.59867 87.6728 8.156C87.3355 8.69867 86.9322 9.73267 86.4628 11.258C85.9935 12.7833 85.7588 13.854 85.7588 14.47C85.7588 14.7927 85.8102 15.0127 85.9128 15.13C86.0155 15.2327 86.1548 15.284 86.3308 15.284C86.6388 15.3133 86.9542 15.0493 87.2768 14.492C87.6142 13.9347 88.0322 12.8493 88.5308 11.236C88.9855 9.81333 89.2128 8.77933 89.2128 8.134C89.2128 7.826 89.1615 7.61333 89.0588 7.496C88.9708 7.37867 88.8388 7.32 88.6628 7.32ZM115.31 8.486C115.31 9.79133 114.856 11.126 113.946 12.49C113.037 13.854 111.886 14.9833 110.492 15.878C109.114 16.758 107.757 17.198 106.422 17.198C105.366 17.198 104.472 17.0147 103.738 16.648C103.005 16.2813 102.528 15.7533 102.308 15.064C101.766 15.724 101.164 16.2227 100.504 16.56C99.8443 16.8973 99.155 17.066 98.4363 17.066C97.439 17.066 96.625 16.824 95.9943 16.34C95.3783 15.8413 95.0703 15.1153 95.0703 14.162C95.0703 13.6633 95.151 13.15 95.3123 12.622L96.5443 8.31C96.5737 8.19267 96.5883 8.10467 96.5883 8.046C96.5883 7.89933 96.5517 7.77467 96.4783 7.672C96.405 7.56933 96.3023 7.45933 96.1703 7.342C95.9503 7.15133 95.8403 6.98267 95.8403 6.836C95.8257 6.63067 95.9503 6.41067 96.2143 6.176C96.4783 5.94133 96.845 5.75067 97.3143 5.604C97.7983 5.44267 98.341 5.362 98.9423 5.362C99.925 5.362 100.688 5.604 101.23 6.088C101.788 6.55733 102.066 7.17333 102.066 7.936C102.066 8.27333 102.008 8.64 101.89 9.036L100.768 12.776C100.71 12.9813 100.68 13.1207 100.68 13.194C100.68 13.3847 100.732 13.5313 100.834 13.634C100.952 13.7367 101.106 13.788 101.296 13.788C101.56 13.788 101.78 13.7 101.956 13.524C102.147 13.3333 102.33 13.0327 102.506 12.622L103.76 8.31C103.79 8.19267 103.804 8.10467 103.804 8.046C103.804 7.89933 103.768 7.77467 103.694 7.672C103.621 7.56933 103.518 7.45933 103.386 7.342C103.166 7.15133 103.056 6.98267 103.056 6.836C103.042 6.63067 103.166 6.41067 103.43 6.176C103.694 5.94133 104.061 5.75067 104.53 5.604C105.014 5.44267 105.557 5.362 106.158 5.362C107.156 5.362 107.926 5.59667 108.468 6.066C109.011 6.53533 109.282 7.15867 109.282 7.936C109.282 8.244 109.224 8.61067 109.106 9.036L107.676 13.744C107.647 13.8173 107.632 13.9273 107.632 14.074C107.632 14.2647 107.698 14.4113 107.83 14.514C107.962 14.6167 108.146 14.668 108.38 14.668C108.703 14.668 109.077 14.5287 109.502 14.25C109.942 13.9567 110.368 13.546 110.778 13.018C111.204 12.4753 111.548 11.8373 111.812 11.104C111.226 10.5907 110.808 10.0847 110.558 9.586C110.324 9.08733 110.206 8.574 110.206 8.046C110.206 7.298 110.412 6.66733 110.822 6.154C111.233 5.626 111.827 5.362 112.604 5.362C113.382 5.362 114.027 5.64067 114.54 6.198C115.054 6.75533 115.31 7.518 115.31 8.486Z" fill="#007AF5"/>
</svg>
