<svg width="37" height="36" viewBox="0 0 37 36" fill="none" xmlns="http://www.w3.org/2000/svg">
<path d="M0.333496 8C0.333496 3.58172 3.91522 0 8.3335 0H28.3335C32.7518 0 36.3335 3.58172 36.3335 8V28C36.3335 32.4183 32.7518 36 28.3335 36H8.3335C3.91522 36 0.333496 32.4183 0.333496 28V8Z" fill="#FFEFEB"/>
<mask id="path-2-inside-1_136_10468" fill="white">
<path d="M16.8335 11.5C16.8335 11.3674 16.8862 11.2402 16.9799 11.1464C17.0737 11.0527 17.2009 11 17.3335 11H19.3335C19.4661 11 19.5933 11.0527 19.687 11.1464C19.7808 11.2402 19.8335 11.3674 19.8335 11.5C19.8335 11.6326 19.7808 11.7598 19.687 11.8536C19.5933 11.9473 19.4661 12 19.3335 12H17.3335C17.2009 12 17.0737 11.9473 16.9799 11.8536C16.8862 11.7598 16.8335 11.6326 16.8335 11.5Z"/>
</mask>
<path d="M16.8335 11.5C16.8335 11.3674 16.8862 11.2402 16.9799 11.1464C17.0737 11.0527 17.2009 11 17.3335 11H19.3335C19.4661 11 19.5933 11.0527 19.687 11.1464C19.7808 11.2402 19.8335 11.3674 19.8335 11.5C19.8335 11.6326 19.7808 11.7598 19.687 11.8536C19.5933 11.9473 19.4661 12 19.3335 12H17.3335C17.2009 12 17.0737 11.9473 16.9799 11.8536C16.8862 11.7598 16.8335 11.6326 16.8335 11.5Z" fill="#DB542B"/>
<path d="M17.8335 11.5C17.8335 11.6326 17.7808 11.7598 17.687 11.8536L16.2728 10.4393C15.9915 10.7206 15.8335 11.1022 15.8335 11.5H17.8335ZM17.687 11.8536C17.5933 11.9473 17.4661 12 17.3335 12V10C16.9357 10 16.5541 10.158 16.2728 10.4393L17.687 11.8536ZM17.3335 12H19.3335V10H17.3335V12ZM19.3335 12C19.2009 12 19.0737 11.9473 18.9799 11.8536L20.3942 10.4393C20.1129 10.158 19.7313 10 19.3335 10V12ZM18.9799 11.8536C18.8862 11.7598 18.8335 11.6326 18.8335 11.5H20.8335C20.8335 11.1022 20.6755 10.7206 20.3942 10.4393L18.9799 11.8536ZM18.8335 11.5C18.8335 11.3674 18.8862 11.2402 18.9799 11.1464L20.3942 12.5607C20.6755 12.2794 20.8335 11.8978 20.8335 11.5H18.8335ZM18.9799 11.1464C19.0737 11.0527 19.2009 11 19.3335 11V13C19.7313 13 20.1129 12.842 20.3942 12.5607L18.9799 11.1464ZM19.3335 11H17.3335V13H19.3335V11ZM17.3335 11C17.4661 11 17.5933 11.0527 17.687 11.1464L16.2728 12.5607C16.5541 12.842 16.9357 13 17.3335 13V11ZM17.687 11.1464C17.7808 11.2402 17.8335 11.3674 17.8335 11.5H15.8335C15.8335 11.8978 15.9915 12.2794 16.2728 12.5607L17.687 11.1464Z" fill="#DB542B" mask="url(#path-2-inside-1_136_10468)"/>
<mask id="path-4-inside-2_136_10468" fill="white">
<path fill-rule="evenodd" clip-rule="evenodd" d="M23.0155 15.26C22.834 15.4025 22.5985 15.5165 22.3145 15.609C22.3689 16.1645 22.3064 16.7252 22.131 17.255C21.9557 17.7849 21.6714 18.2722 21.2964 18.6856C20.9215 19.0991 20.4642 19.4294 19.9539 19.6555C19.4436 19.8816 18.8917 19.9984 18.3335 19.9984C17.7754 19.9984 17.2235 19.8816 16.7132 19.6555C16.2029 19.4294 15.7456 19.0991 15.3706 18.6856C14.9957 18.2722 14.7114 17.7849 14.536 17.255C14.3607 16.7252 14.2982 16.1645 14.3525 15.609C14.0685 15.5165 13.833 15.4025 13.652 15.26C13.417 15.075 13.2595 14.828 13.241 14.531C13.2235 14.2555 13.3325 14.0215 13.4415 13.8565C13.5491 13.7002 13.6769 13.5588 13.8215 13.436C13.8915 13.3745 13.9605 13.32 14.0245 13.2725C14.0055 13.17 13.9845 13.046 13.9635 12.9025C13.875 12.2722 13.8315 11.6365 13.8335 11C13.8335 10.843 13.9005 10.726 13.9315 10.6765C13.9705 10.614 14.0165 10.5605 14.0585 10.5175C14.142 10.43 14.25 10.341 14.3685 10.2555C14.6085 10.0815 14.9385 9.886 15.3305 9.703C16.112 9.338 17.1855 9 18.3335 9C19.482 9 20.555 9.3385 21.3365 9.703C21.6735 9.85714 21.9956 10.0421 22.2985 10.2555C22.417 10.341 22.525 10.4305 22.6085 10.5175C22.6505 10.5605 22.6965 10.614 22.7355 10.6765C22.7665 10.726 22.8335 10.843 22.8335 11C22.8335 11.801 22.7685 12.45 22.7035 12.9025C22.6825 13.046 22.6615 13.17 22.6425 13.2725C22.7065 13.32 22.776 13.3745 22.846 13.436C22.971 13.5455 23.114 13.688 23.2255 13.8565C23.335 14.0215 23.4435 14.2555 23.4265 14.5315C23.408 14.828 23.2505 15.075 23.0155 15.26ZM14.8345 11.159C14.842 11.833 14.898 12.378 14.9535 12.759C14.9665 12.849 14.9795 12.929 14.9915 13H21.6755C21.688 12.929 21.7005 12.8485 21.7135 12.759C21.7685 12.378 21.825 11.833 21.8325 11.159C21.7936 11.1261 21.7534 11.0947 21.712 11.065C21.5315 10.9345 21.2575 10.77 20.9135 10.6095C20.222 10.2865 19.2955 10 18.3335 10C17.3715 10 16.445 10.2865 15.7535 10.6095C15.4095 10.77 15.1355 10.9345 14.9555 11.0645C14.914 11.0946 14.8736 11.1262 14.8345 11.1595M14.7275 14L14.726 14.001C14.6397 14.0585 14.5571 14.1213 14.4785 14.189C14.3895 14.267 14.3185 14.343 14.2755 14.409C14.2653 14.4238 14.2561 14.4394 14.248 14.4555C14.2551 14.462 14.2625 14.4681 14.27 14.474C14.345 14.533 14.506 14.6195 14.82 14.705C14.882 14.722 14.9485 14.738 15.0195 14.754L15.024 14.755C15.275 14.8105 15.584 14.86 15.9605 14.899C16.494 14.9545 17.1655 14.991 18.0045 14.999L18.3335 15C19.947 15 20.9905 14.8995 21.6435 14.755L21.6475 14.754C21.719 14.738 21.7855 14.722 21.8475 14.705C22.161 14.62 22.3225 14.533 22.397 14.474C22.4046 14.4681 22.412 14.462 22.419 14.4555C22.4111 14.4394 22.4021 14.4239 22.392 14.409C22.3339 14.3273 22.2655 14.2533 22.1885 14.189C22.1102 14.1213 22.0277 14.0585 21.9415 14.001L21.9395 14H14.7275ZM18.1975 16C19.5185 16 20.5425 15.93 21.3275 15.808C21.3533 16.2157 21.2956 16.6243 21.1579 17.0089C21.0202 17.3934 20.8054 17.7458 20.5267 18.0444C20.248 18.3431 19.9113 18.5816 19.5371 18.7455C19.163 18.9094 18.7593 18.9951 18.3508 18.9975C17.9423 18.9998 17.5377 18.9187 17.1617 18.7592C16.7856 18.5996 16.4462 18.365 16.164 18.0696C15.8819 17.7742 15.6631 17.4243 15.521 17.0413C15.3788 16.6584 15.3164 16.2504 15.3375 15.8425C16.069 15.9435 17.0065 16 18.1975 16ZM14.3725 25.4385C14.3465 25.6245 14.3334 25.8122 14.3335 26V26.5C14.3336 26.6099 14.2974 26.7168 14.2306 26.8041C14.1638 26.8914 14.0701 26.9542 13.964 26.9829C13.8579 27.0116 13.7453 27.0045 13.6436 26.9628C13.542 26.9211 13.4569 26.847 13.4015 26.752C13.0645 26.9348 12.6702 26.9812 12.3 26.8815L11.334 26.6225C10.9499 26.5194 10.6225 26.268 10.4237 25.9235C10.2249 25.579 10.1711 25.1697 10.274 24.7855L10.662 23.3365C10.765 22.9523 11.0164 22.6247 11.3609 22.4258C11.7054 22.227 12.1148 22.1731 12.499 22.276L13.465 22.5345C13.801 22.6245 14.08 22.822 14.274 23.08C14.7369 22.4357 15.3466 21.911 16.0526 21.5493C16.7587 21.1876 17.5407 20.9993 18.334 21C19.1269 20.9995 19.9085 21.1878 20.6142 21.5493C21.3198 21.9108 21.9293 22.4352 22.392 23.079C22.593 22.8125 22.8775 22.6209 23.2 22.535L24.166 22.2765C24.5502 22.1735 24.9595 22.2274 25.304 22.4262C25.6485 22.6249 25.8999 22.9524 26.003 23.3365L26.3915 24.786C26.4425 24.9763 26.4555 25.1747 26.4297 25.37C26.404 25.5653 26.34 25.7537 26.2415 25.9242C26.143 26.0948 26.0118 26.2443 25.8555 26.3642C25.6992 26.4841 25.5208 26.5721 25.3305 26.623L24.365 26.8815C23.9955 26.9812 23.6018 26.9354 23.265 26.7535C23.2095 26.8483 23.1243 26.9222 23.0226 26.9638C22.9208 27.0053 22.8083 27.0122 22.7022 26.9834C22.5962 26.9545 22.5026 26.8915 22.436 26.8041C22.3693 26.7168 22.3333 26.6099 22.3335 26.5V26C22.3336 25.8122 22.3206 25.6245 22.2945 25.4385L19.6925 26.136C19.5717 26.3945 19.3797 26.6132 19.139 26.7665C18.8983 26.9197 18.6189 27.0011 18.3335 27.0011C18.0482 27.0011 17.7688 26.9197 17.528 26.7665C17.2873 26.6132 17.0953 26.3945 16.9745 26.136L14.3725 25.4385ZM16.8935 25.0785C16.9606 24.8506 17.0808 24.6418 17.2442 24.4692C17.4076 24.2967 17.6096 24.1654 17.8335 24.086V22.031C17.1322 22.1197 16.4668 22.3924 15.9051 22.8215C15.3433 23.2506 14.9051 23.8207 14.635 24.474L16.8935 25.0785ZM22.032 24.4735C21.7619 23.8203 21.3237 23.2503 20.7619 22.8213C20.2001 22.3923 19.5348 22.1196 18.8335 22.031V24.0855C19.2855 24.2455 19.6385 24.6155 19.7735 25.079L22.032 24.4735ZM23.1055 24.1135C23.0885 24.0501 23.0842 23.9839 23.0927 23.9188C23.1013 23.8537 23.1226 23.7909 23.1554 23.734C23.1882 23.6771 23.2319 23.6273 23.284 23.5873C23.3361 23.5473 23.3956 23.518 23.459 23.501L24.425 23.242C24.5531 23.2078 24.6894 23.2258 24.8042 23.2921C24.9189 23.3584 25.0027 23.4675 25.037 23.5955L25.4255 25.0445C25.4425 25.1079 25.4469 25.1741 25.4383 25.2392C25.4298 25.3043 25.4085 25.3671 25.3757 25.424C25.3428 25.4809 25.2991 25.5307 25.247 25.5707C25.1949 25.6107 25.1355 25.64 25.072 25.657L24.106 25.916C24.0426 25.933 23.9764 25.9373 23.9112 25.9287C23.8461 25.9202 23.7833 25.8988 23.7264 25.8659C23.6695 25.8331 23.6197 25.7893 23.5797 25.7371C23.5398 25.685 23.5105 25.6255 23.4935 25.562L23.1055 24.1135ZM12.2405 23.242C12.1771 23.2249 12.1109 23.2205 12.0457 23.229C11.9805 23.2375 11.9177 23.2588 11.8607 23.2917C11.8038 23.3245 11.7539 23.3682 11.7139 23.4204C11.6739 23.4725 11.6445 23.532 11.6275 23.5955L11.2395 25.044C11.2225 25.1074 11.2182 25.1736 11.2267 25.2387C11.2353 25.3038 11.2566 25.3666 11.2894 25.4235C11.3222 25.4804 11.3659 25.5302 11.418 25.5702C11.4701 25.6102 11.5296 25.6395 11.593 25.6565L12.559 25.9155C12.6225 25.9325 12.6886 25.9369 12.7537 25.9283C12.8188 25.9198 12.8816 25.8985 12.9385 25.8656C12.9954 25.8328 13.0452 25.7891 13.0852 25.737C13.1252 25.6849 13.1545 25.6254 13.1715 25.562L13.5595 24.113C13.5766 24.0495 13.581 23.9833 13.5725 23.9182C13.564 23.853 13.5427 23.7901 13.5099 23.7332C13.477 23.6763 13.4333 23.6264 13.3812 23.5864C13.329 23.5463 13.2695 23.517 13.206 23.5L12.2405 23.242ZM18.8335 25.5C18.8335 25.6326 18.7809 25.7598 18.6871 25.8536C18.5933 25.9473 18.4661 26 18.3335 26C18.2009 26 18.0737 25.9473 17.98 25.8536C17.8862 25.7598 17.8335 25.6326 17.8335 25.5C17.8335 25.3674 17.8862 25.2402 17.98 25.1464C18.0737 25.0527 18.2009 25 18.3335 25C18.4661 25 18.5933 25.0527 18.6871 25.1464C18.7809 25.2402 18.8335 25.3674 18.8335 25.5Z"/>
</mask>
<path fill-rule="evenodd" clip-rule="evenodd" d="M23.0155 15.26C22.834 15.4025 22.5985 15.5165 22.3145 15.609C22.3689 16.1645 22.3064 16.7252 22.131 17.255C21.9557 17.7849 21.6714 18.2722 21.2964 18.6856C20.9215 19.0991 20.4642 19.4294 19.9539 19.6555C19.4436 19.8816 18.8917 19.9984 18.3335 19.9984C17.7754 19.9984 17.2235 19.8816 16.7132 19.6555C16.2029 19.4294 15.7456 19.0991 15.3706 18.6856C14.9957 18.2722 14.7114 17.7849 14.536 17.255C14.3607 16.7252 14.2982 16.1645 14.3525 15.609C14.0685 15.5165 13.833 15.4025 13.652 15.26C13.417 15.075 13.2595 14.828 13.241 14.531C13.2235 14.2555 13.3325 14.0215 13.4415 13.8565C13.5491 13.7002 13.6769 13.5588 13.8215 13.436C13.8915 13.3745 13.9605 13.32 14.0245 13.2725C14.0055 13.17 13.9845 13.046 13.9635 12.9025C13.875 12.2722 13.8315 11.6365 13.8335 11C13.8335 10.843 13.9005 10.726 13.9315 10.6765C13.9705 10.614 14.0165 10.5605 14.0585 10.5175C14.142 10.43 14.25 10.341 14.3685 10.2555C14.6085 10.0815 14.9385 9.886 15.3305 9.703C16.112 9.338 17.1855 9 18.3335 9C19.482 9 20.555 9.3385 21.3365 9.703C21.6735 9.85714 21.9956 10.0421 22.2985 10.2555C22.417 10.341 22.525 10.4305 22.6085 10.5175C22.6505 10.5605 22.6965 10.614 22.7355 10.6765C22.7665 10.726 22.8335 10.843 22.8335 11C22.8335 11.801 22.7685 12.45 22.7035 12.9025C22.6825 13.046 22.6615 13.17 22.6425 13.2725C22.7065 13.32 22.776 13.3745 22.846 13.436C22.971 13.5455 23.114 13.688 23.2255 13.8565C23.335 14.0215 23.4435 14.2555 23.4265 14.5315C23.408 14.828 23.2505 15.075 23.0155 15.26ZM14.8345 11.159C14.842 11.833 14.898 12.378 14.9535 12.759C14.9665 12.849 14.9795 12.929 14.9915 13H21.6755C21.688 12.929 21.7005 12.8485 21.7135 12.759C21.7685 12.378 21.825 11.833 21.8325 11.159C21.7936 11.1261 21.7534 11.0947 21.712 11.065C21.5315 10.9345 21.2575 10.77 20.9135 10.6095C20.222 10.2865 19.2955 10 18.3335 10C17.3715 10 16.445 10.2865 15.7535 10.6095C15.4095 10.77 15.1355 10.9345 14.9555 11.0645C14.914 11.0946 14.8736 11.1262 14.8345 11.1595M14.7275 14L14.726 14.001C14.6397 14.0585 14.5571 14.1213 14.4785 14.189C14.3895 14.267 14.3185 14.343 14.2755 14.409C14.2653 14.4238 14.2561 14.4394 14.248 14.4555C14.2551 14.462 14.2625 14.4681 14.27 14.474C14.345 14.533 14.506 14.6195 14.82 14.705C14.882 14.722 14.9485 14.738 15.0195 14.754L15.024 14.755C15.275 14.8105 15.584 14.86 15.9605 14.899C16.494 14.9545 17.1655 14.991 18.0045 14.999L18.3335 15C19.947 15 20.9905 14.8995 21.6435 14.755L21.6475 14.754C21.719 14.738 21.7855 14.722 21.8475 14.705C22.161 14.62 22.3225 14.533 22.397 14.474C22.4046 14.4681 22.412 14.462 22.419 14.4555C22.4111 14.4394 22.4021 14.4239 22.392 14.409C22.3339 14.3273 22.2655 14.2533 22.1885 14.189C22.1102 14.1213 22.0277 14.0585 21.9415 14.001L21.9395 14H14.7275ZM18.1975 16C19.5185 16 20.5425 15.93 21.3275 15.808C21.3533 16.2157 21.2956 16.6243 21.1579 17.0089C21.0202 17.3934 20.8054 17.7458 20.5267 18.0444C20.248 18.3431 19.9113 18.5816 19.5371 18.7455C19.163 18.9094 18.7593 18.9951 18.3508 18.9975C17.9423 18.9998 17.5377 18.9187 17.1617 18.7592C16.7856 18.5996 16.4462 18.365 16.164 18.0696C15.8819 17.7742 15.6631 17.4243 15.521 17.0413C15.3788 16.6584 15.3164 16.2504 15.3375 15.8425C16.069 15.9435 17.0065 16 18.1975 16ZM14.3725 25.4385C14.3465 25.6245 14.3334 25.8122 14.3335 26V26.5C14.3336 26.6099 14.2974 26.7168 14.2306 26.8041C14.1638 26.8914 14.0701 26.9542 13.964 26.9829C13.8579 27.0116 13.7453 27.0045 13.6436 26.9628C13.542 26.9211 13.4569 26.847 13.4015 26.752C13.0645 26.9348 12.6702 26.9812 12.3 26.8815L11.334 26.6225C10.9499 26.5194 10.6225 26.268 10.4237 25.9235C10.2249 25.579 10.1711 25.1697 10.274 24.7855L10.662 23.3365C10.765 22.9523 11.0164 22.6247 11.3609 22.4258C11.7054 22.227 12.1148 22.1731 12.499 22.276L13.465 22.5345C13.801 22.6245 14.08 22.822 14.274 23.08C14.7369 22.4357 15.3466 21.911 16.0526 21.5493C16.7587 21.1876 17.5407 20.9993 18.334 21C19.1269 20.9995 19.9085 21.1878 20.6142 21.5493C21.3198 21.9108 21.9293 22.4352 22.392 23.079C22.593 22.8125 22.8775 22.6209 23.2 22.535L24.166 22.2765C24.5502 22.1735 24.9595 22.2274 25.304 22.4262C25.6485 22.6249 25.8999 22.9524 26.003 23.3365L26.3915 24.786C26.4425 24.9763 26.4555 25.1747 26.4297 25.37C26.404 25.5653 26.34 25.7537 26.2415 25.9242C26.143 26.0948 26.0118 26.2443 25.8555 26.3642C25.6992 26.4841 25.5208 26.5721 25.3305 26.623L24.365 26.8815C23.9955 26.9812 23.6018 26.9354 23.265 26.7535C23.2095 26.8483 23.1243 26.9222 23.0226 26.9638C22.9208 27.0053 22.8083 27.0122 22.7022 26.9834C22.5962 26.9545 22.5026 26.8915 22.436 26.8041C22.3693 26.7168 22.3333 26.6099 22.3335 26.5V26C22.3336 25.8122 22.3206 25.6245 22.2945 25.4385L19.6925 26.136C19.5717 26.3945 19.3797 26.6132 19.139 26.7665C18.8983 26.9197 18.6189 27.0011 18.3335 27.0011C18.0482 27.0011 17.7688 26.9197 17.528 26.7665C17.2873 26.6132 17.0953 26.3945 16.9745 26.136L14.3725 25.4385ZM16.8935 25.0785C16.9606 24.8506 17.0808 24.6418 17.2442 24.4692C17.4076 24.2967 17.6096 24.1654 17.8335 24.086V22.031C17.1322 22.1197 16.4668 22.3924 15.9051 22.8215C15.3433 23.2506 14.9051 23.8207 14.635 24.474L16.8935 25.0785ZM22.032 24.4735C21.7619 23.8203 21.3237 23.2503 20.7619 22.8213C20.2001 22.3923 19.5348 22.1196 18.8335 22.031V24.0855C19.2855 24.2455 19.6385 24.6155 19.7735 25.079L22.032 24.4735ZM23.1055 24.1135C23.0885 24.0501 23.0842 23.9839 23.0927 23.9188C23.1013 23.8537 23.1226 23.7909 23.1554 23.734C23.1882 23.6771 23.2319 23.6273 23.284 23.5873C23.3361 23.5473 23.3956 23.518 23.459 23.501L24.425 23.242C24.5531 23.2078 24.6894 23.2258 24.8042 23.2921C24.9189 23.3584 25.0027 23.4675 25.037 23.5955L25.4255 25.0445C25.4425 25.1079 25.4469 25.1741 25.4383 25.2392C25.4298 25.3043 25.4085 25.3671 25.3757 25.424C25.3428 25.4809 25.2991 25.5307 25.247 25.5707C25.1949 25.6107 25.1355 25.64 25.072 25.657L24.106 25.916C24.0426 25.933 23.9764 25.9373 23.9112 25.9287C23.8461 25.9202 23.7833 25.8988 23.7264 25.8659C23.6695 25.8331 23.6197 25.7893 23.5797 25.7371C23.5398 25.685 23.5105 25.6255 23.4935 25.562L23.1055 24.1135ZM12.2405 23.242C12.1771 23.2249 12.1109 23.2205 12.0457 23.229C11.9805 23.2375 11.9177 23.2588 11.8607 23.2917C11.8038 23.3245 11.7539 23.3682 11.7139 23.4204C11.6739 23.4725 11.6445 23.532 11.6275 23.5955L11.2395 25.044C11.2225 25.1074 11.2182 25.1736 11.2267 25.2387C11.2353 25.3038 11.2566 25.3666 11.2894 25.4235C11.3222 25.4804 11.3659 25.5302 11.418 25.5702C11.4701 25.6102 11.5296 25.6395 11.593 25.6565L12.559 25.9155C12.6225 25.9325 12.6886 25.9369 12.7537 25.9283C12.8188 25.9198 12.8816 25.8985 12.9385 25.8656C12.9954 25.8328 13.0452 25.7891 13.0852 25.737C13.1252 25.6849 13.1545 25.6254 13.1715 25.562L13.5595 24.113C13.5766 24.0495 13.581 23.9833 13.5725 23.9182C13.564 23.853 13.5427 23.7901 13.5099 23.7332C13.477 23.6763 13.4333 23.6264 13.3812 23.5864C13.329 23.5463 13.2695 23.517 13.206 23.5L12.2405 23.242ZM18.8335 25.5C18.8335 25.6326 18.7809 25.7598 18.6871 25.8536C18.5933 25.9473 18.4661 26 18.3335 26C18.2009 26 18.0737 25.9473 17.98 25.8536C17.8862 25.7598 17.8335 25.6326 17.8335 25.5C17.8335 25.3674 17.8862 25.2402 17.98 25.1464C18.0737 25.0527 18.2009 25 18.3335 25C18.4661 25 18.5933 25.0527 18.6871 25.1464C18.7809 25.2402 18.8335 25.3674 18.8335 25.5Z" fill="#DB542B"/>
<path d="M23.0155 15.26L23.6331 16.0465L23.6341 16.0457L23.0155 15.26ZM22.3145 15.609L22.0048 14.6582L21.2411 14.9069L21.3193 15.7064L22.3145 15.609ZM14.3525 15.609L15.3478 15.7064L15.426 14.9069L14.6622 14.6582L14.3525 15.609ZM13.652 15.26L14.2706 14.4743L14.2706 14.4743L13.652 15.26ZM13.241 14.531L14.2391 14.4688L14.239 14.4676L13.241 14.531ZM13.4415 13.8565L12.6179 13.2894L12.6124 13.2973L12.6072 13.3053L13.4415 13.8565ZM13.8215 13.436L14.4689 14.1982L14.4752 14.1928L14.4816 14.1872L13.8215 13.436ZM14.0245 13.2725L14.6205 14.0755L15.1215 13.7037L15.0078 13.0902L14.0245 13.2725ZM13.9635 12.9025L12.9732 13.0417L12.9741 13.0473L13.9635 12.9025ZM13.8335 11L14.8335 11.0032V11H13.8335ZM13.9315 10.6765L14.779 11.2073L14.7799 11.2059L13.9315 10.6765ZM14.0585 10.5175L14.774 11.2163L14.782 11.2079L14.0585 10.5175ZM14.3685 10.2555L14.9536 11.0665L14.9555 11.0651L14.3685 10.2555ZM15.3305 9.703L15.7535 10.6091L15.7537 10.609L15.3305 9.703ZM21.3365 9.703L20.9138 10.6093L20.9206 10.6124L21.3365 9.703ZM22.2985 10.2555L22.8837 9.4445L22.8744 9.43796L22.2985 10.2555ZM22.6085 10.5175L21.887 11.21L21.8932 11.2162L22.6085 10.5175ZM22.7355 10.6765L21.8872 11.2059L21.888 11.2073L22.7355 10.6765ZM22.7035 12.9025L23.693 13.0473L23.6934 13.0447L22.7035 12.9025ZM22.6425 13.2725L21.6593 13.0902L21.5456 13.7037L22.0466 14.0755L22.6425 13.2725ZM22.846 13.436L22.186 14.1872L22.1871 14.1882L22.846 13.436ZM23.2255 13.8565L22.3916 14.4083L22.3923 14.4095L23.2255 13.8565ZM23.4265 14.5315L24.4246 14.5938L24.4246 14.593L23.4265 14.5315ZM14.9535 12.759L15.9433 12.616L15.9431 12.6149L14.9535 12.759ZM14.9915 13L14.0055 13.1667L14.1464 14H14.9915V13ZM21.6755 13V14H22.5149L22.6604 13.1734L21.6755 13ZM21.7135 12.759L22.7031 12.9027L22.7033 12.9019L21.7135 12.759ZM21.8325 11.159L22.8325 11.1701L22.8377 10.6993L22.4781 10.3953L21.8325 11.159ZM21.712 11.065L21.1261 11.8754L21.1284 11.8771L21.712 11.065ZM20.9135 10.6095L20.4903 11.5155L20.4907 11.5157L20.9135 10.6095ZM15.7535 10.6095L16.1763 11.5157L16.1767 11.5155L15.7535 10.6095ZM14.9555 11.0645L14.37 10.2538L14.3696 10.2541L14.9555 11.0645ZM14.7275 14V13H14.4247L14.1727 13.168L14.7275 14ZM14.726 14.001L15.2805 14.8332L15.2809 14.833L14.726 14.001ZM14.4785 14.189L13.8256 13.4316L13.8194 13.4369L14.4785 14.189ZM14.2755 14.409L15.0988 14.9766L15.1063 14.9658L15.1134 14.9549L14.2755 14.409ZM14.248 14.4555L13.354 14.0075L13.0149 14.684L13.574 15.1942L14.248 14.4555ZM14.27 14.474L14.8883 13.688L14.8821 13.6832L14.27 14.474ZM14.82 14.705L15.0845 13.7406L15.0828 13.7401L14.82 14.705ZM15.0195 14.754L14.7997 15.7295L14.8025 15.7302L15.0195 14.754ZM15.024 14.755L14.807 15.7312L14.8081 15.7314L15.024 14.755ZM15.9605 14.899L16.064 13.9044L16.0636 13.9043L15.9605 14.899ZM18.0045 14.999L17.995 15.999L18.0015 15.999L18.0045 14.999ZM18.3335 15L18.3305 16H18.3335V15ZM21.6435 14.755L21.8596 15.7314L21.8729 15.7284L21.8862 15.7251L21.6435 14.755ZM21.6475 14.754L21.4292 13.7781L21.417 13.7809L21.4049 13.7839L21.6475 14.754ZM21.8475 14.705L21.5858 13.7398L21.5831 13.7406L21.8475 14.705ZM22.397 14.474L21.7849 13.6832L21.7762 13.6901L22.397 14.474ZM22.419 14.4555L23.0931 15.1942L23.6479 14.6879L23.3163 14.014L22.419 14.4555ZM22.392 14.409L23.2202 13.8486L23.2136 13.8388L23.2068 13.8292L22.392 14.409ZM22.1885 14.189L21.5348 14.9457L21.5409 14.951L21.5471 14.9562L22.1885 14.189ZM21.9415 14.001L22.4968 13.1693L22.4448 13.1346L22.3889 13.1067L21.9415 14.001ZM21.9395 14L22.3869 13.1057L22.1757 13H21.9395V14ZM21.3275 15.808L22.3255 15.7448L22.2563 14.6516L21.174 14.8199L21.3275 15.808ZM15.3375 15.8425L15.4743 14.8519L14.3952 14.7029L14.3389 15.7908L15.3375 15.8425ZM14.3725 25.4385L14.6315 24.4726L13.5391 24.1798L13.3822 25.2998L14.3725 25.4385ZM14.3335 26H15.3335V25.9995L14.3335 26ZM14.3335 26.5H13.3335L13.3335 26.5005L14.3335 26.5ZM13.4015 26.752L14.2655 26.2485L13.7772 25.4105L12.9247 25.873L13.4015 26.752ZM12.3 26.8815L12.56 25.9159L12.559 25.9156L12.3 26.8815ZM11.334 26.6225L11.0748 27.5883L11.0751 27.5884L11.334 26.6225ZM10.274 24.7855L11.2399 25.0444L11.24 25.0442L10.274 24.7855ZM10.662 23.3365L9.69614 23.0776L9.69606 23.0778L10.662 23.3365ZM12.499 22.276L12.2403 23.2419L12.2405 23.242L12.499 22.276ZM13.465 22.5345L13.7238 21.5686L13.7235 21.5685L13.465 22.5345ZM14.274 23.08L13.4748 23.681L14.2924 24.7683L15.0862 23.6635L14.274 23.08ZM18.334 21L18.3331 22L18.3347 22L18.334 21ZM22.392 23.079L21.58 23.6627L22.3728 24.7655L23.1905 23.681L22.392 23.079ZM23.2 22.535L23.4575 23.5013L23.4585 23.501L23.2 22.535ZM24.166 22.2765L24.4245 23.2425L24.4249 23.2424L24.166 22.2765ZM26.003 23.3365L26.9689 23.0776L26.9688 23.0773L26.003 23.3365ZM26.3915 24.786L27.3575 24.5273L27.3574 24.5271L26.3915 24.786ZM25.3305 26.623L25.0719 25.657H25.0719L25.3305 26.623ZM24.365 26.8815L24.1064 25.9155L24.1045 25.916L24.365 26.8815ZM23.265 26.7535L23.7403 25.8737L22.8902 25.4145L22.402 26.2483L23.265 26.7535ZM22.3335 26.5L23.3335 26.5018V26.5H22.3335ZM22.3335 26L21.3335 25.9995V26H22.3335ZM22.2945 25.4385L23.2849 25.2998L23.128 24.1798L22.0356 24.4726L22.2945 25.4385ZM19.6925 26.136L19.4336 25.1701L18.9837 25.2907L18.7865 25.7127L19.6925 26.136ZM16.9745 26.136L17.8805 25.7127L17.6834 25.2907L17.2335 25.1701L16.9745 26.136ZM16.8935 25.0785L16.635 26.0445L17.5773 26.2967L17.8528 25.3609L16.8935 25.0785ZM17.8335 24.086L18.1676 25.0285L18.8335 24.7925V24.086H17.8335ZM17.8335 22.031H18.8335V20.8966L17.7081 21.0389L17.8335 22.031ZM14.635 24.474L13.7109 24.092L13.2754 25.1453L14.3765 25.44L14.635 24.474ZM22.032 24.4735L22.291 25.4394L23.3916 25.1443L22.9561 24.0913L22.032 24.4735ZM18.8335 22.031L18.9589 21.0389L17.8335 20.8967V22.031H18.8335ZM18.8335 24.0855H17.8335V24.7923L18.4998 25.0282L18.8335 24.0855ZM19.7735 25.079L18.8134 25.3586L19.0871 26.2983L20.0325 26.0449L19.7735 25.079ZM23.1055 24.1135L24.0715 23.8548L24.0714 23.8544L23.1055 24.1135ZM23.459 23.501L23.7179 24.4669L23.718 24.4669L23.459 23.501ZM24.425 23.242L24.1669 22.2759L24.1661 22.2761L24.425 23.242ZM25.037 23.5955L26.0029 23.3365L26.0029 23.3364L25.037 23.5955ZM25.4255 25.0445L24.4596 25.3035L24.4597 25.3036L25.4255 25.0445ZM25.072 25.657L24.8132 24.6911L24.8131 24.6911L25.072 25.657ZM24.106 25.916L24.3649 26.8819L24.365 26.8819L24.106 25.916ZM23.4935 25.562L24.4597 25.3041L24.4595 25.3033L23.4935 25.562ZM12.2405 23.242L11.9805 24.2076L11.9824 24.2081L12.2405 23.242ZM11.6275 23.5955L12.5935 23.8542L12.5935 23.8541L11.6275 23.5955ZM11.2395 25.044L12.2054 25.3031L12.2055 25.3027L11.2395 25.044ZM11.593 25.6565L11.852 24.6906L11.8519 24.6906L11.593 25.6565ZM12.559 25.9155L12.8181 24.9496L12.818 24.9496L12.559 25.9155ZM13.1715 25.562L14.1374 25.8209L14.1375 25.8207L13.1715 25.562ZM13.5595 24.113L12.5939 23.853L12.5936 23.8543L13.5595 24.113ZM13.206 23.5L13.4646 22.534L13.4642 22.5339L13.206 23.5ZM22.398 14.4735C22.3389 14.5199 22.2209 14.5878 22.0048 14.6582L22.6242 16.5598C22.9761 16.4452 23.3292 16.2851 23.6331 16.0465L22.398 14.4735ZM21.3193 15.7064C21.36 16.123 21.3131 16.5435 21.1816 16.9409L23.0804 17.5692C23.2996 16.9069 23.3777 16.206 23.3098 15.5116L21.3193 15.7064ZM21.1816 16.9409C21.0501 17.3383 20.8369 17.7038 20.5557 18.0138L22.0372 19.3574C22.5059 18.8407 22.8612 18.2315 23.0804 17.5692L21.1816 16.9409ZM20.5557 18.0138C20.2745 18.3239 19.9315 18.5717 19.5488 18.7412L20.359 20.5698C20.9968 20.2872 21.5685 19.8742 22.0372 19.3574L20.5557 18.0138ZM19.5488 18.7412C19.1661 18.9108 18.7521 18.9984 18.3335 18.9984V20.9984C19.0312 20.9984 19.7211 20.8524 20.359 20.5698L19.5488 18.7412ZM18.3335 18.9984C17.9149 18.9984 17.501 18.9108 17.1183 18.7412L16.3081 20.5698C16.9459 20.8524 17.6359 20.9984 18.3335 20.9984V18.9984ZM17.1183 18.7412C16.7356 18.5717 16.3926 18.3239 16.1114 18.0138L14.6299 19.3574C15.0986 19.8742 15.6702 20.2872 16.3081 20.5698L17.1183 18.7412ZM16.1114 18.0138C15.8301 17.7038 15.6169 17.3383 15.4854 16.9409L13.5867 17.5692C13.8059 18.2315 14.1612 18.8407 14.6299 19.3574L16.1114 18.0138ZM15.4854 16.9409C15.3539 16.5435 15.307 16.123 15.3478 15.7064L13.3573 15.5116C13.2894 16.206 13.3675 16.9069 13.5867 17.5692L15.4854 16.9409ZM14.6622 14.6582C14.4459 14.5877 14.3286 14.5199 14.2706 14.4743L13.0334 16.0457C13.3375 16.2851 13.6912 16.4453 14.0428 16.5598L14.6622 14.6582ZM14.2706 14.4743C14.2368 14.4476 14.2281 14.4319 14.2294 14.4342C14.2302 14.4356 14.2327 14.4403 14.2351 14.4479C14.2375 14.4557 14.2387 14.4631 14.2391 14.4688L12.243 14.5932C12.283 15.2359 12.6282 15.7267 13.0335 16.0457L14.2706 14.4743ZM14.239 14.4676C14.2399 14.4814 14.2367 14.4858 14.2404 14.4748C14.2449 14.4615 14.2554 14.4387 14.2759 14.4077L12.6072 13.3053C12.4363 13.5639 12.2063 14.0158 12.243 14.5944L14.239 14.4676ZM14.2652 14.4236C14.3229 14.3398 14.3913 14.264 14.4689 14.1982L13.1742 12.6738C12.9625 12.8536 12.7754 13.0606 12.6179 13.2894L14.2652 14.4236ZM14.4816 14.1872C14.5271 14.1472 14.574 14.11 14.6205 14.0755L13.4286 12.4695C13.347 12.53 13.256 12.6018 13.1615 12.6848L14.4816 14.1872ZM15.0078 13.0902C14.991 12.9999 14.9721 12.8884 14.953 12.7577L12.9741 13.0473C12.9969 13.2036 13.02 13.3401 13.0413 13.4548L15.0078 13.0902ZM14.9538 12.7633C14.8718 12.1802 14.8317 11.592 14.8335 11.0032L12.8335 10.9968C12.8314 11.6809 12.8781 12.3643 12.9733 13.0417L14.9538 12.7633ZM14.8335 11C14.8335 11.1248 14.7819 11.2027 14.779 11.2073L13.084 10.1457C13.0191 10.2493 12.8335 10.5612 12.8335 11H14.8335ZM14.7799 11.2059C14.774 11.2153 14.77 11.2203 14.7694 11.221C14.7688 11.2218 14.77 11.2202 14.7739 11.2162L13.3432 9.81876C13.2686 9.89508 13.1717 10.0052 13.0832 10.1471L14.7799 11.2059ZM14.782 11.2079C14.8078 11.1808 14.8629 11.1319 14.9536 11.0664L13.7834 9.44455C13.6372 9.55005 13.4762 9.67922 13.3351 9.82712L14.782 11.2079ZM14.9555 11.0651C15.1365 10.9339 15.41 10.7695 15.7535 10.6091L14.9075 8.79688C14.467 9.0025 14.0806 9.2291 13.7816 9.44589L14.9555 11.0651ZM15.7537 10.609C16.4445 10.2864 17.3718 10 18.3335 10V8C16.9993 8 15.7795 8.3896 14.9074 8.79695L15.7537 10.609ZM18.3335 10C19.2955 10 20.2223 10.2867 20.9138 10.6093L21.7592 8.79673C20.8878 8.39027 19.6686 8 18.3335 8V10ZM20.9206 10.6124C21.2016 10.7409 21.4701 10.8951 21.7227 11.073L22.8744 9.43796C22.5211 9.18908 22.1455 8.97337 21.7525 8.79361L20.9206 10.6124ZM21.7134 11.0664C21.8022 11.1305 21.8591 11.1808 21.8871 11.2099L23.33 9.82505C23.191 9.68021 23.0318 9.55146 22.8836 9.44455L21.7134 11.0664ZM21.8932 11.2162C21.897 11.2202 21.8983 11.2218 21.8977 11.221C21.8971 11.2203 21.8931 11.2154 21.8872 11.2059L23.5839 10.1471C23.4954 10.0052 23.3984 9.89507 23.3239 9.81876L21.8932 11.2162ZM21.888 11.2073C21.8851 11.2027 21.8335 11.1248 21.8335 11H23.8335C23.8335 10.5612 23.6479 10.2493 23.583 10.1457L21.888 11.2073ZM21.8335 11C21.8335 11.747 21.7729 12.3481 21.7137 12.7603L23.6934 13.0447C23.7642 12.5519 23.8335 11.855 23.8335 11H21.8335ZM21.7141 12.7577C21.6949 12.8884 21.676 12.9999 21.6593 13.0902L23.6258 13.4548C23.647 13.3401 23.6701 13.2036 23.693 13.0473L21.7141 12.7577ZM22.0466 14.0755C22.0952 14.1116 22.1421 14.1486 22.186 14.1872L23.5061 12.6848C23.41 12.6004 23.3179 12.5284 23.2385 12.4695L22.0466 14.0755ZM22.1871 14.1882C22.279 14.2687 22.3491 14.3441 22.3916 14.4083L24.0595 13.3047C23.879 13.0319 23.6631 12.8223 23.505 12.6838L22.1871 14.1882ZM22.3923 14.4095C22.4121 14.4392 22.4224 14.4615 22.4268 14.4747C22.4306 14.4856 22.4277 14.4822 22.4284 14.47L24.4246 14.593C24.4602 14.0162 24.2323 13.5651 24.0587 13.3035L22.3923 14.4095ZM22.4285 14.4692C22.4288 14.4633 22.4301 14.4557 22.4326 14.4478C22.4349 14.4401 22.4374 14.4354 22.4382 14.434C22.4395 14.4318 22.4308 14.4476 22.397 14.4743L23.6341 16.0457C24.0391 15.7269 24.3845 15.2362 24.4246 14.5938L22.4285 14.4692ZM13.8346 11.1701C13.8426 11.8932 13.9028 12.4829 13.964 12.9031L15.9431 12.6149C15.8933 12.2731 15.8414 11.7728 15.8345 11.1479L13.8346 11.1701ZM13.9638 12.902C13.9783 13.0024 13.9927 13.0908 14.0055 13.1667L15.9775 12.8333C15.9664 12.7672 15.9547 12.6956 15.9433 12.616L13.9638 12.902ZM14.9915 14H21.6755V12H14.9915V14ZM22.6604 13.1734C22.6753 13.0885 22.6894 12.9971 22.7031 12.9027L20.7239 12.6153C20.7116 12.6999 20.7007 12.7695 20.6907 12.8266L22.6604 13.1734ZM22.7033 12.9019C22.7637 12.4832 22.8244 11.8939 22.8325 11.1701L20.8326 11.1479C20.8256 11.7721 20.7734 12.2728 20.7238 12.6161L22.7033 12.9019ZM22.4781 10.3953C22.4192 10.3455 22.3583 10.298 22.2956 10.253L21.1284 11.8771C21.1485 11.8915 21.168 11.9067 21.1869 11.9227L22.4781 10.3953ZM22.2979 10.2546C22.0588 10.0817 21.7287 9.88632 21.3363 9.70328L20.4907 11.5157C20.7864 11.6537 21.0043 11.7873 21.1261 11.8754L22.2979 10.2546ZM21.3367 9.70347C20.5547 9.33819 19.4819 9 18.3335 9V11C19.1091 11 19.8893 11.2348 20.4903 11.5155L21.3367 9.70347ZM18.3335 9C17.1851 9 16.1123 9.33819 15.3303 9.70347L16.1767 11.5155C16.7777 11.2348 17.5579 11 18.3335 11V9ZM15.3307 9.70328C14.9384 9.88631 14.6085 10.0816 14.37 10.2538L15.541 11.8752C15.6626 11.7874 15.8806 11.6537 16.1763 11.5157L15.3307 9.70328ZM14.3696 10.2541C14.3066 10.2997 14.2455 10.3477 14.1863 10.398L15.4827 11.921C15.5017 11.9048 15.5213 11.8895 15.5414 11.8749L14.3696 10.2541ZM14.1727 13.168L14.1712 13.169L15.2809 14.833L15.2824 14.832L14.1727 13.168ZM14.1715 13.1688C14.0509 13.2492 13.9354 13.3369 13.8256 13.4316L15.1315 14.9464C15.1788 14.9056 15.2286 14.8678 15.2805 14.8332L14.1715 13.1688ZM13.8194 13.4369C13.6985 13.5429 13.5516 13.6882 13.4377 13.8631L15.1134 14.9549C15.1037 14.9697 15.0966 14.9789 15.0939 14.9823C15.091 14.9859 15.0906 14.986 15.0936 14.9828C15.0965 14.9797 15.1016 14.9744 15.1093 14.967C15.1168 14.9597 15.1263 14.951 15.1376 14.9411L13.8194 13.4369ZM13.4522 13.8414C13.4157 13.8944 13.3829 13.9499 13.354 14.0075L15.142 14.9035C15.1294 14.9289 15.1149 14.9533 15.0988 14.9766L13.4522 13.8414ZM13.574 15.1942C13.601 15.2188 13.629 15.2424 13.6579 15.2648L14.8821 13.6832C14.8959 13.6939 14.9092 13.7051 14.9221 13.7168L13.574 15.1942ZM13.6517 15.26C13.8759 15.4363 14.1815 15.5676 14.5573 15.6699L15.0828 13.7401C14.965 13.7081 14.8963 13.6812 14.8632 13.6665C14.827 13.6503 14.8443 13.6535 14.8883 13.688L13.6517 15.26ZM14.5556 15.6694C14.6381 15.692 14.7209 15.7118 14.7997 15.7295L15.2394 13.7785C15.1762 13.7642 15.126 13.752 15.0845 13.7406L14.5556 15.6694ZM14.8025 15.7302L14.807 15.7312L15.241 13.7788L15.2365 13.7778L14.8025 15.7302ZM14.8081 15.7314C15.1041 15.7969 15.4519 15.8517 15.8575 15.8937L16.0636 13.9043C15.7162 13.8683 15.4459 13.8241 15.2399 13.7786L14.8081 15.7314ZM15.8571 15.8936C16.4297 15.9532 17.1337 15.9907 17.995 15.999L18.0141 13.999C17.1974 13.9913 16.5584 13.9558 16.064 13.9044L15.8571 15.8936ZM18.0015 15.999L18.3305 16L18.3366 14L18.0076 13.999L18.0015 15.999ZM18.3335 16C19.9745 16 21.102 15.899 21.8596 15.7314L21.4275 13.7786C20.879 13.9 19.9196 14 18.3335 14V16ZM21.8862 15.7251L21.8902 15.7241L21.4049 13.7839L21.4009 13.7849L21.8862 15.7251ZM21.8659 15.7299C21.9462 15.7119 22.0293 15.6921 22.112 15.6694L21.5831 13.7406C21.5418 13.7519 21.4919 13.7641 21.4292 13.7781L21.8659 15.7299ZM22.1092 15.6702C22.4851 15.5682 22.793 15.436 23.0179 15.2579L21.7762 13.6901C21.8214 13.6543 21.8397 13.6508 21.8036 13.6669C21.771 13.6815 21.7027 13.7082 21.5858 13.7398L22.1092 15.6702ZM23.0091 15.2648C23.038 15.2424 23.066 15.2189 23.0931 15.1942L21.745 13.7168C21.7579 13.7051 21.7712 13.6938 21.7849 13.6832L23.0091 15.2648ZM23.3163 14.014C23.2881 13.9567 23.256 13.9014 23.2202 13.8486L21.5638 14.9694C21.5482 14.9463 21.5341 14.9221 21.5218 14.897L23.3163 14.014ZM23.2068 13.8292C23.0991 13.6779 22.9725 13.541 22.83 13.4218L21.5471 14.9562C21.5585 14.9657 21.5686 14.9767 21.5773 14.9888L23.2068 13.8292ZM22.8422 13.4323C22.7326 13.3376 22.6173 13.2498 22.4968 13.1693L21.3863 14.8327C21.4381 14.8673 21.4877 14.905 21.5348 14.9457L22.8422 13.4323ZM22.3889 13.1067L22.3869 13.1057L21.4921 14.8943L21.4941 14.8953L22.3889 13.1067ZM21.9395 13H14.7275V15H21.9395V13ZM18.1975 17C19.5494 17 20.6284 16.9287 21.4811 16.7961L21.174 14.8199C20.4567 14.9313 19.4877 15 18.1975 15V17ZM20.3295 15.8712C20.3467 16.1429 20.3083 16.4154 20.2165 16.6717L22.0994 17.346C22.283 16.8332 22.3599 16.2884 22.3255 15.7448L20.3295 15.8712ZM20.2165 16.6717C20.1247 16.9281 19.9815 17.163 19.7957 17.3621L21.2578 18.7267C21.6294 18.3286 21.9158 17.8587 22.0994 17.346L20.2165 16.6717ZM19.7957 17.3621C19.6099 17.5612 19.3854 17.7203 19.1359 17.8295L19.9383 19.6615C20.4372 19.443 20.8862 19.1249 21.2578 18.7267L19.7957 17.3621ZM19.1359 17.8295C18.8865 17.9388 18.6174 17.9959 18.345 17.9975L18.3566 19.9975C18.9012 19.9943 19.4394 19.88 19.9383 19.6615L19.1359 17.8295ZM18.345 17.9975C18.0727 17.9991 17.803 17.945 17.5523 17.8386L16.771 19.6797C17.2724 19.8925 17.8119 20.0006 18.3566 19.9975L18.345 17.9975ZM17.5523 17.8386C17.3016 17.7323 17.0753 17.5758 16.8872 17.3789L15.4409 18.7602C15.8171 19.1541 16.2697 19.467 16.771 19.6797L17.5523 17.8386ZM16.8872 17.3789C16.6991 17.182 16.5532 16.9487 16.4585 16.6934L14.5834 17.3893C14.7729 17.8999 15.0647 18.3664 15.4409 18.7602L16.8872 17.3789ZM16.4585 16.6934C16.3637 16.4381 16.3221 16.1661 16.3362 15.8942L14.3389 15.7908C14.3107 16.3347 14.394 16.8787 14.5834 17.3893L16.4585 16.6934ZM15.2008 16.8331C15.9924 16.9424 16.9787 17 18.1975 17V15C17.0344 15 16.1456 14.9446 15.4743 14.8519L15.2008 16.8331ZM13.3822 25.2998C13.3497 25.5319 13.3334 25.7661 13.3335 26.0005L15.3335 25.9995C15.3335 25.8582 15.3433 25.7171 15.3629 25.5772L13.3822 25.2998ZM13.3335 26V26.5H15.3335V26H13.3335ZM13.3335 26.5005C13.3335 26.3906 13.3696 26.2837 13.4364 26.1964L15.0248 27.4117C15.2252 27.1499 15.3337 26.8292 15.3335 26.4995L13.3335 26.5005ZM13.4364 26.1964C13.5032 26.1091 13.5969 26.0463 13.703 26.0176L14.2251 27.9483C14.5434 27.8622 14.8245 27.6736 15.0248 27.4117L13.4364 26.1964ZM13.703 26.0176C13.8091 25.9889 13.9217 25.996 14.0234 26.0377L13.2639 27.8879C13.5689 28.0131 13.9067 28.0343 14.2251 27.9483L13.703 26.0176ZM14.0234 26.0377C14.1251 26.0795 14.2102 26.1535 14.2655 26.2485L12.5375 27.2555C12.7036 27.5404 12.9588 27.7627 13.2639 27.8879L14.0234 26.0377ZM12.9247 25.873C12.8131 25.9335 12.6826 25.9489 12.56 25.9159L12.0401 27.8471C12.6579 28.0134 13.316 27.9361 13.8784 27.631L12.9247 25.873ZM12.559 25.9156L11.593 25.6566L11.0751 27.5884L12.0411 27.8474L12.559 25.9156ZM11.5933 25.6567C11.4652 25.6223 11.3561 25.5385 11.2898 25.4237L9.55754 26.4233C9.88883 26.9974 10.4346 27.4165 11.0748 27.5883L11.5933 25.6567ZM11.2898 25.4237C11.2236 25.3089 11.2056 25.1724 11.2399 25.0444L9.30811 24.5266C9.13653 25.1669 9.22624 25.8491 9.55754 26.4233L11.2898 25.4237ZM11.24 25.0442L11.628 23.5952L9.69606 23.0778L9.30806 24.5268L11.24 25.0442ZM11.6279 23.5954C11.6623 23.4674 11.7461 23.3582 11.8609 23.2919L10.861 21.5598C10.2868 21.8913 9.8678 22.4372 9.69614 23.0776L11.6279 23.5954ZM11.8609 23.2919C11.9757 23.2256 12.1122 23.2076 12.2403 23.2419L12.7578 21.3101C12.1174 21.1385 11.4351 21.2283 10.861 21.5598L11.8609 23.2919ZM12.2405 23.242L13.2065 23.5005L13.7235 21.5685L12.7575 21.31L12.2405 23.242ZM13.2063 23.5004C13.3193 23.5307 13.4106 23.5956 13.4748 23.681L15.0733 22.479C14.7495 22.0484 14.2828 21.7183 13.7238 21.5686L13.2063 23.5004ZM15.0862 23.6635C15.4563 23.1482 15.9439 22.7286 16.5086 22.4393L15.5967 20.6593C14.7492 21.0934 14.0174 21.7232 13.4619 22.4965L15.0862 23.6635ZM16.5086 22.4393C17.0732 22.15 17.6987 21.9994 18.3331 22L18.3349 20C17.3828 19.9991 16.4441 20.2251 15.5967 20.6593L16.5086 22.4393ZM18.3347 22C18.9688 21.9996 19.5939 22.1502 20.1582 22.4393L21.0701 20.6593C20.2232 20.2254 19.285 19.9994 18.3334 20L18.3347 22ZM20.1582 22.4393C20.7226 22.7284 21.2099 23.1478 21.58 23.6627L23.204 22.4953C22.6486 21.7226 21.9171 21.0932 21.0701 20.6593L20.1582 22.4393ZM23.1905 23.681C23.2569 23.593 23.3509 23.5297 23.4575 23.5013L22.9426 21.5687C22.404 21.7122 21.9291 22.032 21.5936 22.477L23.1905 23.681ZM23.4585 23.501L24.4245 23.2425L23.9075 21.3105L22.9415 21.569L23.4585 23.501ZM24.4249 23.2424C24.5529 23.2081 24.6894 23.226 24.8042 23.2923L25.8038 21.56C25.2297 21.2287 24.5474 21.139 23.9072 21.3106L24.4249 23.2424ZM24.8042 23.2923C24.919 23.3586 25.0029 23.4677 25.0372 23.5957L26.9688 23.0773C26.797 22.437 26.3779 21.8913 25.8038 21.56L24.8042 23.2923ZM25.0371 23.5954L25.4256 25.0449L27.3574 24.5271L26.9689 23.0776L25.0371 23.5954ZM25.4256 25.0447C25.4426 25.1081 25.4469 25.1743 25.4383 25.2394L27.4212 25.5007C27.4641 25.1752 27.4424 24.8445 27.3575 24.5273L25.4256 25.0447ZM25.4383 25.2394C25.4297 25.3045 25.4084 25.3672 25.3756 25.4241L27.1074 26.4244C27.2717 26.1401 27.3783 25.8262 27.4212 25.5007L25.4383 25.2394ZM25.3756 25.4241C25.3427 25.481 25.299 25.5308 25.2469 25.5708L26.4641 27.1577C26.7246 26.9579 26.9432 26.7087 27.1074 26.4244L25.3756 25.4241ZM25.2469 25.5708C25.1948 25.6107 25.1353 25.64 25.0719 25.657L25.5892 27.589C25.9063 27.5041 26.2036 27.3575 26.4641 27.1577L25.2469 25.5708ZM25.0719 25.657L24.1064 25.9155L24.6237 27.8475L25.5892 27.589L25.0719 25.657ZM24.1045 25.916C23.9821 25.9491 23.8518 25.9339 23.7403 25.8737L22.7898 27.6333C23.3518 27.9369 24.0088 28.0134 24.6256 27.847L24.1045 25.916ZM22.402 26.2483C22.4575 26.1535 22.5427 26.0796 22.6445 26.038L23.4007 27.8896C23.7059 27.7649 23.9615 27.5432 24.128 27.2587L22.402 26.2483ZM22.6445 26.038C22.7462 25.9965 22.8588 25.9896 22.9648 26.0184L22.4396 27.9483C22.7577 28.0348 23.0955 28.0142 23.4007 27.8896L22.6445 26.038ZM22.9648 26.0184C23.0708 26.0473 23.1644 26.1103 23.2311 26.1977L21.6409 27.4106C21.8408 27.6728 22.1216 27.8617 22.4396 27.9483L22.9648 26.0184ZM23.2311 26.1977C23.2977 26.285 23.3337 26.3919 23.3335 26.5018L21.3335 26.4982C21.3329 26.8279 21.441 27.1485 21.6409 27.4106L23.2311 26.1977ZM23.3335 26.5V26H21.3335V26.5H23.3335ZM23.3335 26.0005C23.3336 25.7661 23.3174 25.5319 23.2849 25.2998L21.3042 25.5772C21.3238 25.7171 21.3336 25.8582 21.3335 25.9995L23.3335 26.0005ZM22.0356 24.4726L19.4336 25.1701L19.9515 27.1019L22.5535 26.4044L22.0356 24.4726ZM18.7865 25.7127C18.7463 25.7989 18.6823 25.8718 18.602 25.9229L19.676 27.6101C20.0772 27.3547 20.3972 26.9902 20.5985 26.5593L18.7865 25.7127ZM18.602 25.9229C18.5218 25.974 18.4286 26.0011 18.3335 26.0011V28.0011C18.8091 28.0011 19.2748 27.8654 19.676 27.6101L18.602 25.9229ZM18.3335 26.0011C18.2384 26.0011 18.1453 25.974 18.065 25.9229L16.991 27.6101C17.3922 27.8654 17.858 28.0011 18.3335 28.0011V26.0011ZM18.065 25.9229C17.9848 25.8718 17.9208 25.7989 17.8805 25.7127L16.0685 26.5593C16.2698 26.9902 16.5899 27.3547 16.991 27.6101L18.065 25.9229ZM17.2335 25.1701L14.6315 24.4726L14.1136 26.4044L16.7156 27.1019L17.2335 25.1701ZM17.8528 25.3609C17.8753 25.2846 17.9155 25.2147 17.9703 25.1569L16.5182 23.7816C16.2461 24.0689 16.046 24.4165 15.9342 24.7961L17.8528 25.3609ZM17.9703 25.1569C18.025 25.0991 18.0926 25.0551 18.1676 25.0285L17.4994 23.1435C17.1265 23.2756 16.7902 23.4943 16.5182 23.7816L17.9703 25.1569ZM18.8335 24.086V22.031H16.8335V24.086H18.8335ZM17.7081 21.0389C16.8317 21.1497 16.0001 21.4905 15.2981 22.0268L16.5121 23.6162C16.9336 23.2942 17.4328 23.0896 17.9589 23.0231L17.7081 21.0389ZM15.2981 22.0268C14.596 22.563 14.0484 23.2755 13.7109 24.092L15.5592 24.856C15.7618 24.3659 16.0906 23.9381 16.5121 23.6162L15.2981 22.0268ZM14.3765 25.44L16.635 26.0445L17.1521 24.1125L14.8936 23.508L14.3765 25.44ZM22.9561 24.0913C22.6185 23.275 22.0709 22.5626 21.3688 22.0265L20.155 23.616C20.5765 23.9379 20.9053 24.3656 21.1079 24.8557L22.9561 24.0913ZM21.3688 22.0265C20.6667 21.4904 19.8353 21.1496 18.9589 21.0389L18.7082 23.0231C19.2343 23.0896 19.7335 23.2942 20.155 23.616L21.3688 22.0265ZM17.8335 22.031V24.0855H19.8335V22.031H17.8335ZM18.4998 25.0282C18.6512 25.0817 18.7692 25.2067 18.8134 25.3586L20.7336 24.7994C20.5079 24.0243 19.9199 23.4093 19.1672 23.1428L18.4998 25.0282ZM20.0325 26.0449L22.291 25.4394L21.7731 23.5076L19.5146 24.1131L20.0325 26.0449ZM24.0714 23.8544C24.0884 23.9179 24.0928 23.984 24.0842 24.0491L22.1012 23.7885C22.0756 23.9838 22.0886 24.1823 22.1397 24.3726L24.0714 23.8544ZM24.0842 24.0491C24.0756 24.1142 24.0543 24.177 24.0215 24.2339L22.2893 23.2342C22.1908 23.4048 22.1269 23.5932 22.1012 23.7885L24.0842 24.0491ZM24.0215 24.2339C23.9887 24.2908 23.945 24.3406 23.8929 24.3806L22.6752 22.794C22.5189 22.914 22.3878 23.0635 22.2893 23.2342L24.0215 24.2339ZM23.8929 24.3806C23.8408 24.4206 23.7813 24.4499 23.7179 24.4669L23.2002 22.5351C23.0099 22.5861 22.8315 22.6741 22.6752 22.794L23.8929 24.3806ZM23.718 24.4669L24.684 24.2079L24.1661 22.2761L23.2001 22.5351L23.718 24.4669ZM24.6832 24.2081C24.5552 24.2423 24.4188 24.2243 24.304 24.158L25.3044 22.4262C24.9601 22.2273 24.551 22.1733 24.1669 22.2759L24.6832 24.2081ZM24.304 24.158C24.1893 24.0917 24.1055 23.9826 24.0712 23.8546L26.0029 23.3364C25.8999 22.9524 25.6486 22.625 25.3044 22.4262L24.304 24.158ZM24.0711 23.8545L24.4596 25.3035L26.3914 24.7855L26.0029 23.3365L24.0711 23.8545ZM24.4597 25.3036C24.4427 25.2402 24.4383 25.174 24.4469 25.1089L26.4298 25.3695C26.4555 25.1742 26.4424 24.9757 26.3914 24.7854L24.4597 25.3036ZM24.4469 25.1089C24.4554 25.0438 24.4767 24.981 24.5096 24.9241L26.2418 25.9238C26.3402 25.7532 26.4041 25.5648 26.4298 25.3695L24.4469 25.1089ZM24.5096 24.9241C24.5424 24.8672 24.5861 24.8174 24.6382 24.7774L25.8559 26.364C26.0122 26.244 26.1433 26.0945 26.2418 25.9238L24.5096 24.9241ZM24.6382 24.7774C24.6903 24.7374 24.7498 24.7081 24.8132 24.6911L25.3309 26.6229C25.5212 26.5719 25.6996 26.4839 25.8559 26.364L24.6382 24.7774ZM24.8131 24.6911L23.8471 24.9501L24.365 26.8819L25.331 26.6229L24.8131 24.6911ZM23.8472 24.9501C23.9107 24.9331 23.9769 24.9287 24.042 24.9373L23.7805 26.9202C23.9759 26.9459 24.1745 26.9329 24.3649 26.8819L23.8472 24.9501ZM24.042 24.9373C24.1071 24.9459 24.1699 24.9673 24.2268 25.0001L23.226 26.7317C23.3967 26.8304 23.5851 26.8944 23.7805 26.9202L24.042 24.9373ZM24.2268 25.0001C24.2837 25.033 24.3335 25.0768 24.3735 25.1289L22.786 26.3454C22.9058 26.5018 23.0554 26.6331 23.226 26.7317L24.2268 25.0001ZM24.3735 25.1289C24.4135 25.1811 24.4428 25.2406 24.4597 25.3041L22.5274 25.8199C22.5782 26.0104 22.6661 26.1889 22.786 26.3454L24.3735 25.1289ZM24.4595 25.3033L24.0715 23.8548L22.1396 24.3722L22.5276 25.8207L24.4595 25.3033ZM12.5005 22.2764C12.3102 22.2251 12.1115 22.2119 11.916 22.2375L12.1754 24.2206C12.1102 24.2291 12.044 24.2247 11.9805 24.2076L12.5005 22.2764ZM11.916 22.2375C11.7205 22.263 11.532 22.3269 11.3612 22.4254L12.3603 24.1579C12.3034 24.1908 12.2405 24.2121 12.1754 24.2206L11.916 22.2375ZM11.3612 22.4254C11.1904 22.5239 11.0407 22.6551 10.9206 22.8115L12.5072 24.0292C12.4671 24.0814 12.4172 24.1251 12.3603 24.1579L11.3612 22.4254ZM10.9206 22.8115C10.8006 22.9679 10.7125 23.1464 10.6615 23.3369L12.5935 23.8541C12.5765 23.9176 12.5472 23.9771 12.5072 24.0292L10.9206 22.8115ZM10.6616 23.3368L10.2736 24.7853L12.2055 25.3027L12.5935 23.8542L10.6616 23.3368ZM10.2737 24.7849C10.2226 24.9752 10.2096 25.1737 10.2352 25.369L12.2182 25.1084C12.2268 25.1735 12.2224 25.2397 12.2054 25.3031L10.2737 24.7849ZM10.2352 25.369C10.2609 25.5643 10.3248 25.7527 10.4233 25.9233L12.1555 24.9236C12.1883 24.9805 12.2096 25.0433 12.2182 25.1084L10.2352 25.369ZM10.4233 25.9233C10.5218 26.094 10.6529 26.2435 10.8092 26.3635L12.0269 24.7769C12.079 24.8169 12.1227 24.8667 12.1555 24.9236L10.4233 25.9233ZM10.8092 26.3635C10.9655 26.4834 11.1439 26.5714 11.3342 26.6224L11.8519 24.6906C11.9153 24.7076 11.9748 24.7369 12.0269 24.7769L10.8092 26.3635ZM11.3341 26.6224L12.3001 26.8814L12.818 24.9496L11.852 24.6906L11.3341 26.6224ZM12.2999 26.8814C12.4902 26.9324 12.6887 26.9455 12.884 26.9198L12.6234 24.9368C12.6885 24.9283 12.7547 24.9326 12.8181 24.9496L12.2999 26.8814ZM12.884 26.9198C13.0794 26.8941 13.2677 26.8302 13.4384 26.7317L12.4386 24.9995C12.4955 24.9667 12.5583 24.9454 12.6234 24.9368L12.884 26.9198ZM13.4384 26.7317C13.609 26.6333 13.7586 26.5021 13.8785 26.3458L12.2919 25.1282C12.3319 25.0761 12.3818 25.0323 12.4386 24.9995L13.4384 26.7317ZM13.8785 26.3458C13.9985 26.1895 14.0864 26.0111 14.1374 25.8209L12.2056 25.3031C12.2226 25.2397 12.2519 25.1803 12.2919 25.1282L13.8785 26.3458ZM14.1375 25.8207L14.5255 24.3717L12.5936 23.8543L12.2056 25.3033L14.1375 25.8207ZM14.5251 24.373C14.5764 24.1826 14.5896 23.984 14.5641 23.7885L12.5809 24.0478C12.5724 23.9826 12.5768 23.9164 12.5939 23.853L14.5251 24.373ZM14.5641 23.7885C14.5385 23.593 14.4746 23.4045 14.3761 23.2337L12.6436 24.2328C12.6108 24.1758 12.5895 24.113 12.5809 24.0478L14.5641 23.7885ZM14.3761 23.2337C14.2776 23.0628 14.1464 22.9131 13.99 22.7931L12.7723 24.3796C12.7202 24.3396 12.6764 24.2897 12.6436 24.2328L14.3761 23.2337ZM13.99 22.7931C13.8336 22.673 13.6551 22.585 13.4646 22.534L12.9474 24.466C12.8839 24.449 12.8244 24.4196 12.7723 24.3796L13.99 22.7931ZM13.4642 22.5339L12.4987 22.2759L11.9824 24.2081L12.9479 24.4661L13.4642 22.5339ZM17.8335 25.5C17.8335 25.3674 17.8862 25.2402 17.98 25.1464L19.3942 26.5607C19.6755 26.2794 19.8335 25.8978 19.8335 25.5H17.8335ZM17.98 25.1464C18.0737 25.0527 18.2009 25 18.3335 25V27C18.7314 27 19.1129 26.842 19.3942 26.5607L17.98 25.1464ZM18.3335 25C18.4661 25 18.5933 25.0527 18.6871 25.1464L17.2729 26.5607C17.5542 26.842 17.9357 27 18.3335 27V25ZM18.6871 25.1464C18.7809 25.2402 18.8335 25.3674 18.8335 25.5H16.8335C16.8335 25.8978 16.9916 26.2794 17.2729 26.5607L18.6871 25.1464ZM18.8335 25.5C18.8335 25.6326 18.7809 25.7598 18.6871 25.8536L17.2729 24.4393C16.9916 24.7206 16.8335 25.1022 16.8335 25.5H18.8335ZM18.6871 25.8536C18.5933 25.9473 18.4661 26 18.3335 26V24C17.9357 24 17.5542 24.158 17.2729 24.4393L18.6871 25.8536ZM18.3335 26C18.2009 26 18.0737 25.9473 17.98 25.8536L19.3942 24.4393C19.1129 24.158 18.7314 24 18.3335 24V26ZM17.98 25.8536C17.8862 25.7598 17.8335 25.6326 17.8335 25.5H19.8335C19.8335 25.1022 19.6755 24.7206 19.3942 24.4393L17.98 25.8536Z" fill="#DB542B" mask="url(#path-4-inside-2_136_10468)"/>
</svg>
