<svg width="24" height="24" viewBox="0 0 24 24" fill="none" xmlns="http://www.w3.org/2000/svg">
<mask id="path-1-inside-1_136_10261" fill="white">
<path d="M10.5 5.5C10.5 5.36739 10.5527 5.24021 10.6464 5.14645C10.7402 5.05268 10.8674 5 11 5H13C13.1326 5 13.2598 5.05268 13.3536 5.14645C13.4473 5.24021 13.5 5.36739 13.5 5.5C13.5 5.63261 13.4473 5.75979 13.3536 5.85355C13.2598 5.94732 13.1326 6 13 6H11C10.8674 6 10.7402 5.94732 10.6464 5.85355C10.5527 5.75979 10.5 5.63261 10.5 5.5Z"/>
</mask>
<path d="M10.5 5.5C10.5 5.36739 10.5527 5.24021 10.6464 5.14645C10.7402 5.05268 10.8674 5 11 5H13C13.1326 5 13.2598 5.05268 13.3536 5.14645C13.4473 5.24021 13.5 5.36739 13.5 5.5C13.5 5.63261 13.4473 5.75979 13.3536 5.85355C13.2598 5.94732 13.1326 6 13 6H11C10.8674 6 10.7402 5.94732 10.6464 5.85355C10.5527 5.75979 10.5 5.63261 10.5 5.5Z" fill="black"/>
<path d="M11.5 5.5C11.5 5.63261 11.4473 5.75978 11.3536 5.85355L9.93934 4.43934C9.65803 4.72065 9.5 5.10218 9.5 5.5H11.5ZM11.3536 5.85355C11.2598 5.94732 11.1326 6 11 6V4C10.6022 4 10.2206 4.15804 9.93934 4.43934L11.3536 5.85355ZM11 6H13V4H11V6ZM13 6C12.8674 6 12.7402 5.94732 12.6464 5.85355L14.0607 4.43934C13.7794 4.15804 13.3978 4 13 4V6ZM12.6464 5.85355C12.5527 5.75978 12.5 5.63261 12.5 5.5H14.5C14.5 5.10218 14.342 4.72065 14.0607 4.43934L12.6464 5.85355ZM12.5 5.5C12.5 5.36739 12.5527 5.24022 12.6464 5.14645L14.0607 6.56066C14.342 6.27935 14.5 5.89782 14.5 5.5H12.5ZM12.6464 5.14645C12.7402 5.05268 12.8674 5 13 5V7C13.3978 7 13.7794 6.84196 14.0607 6.56066L12.6464 5.14645ZM13 5H11V7H13V5ZM11 5C11.1326 5 11.2598 5.05268 11.3536 5.14645L9.93934 6.56066C10.2206 6.84196 10.6022 7 11 7V5ZM11.3536 5.14645C11.4473 5.24022 11.5 5.36739 11.5 5.5H9.5C9.5 5.89782 9.65803 6.27935 9.93934 6.56066L11.3536 5.14645Z" fill="black" mask="url(#path-1-inside-1_136_10261)"/>
<mask id="path-3-inside-2_136_10261" fill="white">
<path fill-rule="evenodd" clip-rule="evenodd" d="M16.6818 9.26C16.5003 9.4025 16.2648 9.5165 15.9808 9.609C16.0351 10.1645 15.9726 10.7252 15.7973 11.255C15.6219 11.7849 15.3376 12.2722 14.9627 12.6856C14.5877 13.0991 14.1304 13.4294 13.6201 13.6555C13.1099 13.8816 12.5579 13.9984 11.9998 13.9984C11.4417 13.9984 10.8897 13.8816 10.3794 13.6555C9.86915 13.4294 9.41184 13.0991 9.03688 12.6856C8.66193 12.2722 8.37765 11.7849 8.20231 11.255C8.02697 10.7252 7.96446 10.1645 8.01879 9.609C7.73479 9.5165 7.49929 9.4025 7.31829 9.26C7.08329 9.075 6.92579 8.828 6.90729 8.531C6.88979 8.2555 6.99879 8.0215 7.10779 7.8565C7.21539 7.70022 7.34316 7.55883 7.48779 7.436C7.55779 7.3745 7.62679 7.32 7.69079 7.2725C7.67179 7.17 7.65079 7.046 7.62979 6.9025C7.54121 6.27224 7.49777 5.63645 7.49979 5C7.49979 4.843 7.56679 4.726 7.59779 4.6765C7.63679 4.614 7.68279 4.5605 7.72479 4.5175C7.80829 4.43 7.91629 4.341 8.03479 4.2555C8.27479 4.0815 8.60479 3.886 8.99679 3.703C9.77829 3.338 10.8518 3 11.9998 3C13.1483 3 14.2213 3.3385 15.0028 3.703C15.3398 3.85714 15.6618 4.04209 15.9648 4.2555C16.0833 4.341 16.1913 4.4305 16.2748 4.5175C16.3168 4.5605 16.3628 4.614 16.4018 4.6765C16.4328 4.726 16.4998 4.843 16.4998 5C16.4998 5.801 16.4348 6.45 16.3698 6.9025C16.3488 7.046 16.3278 7.17 16.3088 7.2725C16.3728 7.32 16.4423 7.3745 16.5123 7.436C16.6373 7.5455 16.7803 7.688 16.8918 7.8565C17.0013 8.0215 17.1098 8.2555 17.0928 8.5315C17.0743 8.828 16.9168 9.075 16.6818 9.26ZM8.50079 5.159C8.50829 5.833 8.56429 6.378 8.61979 6.759C8.63279 6.849 8.64579 6.929 8.65779 7H15.3418C15.3543 6.929 15.3668 6.8485 15.3798 6.759C15.4348 6.378 15.4913 5.833 15.4988 5.159C15.4599 5.1261 15.4197 5.09474 15.3783 5.065C15.1978 4.9345 14.9238 4.77 14.5798 4.6095C13.8883 4.2865 12.9618 4 11.9998 4C11.0378 4 10.1113 4.2865 9.41979 4.6095C9.07579 4.77 8.80179 4.9345 8.62179 5.0645C8.58022 5.09456 8.53985 5.12625 8.50079 5.1595M8.39379 8L8.39229 8.001C8.30599 8.0585 8.22334 8.12129 8.14479 8.189C8.05579 8.267 7.98479 8.343 7.94179 8.409C7.93156 8.42384 7.92237 8.43938 7.91429 8.4555C7.92137 8.46196 7.92871 8.46813 7.93629 8.474C8.01129 8.533 8.17229 8.6195 8.48629 8.705C8.54829 8.722 8.61479 8.738 8.68579 8.754L8.69029 8.755C8.94129 8.8105 9.25029 8.86 9.62679 8.899C10.1603 8.9545 10.8318 8.991 11.6708 8.999L11.9998 9C13.6133 9 14.6568 8.8995 15.3098 8.755L15.3138 8.754C15.3853 8.738 15.4518 8.722 15.5138 8.705C15.8273 8.62 15.9888 8.533 16.0633 8.474C16.0709 8.46813 16.0782 8.46196 16.0853 8.4555C16.0774 8.4394 16.0683 8.42386 16.0583 8.409C16.0001 8.32727 15.9317 8.25334 15.8548 8.189C15.7764 8.1213 15.6939 8.05851 15.6078 8.001L15.6058 8H8.39379ZM11.8638 10C13.1848 10 14.2088 9.93 14.9938 9.808C15.0196 10.2157 14.9619 10.6243 14.8242 11.0089C14.6865 11.3934 14.4717 11.7458 14.193 12.0444C13.9143 12.3431 13.5775 12.5816 13.2034 12.7455C12.8292 12.9094 12.4255 12.9951 12.0171 12.9975C11.6086 12.9998 11.2039 12.9187 10.8279 12.7592C10.4519 12.5996 10.1124 12.365 9.8303 12.0696C9.54818 11.7742 9.32935 11.4243 9.18723 11.0413C9.0451 10.6584 8.98268 10.2504 9.00379 9.8425C9.73529 9.9435 10.6728 10 11.8638 10ZM8.03879 19.4385C8.01274 19.6245 7.9997 19.8122 7.99979 20V20.5C7.99985 20.6099 7.96368 20.7168 7.89689 20.8041C7.8301 20.8914 7.7364 20.9542 7.6303 20.9829C7.52419 21.0116 7.41159 21.0045 7.30991 20.9628C7.20823 20.9211 7.12313 20.847 7.06779 20.752C6.73081 20.9348 6.33648 20.9812 5.96629 20.8815L5.00029 20.6225C4.61617 20.5194 4.28872 20.268 4.08994 19.9235C3.89117 19.579 3.83734 19.1697 3.94029 18.7855L4.32829 17.3365C4.43129 16.9523 4.68268 16.6247 5.02718 16.4258C5.37168 16.227 5.78106 16.1731 6.16529 16.276L7.13129 16.5345C7.46729 16.6245 7.74629 16.822 7.94029 17.08C8.40315 16.4357 9.01285 15.911 9.71889 15.5493C10.4249 15.1876 11.207 14.9993 12.0003 15C12.7932 14.9995 13.5748 15.1878 14.2804 15.5493C14.9861 15.9108 15.5955 16.4352 16.0583 17.079C16.2593 16.8125 16.5437 16.6209 16.8663 16.535L17.8323 16.2765C18.2165 16.1735 18.6258 16.2274 18.9703 16.4262C19.3147 16.6249 19.5662 16.9524 19.6693 17.3365L20.0578 18.786C20.1087 18.9763 20.1217 19.1747 20.096 19.37C20.0702 19.5653 20.0063 19.7537 19.9078 19.9242C19.8092 20.0948 19.6781 20.2443 19.5218 20.3642C19.3655 20.4841 19.1871 20.5721 18.9968 20.623L18.0313 20.8815C17.6618 20.9812 17.2681 20.9354 16.9313 20.7535C16.8758 20.8483 16.7906 20.9222 16.6888 20.9638C16.5871 21.0053 16.4745 21.0122 16.3685 20.9834C16.2625 20.9545 16.1689 20.8915 16.1022 20.8041C16.0356 20.7168 15.9996 20.6099 15.9998 20.5V20C15.9999 19.8122 15.9868 19.6245 15.9608 19.4385L13.3588 20.136C13.238 20.3945 13.046 20.6132 12.8053 20.7665C12.5646 20.9197 12.2851 21.0011 11.9998 21.0011C11.7144 21.0011 11.435 20.9197 11.1943 20.7665C10.9536 20.6132 10.7616 20.3945 10.6408 20.136L8.03879 19.4385ZM10.5598 19.0785C10.6269 18.8506 10.7471 18.6418 10.9105 18.4692C11.0739 18.2967 11.2758 18.1654 11.4998 18.086V16.031C10.7985 16.1197 10.1331 16.3924 9.57133 16.8215C9.00954 17.2506 8.57136 17.8207 8.30129 18.474L10.5598 19.0785ZM15.6983 18.4735C15.4282 17.8203 14.9899 17.2503 14.4282 16.8213C13.8664 16.3923 13.2011 16.1196 12.4998 16.031V18.0855C12.9518 18.2455 13.3048 18.6155 13.4398 19.079L15.6983 18.4735ZM16.7718 18.1135C16.7548 18.0501 16.7504 17.9839 16.759 17.9188C16.7675 17.8537 16.7888 17.7909 16.8217 17.734C16.8545 17.6771 16.8982 17.6273 16.9503 17.5873C17.0024 17.5473 17.0619 17.518 17.1253 17.501L18.0913 17.242C18.2193 17.2078 18.3557 17.2258 18.4705 17.2921C18.5852 17.3584 18.669 17.4675 18.7033 17.5955L19.0918 19.0445C19.1088 19.1079 19.1132 19.1741 19.1046 19.2392C19.096 19.3043 19.0747 19.3671 19.0419 19.424C19.0091 19.4809 18.9654 19.5307 18.9133 19.5707C18.8612 19.6107 18.8017 19.64 18.7383 19.657L17.7723 19.916C17.7088 19.933 17.6426 19.9373 17.5775 19.9287C17.5124 19.9202 17.4496 19.8988 17.3927 19.8659C17.3358 19.8331 17.2859 19.7893 17.246 19.7371C17.206 19.685 17.1767 19.6255 17.1598 19.562L16.7718 18.1135ZM5.90679 17.242C5.84333 17.2249 5.77712 17.2205 5.71195 17.229C5.64678 17.2375 5.58394 17.2588 5.527 17.2917C5.47007 17.3245 5.42017 17.3682 5.38015 17.4204C5.34013 17.4725 5.31079 17.532 5.29379 17.5955L4.90579 19.044C4.88878 19.1074 4.88442 19.1736 4.89298 19.2387C4.90154 19.3038 4.92284 19.3666 4.95567 19.4235C4.98849 19.4804 5.0322 19.5302 5.0843 19.5702C5.13639 19.6102 5.19586 19.6395 5.25929 19.6565L6.22529 19.9155C6.28872 19.9325 6.35488 19.9369 6.41999 19.9283C6.4851 19.9198 6.54789 19.8985 6.60476 19.8656C6.66164 19.8328 6.7115 19.7891 6.75148 19.737C6.79146 19.6849 6.82079 19.6254 6.83779 19.562L7.22579 18.113C7.24288 18.0495 7.24729 17.9833 7.23877 17.9182C7.23025 17.853 7.20896 17.7901 7.17613 17.7332C7.1433 17.6763 7.09956 17.6264 7.04743 17.5864C6.99529 17.5463 6.93578 17.517 6.87229 17.5L5.90679 17.242ZM12.4998 19.5C12.4998 19.6326 12.4471 19.7598 12.3533 19.8536C12.2596 19.9473 12.1324 20 11.9998 20C11.8672 20 11.74 19.9473 11.6462 19.8536C11.5525 19.7598 11.4998 19.6326 11.4998 19.5C11.4998 19.3674 11.5525 19.2402 11.6462 19.1464C11.74 19.0527 11.8672 19 11.9998 19C12.1324 19 12.2596 19.0527 12.3533 19.1464C12.4471 19.2402 12.4998 19.3674 12.4998 19.5Z"/>
</mask>
<path fill-rule="evenodd" clip-rule="evenodd" d="M16.6818 9.26C16.5003 9.4025 16.2648 9.5165 15.9808 9.609C16.0351 10.1645 15.9726 10.7252 15.7973 11.255C15.6219 11.7849 15.3376 12.2722 14.9627 12.6856C14.5877 13.0991 14.1304 13.4294 13.6201 13.6555C13.1099 13.8816 12.5579 13.9984 11.9998 13.9984C11.4417 13.9984 10.8897 13.8816 10.3794 13.6555C9.86915 13.4294 9.41184 13.0991 9.03688 12.6856C8.66193 12.2722 8.37765 11.7849 8.20231 11.255C8.02697 10.7252 7.96446 10.1645 8.01879 9.609C7.73479 9.5165 7.49929 9.4025 7.31829 9.26C7.08329 9.075 6.92579 8.828 6.90729 8.531C6.88979 8.2555 6.99879 8.0215 7.10779 7.8565C7.21539 7.70022 7.34316 7.55883 7.48779 7.436C7.55779 7.3745 7.62679 7.32 7.69079 7.2725C7.67179 7.17 7.65079 7.046 7.62979 6.9025C7.54121 6.27224 7.49777 5.63645 7.49979 5C7.49979 4.843 7.56679 4.726 7.59779 4.6765C7.63679 4.614 7.68279 4.5605 7.72479 4.5175C7.80829 4.43 7.91629 4.341 8.03479 4.2555C8.27479 4.0815 8.60479 3.886 8.99679 3.703C9.77829 3.338 10.8518 3 11.9998 3C13.1483 3 14.2213 3.3385 15.0028 3.703C15.3398 3.85714 15.6618 4.04209 15.9648 4.2555C16.0833 4.341 16.1913 4.4305 16.2748 4.5175C16.3168 4.5605 16.3628 4.614 16.4018 4.6765C16.4328 4.726 16.4998 4.843 16.4998 5C16.4998 5.801 16.4348 6.45 16.3698 6.9025C16.3488 7.046 16.3278 7.17 16.3088 7.2725C16.3728 7.32 16.4423 7.3745 16.5123 7.436C16.6373 7.5455 16.7803 7.688 16.8918 7.8565C17.0013 8.0215 17.1098 8.2555 17.0928 8.5315C17.0743 8.828 16.9168 9.075 16.6818 9.26ZM8.50079 5.159C8.50829 5.833 8.56429 6.378 8.61979 6.759C8.63279 6.849 8.64579 6.929 8.65779 7H15.3418C15.3543 6.929 15.3668 6.8485 15.3798 6.759C15.4348 6.378 15.4913 5.833 15.4988 5.159C15.4599 5.1261 15.4197 5.09474 15.3783 5.065C15.1978 4.9345 14.9238 4.77 14.5798 4.6095C13.8883 4.2865 12.9618 4 11.9998 4C11.0378 4 10.1113 4.2865 9.41979 4.6095C9.07579 4.77 8.80179 4.9345 8.62179 5.0645C8.58022 5.09456 8.53985 5.12625 8.50079 5.1595M8.39379 8L8.39229 8.001C8.30599 8.0585 8.22334 8.12129 8.14479 8.189C8.05579 8.267 7.98479 8.343 7.94179 8.409C7.93156 8.42384 7.92237 8.43938 7.91429 8.4555C7.92137 8.46196 7.92871 8.46813 7.93629 8.474C8.01129 8.533 8.17229 8.6195 8.48629 8.705C8.54829 8.722 8.61479 8.738 8.68579 8.754L8.69029 8.755C8.94129 8.8105 9.25029 8.86 9.62679 8.899C10.1603 8.9545 10.8318 8.991 11.6708 8.999L11.9998 9C13.6133 9 14.6568 8.8995 15.3098 8.755L15.3138 8.754C15.3853 8.738 15.4518 8.722 15.5138 8.705C15.8273 8.62 15.9888 8.533 16.0633 8.474C16.0709 8.46813 16.0782 8.46196 16.0853 8.4555C16.0774 8.4394 16.0683 8.42386 16.0583 8.409C16.0001 8.32727 15.9317 8.25334 15.8548 8.189C15.7764 8.1213 15.6939 8.05851 15.6078 8.001L15.6058 8H8.39379ZM11.8638 10C13.1848 10 14.2088 9.93 14.9938 9.808C15.0196 10.2157 14.9619 10.6243 14.8242 11.0089C14.6865 11.3934 14.4717 11.7458 14.193 12.0444C13.9143 12.3431 13.5775 12.5816 13.2034 12.7455C12.8292 12.9094 12.4255 12.9951 12.0171 12.9975C11.6086 12.9998 11.2039 12.9187 10.8279 12.7592C10.4519 12.5996 10.1124 12.365 9.8303 12.0696C9.54818 11.7742 9.32935 11.4243 9.18723 11.0413C9.0451 10.6584 8.98268 10.2504 9.00379 9.8425C9.73529 9.9435 10.6728 10 11.8638 10ZM8.03879 19.4385C8.01274 19.6245 7.9997 19.8122 7.99979 20V20.5C7.99985 20.6099 7.96368 20.7168 7.89689 20.8041C7.8301 20.8914 7.7364 20.9542 7.6303 20.9829C7.52419 21.0116 7.41159 21.0045 7.30991 20.9628C7.20823 20.9211 7.12313 20.847 7.06779 20.752C6.73081 20.9348 6.33648 20.9812 5.96629 20.8815L5.00029 20.6225C4.61617 20.5194 4.28872 20.268 4.08994 19.9235C3.89117 19.579 3.83734 19.1697 3.94029 18.7855L4.32829 17.3365C4.43129 16.9523 4.68268 16.6247 5.02718 16.4258C5.37168 16.227 5.78106 16.1731 6.16529 16.276L7.13129 16.5345C7.46729 16.6245 7.74629 16.822 7.94029 17.08C8.40315 16.4357 9.01285 15.911 9.71889 15.5493C10.4249 15.1876 11.207 14.9993 12.0003 15C12.7932 14.9995 13.5748 15.1878 14.2804 15.5493C14.9861 15.9108 15.5955 16.4352 16.0583 17.079C16.2593 16.8125 16.5437 16.6209 16.8663 16.535L17.8323 16.2765C18.2165 16.1735 18.6258 16.2274 18.9703 16.4262C19.3147 16.6249 19.5662 16.9524 19.6693 17.3365L20.0578 18.786C20.1087 18.9763 20.1217 19.1747 20.096 19.37C20.0702 19.5653 20.0063 19.7537 19.9078 19.9242C19.8092 20.0948 19.6781 20.2443 19.5218 20.3642C19.3655 20.4841 19.1871 20.5721 18.9968 20.623L18.0313 20.8815C17.6618 20.9812 17.2681 20.9354 16.9313 20.7535C16.8758 20.8483 16.7906 20.9222 16.6888 20.9638C16.5871 21.0053 16.4745 21.0122 16.3685 20.9834C16.2625 20.9545 16.1689 20.8915 16.1022 20.8041C16.0356 20.7168 15.9996 20.6099 15.9998 20.5V20C15.9999 19.8122 15.9868 19.6245 15.9608 19.4385L13.3588 20.136C13.238 20.3945 13.046 20.6132 12.8053 20.7665C12.5646 20.9197 12.2851 21.0011 11.9998 21.0011C11.7144 21.0011 11.435 20.9197 11.1943 20.7665C10.9536 20.6132 10.7616 20.3945 10.6408 20.136L8.03879 19.4385ZM10.5598 19.0785C10.6269 18.8506 10.7471 18.6418 10.9105 18.4692C11.0739 18.2967 11.2758 18.1654 11.4998 18.086V16.031C10.7985 16.1197 10.1331 16.3924 9.57133 16.8215C9.00954 17.2506 8.57136 17.8207 8.30129 18.474L10.5598 19.0785ZM15.6983 18.4735C15.4282 17.8203 14.9899 17.2503 14.4282 16.8213C13.8664 16.3923 13.2011 16.1196 12.4998 16.031V18.0855C12.9518 18.2455 13.3048 18.6155 13.4398 19.079L15.6983 18.4735ZM16.7718 18.1135C16.7548 18.0501 16.7504 17.9839 16.759 17.9188C16.7675 17.8537 16.7888 17.7909 16.8217 17.734C16.8545 17.6771 16.8982 17.6273 16.9503 17.5873C17.0024 17.5473 17.0619 17.518 17.1253 17.501L18.0913 17.242C18.2193 17.2078 18.3557 17.2258 18.4705 17.2921C18.5852 17.3584 18.669 17.4675 18.7033 17.5955L19.0918 19.0445C19.1088 19.1079 19.1132 19.1741 19.1046 19.2392C19.096 19.3043 19.0747 19.3671 19.0419 19.424C19.0091 19.4809 18.9654 19.5307 18.9133 19.5707C18.8612 19.6107 18.8017 19.64 18.7383 19.657L17.7723 19.916C17.7088 19.933 17.6426 19.9373 17.5775 19.9287C17.5124 19.9202 17.4496 19.8988 17.3927 19.8659C17.3358 19.8331 17.2859 19.7893 17.246 19.7371C17.206 19.685 17.1767 19.6255 17.1598 19.562L16.7718 18.1135ZM5.90679 17.242C5.84333 17.2249 5.77712 17.2205 5.71195 17.229C5.64678 17.2375 5.58394 17.2588 5.527 17.2917C5.47007 17.3245 5.42017 17.3682 5.38015 17.4204C5.34013 17.4725 5.31079 17.532 5.29379 17.5955L4.90579 19.044C4.88878 19.1074 4.88442 19.1736 4.89298 19.2387C4.90154 19.3038 4.92284 19.3666 4.95567 19.4235C4.98849 19.4804 5.0322 19.5302 5.0843 19.5702C5.13639 19.6102 5.19586 19.6395 5.25929 19.6565L6.22529 19.9155C6.28872 19.9325 6.35488 19.9369 6.41999 19.9283C6.4851 19.9198 6.54789 19.8985 6.60476 19.8656C6.66164 19.8328 6.7115 19.7891 6.75148 19.737C6.79146 19.6849 6.82079 19.6254 6.83779 19.562L7.22579 18.113C7.24288 18.0495 7.24729 17.9833 7.23877 17.9182C7.23025 17.853 7.20896 17.7901 7.17613 17.7332C7.1433 17.6763 7.09956 17.6264 7.04743 17.5864C6.99529 17.5463 6.93578 17.517 6.87229 17.5L5.90679 17.242ZM12.4998 19.5C12.4998 19.6326 12.4471 19.7598 12.3533 19.8536C12.2596 19.9473 12.1324 20 11.9998 20C11.8672 20 11.74 19.9473 11.6462 19.8536C11.5525 19.7598 11.4998 19.6326 11.4998 19.5C11.4998 19.3674 11.5525 19.2402 11.6462 19.1464C11.74 19.0527 11.8672 19 11.9998 19C12.1324 19 12.2596 19.0527 12.3533 19.1464C12.4471 19.2402 12.4998 19.3674 12.4998 19.5Z" fill="black"/>
<path d="M16.6818 9.26L17.2993 10.0465L17.3003 10.0457L16.6818 9.26ZM15.9808 9.609L15.6711 8.65816L14.9073 8.90692L14.9855 9.70635L15.9808 9.609ZM8.01879 9.609L9.01404 9.70635L9.09224 8.90692L8.32848 8.65816L8.01879 9.609ZM7.31829 9.26L7.93688 8.47428L7.93685 8.47426L7.31829 9.26ZM6.90729 8.531L7.90536 8.46883L7.90528 8.46761L6.90729 8.531ZM7.10779 7.8565L6.28413 7.28941L6.2787 7.29731L6.27341 7.30531L7.10779 7.8565ZM7.48779 7.436L8.13511 8.19822L8.14151 8.19278L8.14781 8.18725L7.48779 7.436ZM7.69079 7.2725L8.28677 8.0755L8.78775 7.70368L8.67404 7.09024L7.69079 7.2725ZM7.62979 6.9025L6.63951 7.04168L6.64033 7.0473L7.62979 6.9025ZM7.49979 5L8.49979 5.00318V5H7.49979ZM7.59779 4.6765L8.44531 5.20727L8.44617 5.20589L7.59779 4.6765ZM7.72479 4.5175L8.44021 5.21629L8.44824 5.20788L7.72479 4.5175ZM8.03479 4.2555L8.61991 5.06645L8.62176 5.06511L8.03479 4.2555ZM8.99679 3.703L9.4198 4.60912L9.41996 4.60905L8.99679 3.703ZM15.0028 3.703L14.5801 4.6093L14.5868 4.61239L15.0028 3.703ZM15.9648 4.2555L16.5499 3.4445L16.5407 3.43796L15.9648 4.2555ZM16.2748 4.5175L15.5533 5.20997L15.5594 5.21624L16.2748 4.5175ZM16.4018 4.6765L15.5534 5.20589L15.5543 5.20727L16.4018 4.6765ZM16.3698 6.9025L17.3593 7.0473L17.3596 7.04469L16.3698 6.9025ZM16.3088 7.2725L15.3255 7.09024L15.2118 7.70368L15.7128 8.0755L16.3088 7.2725ZM16.5123 7.436L15.8523 8.18725L15.8534 8.1882L16.5123 7.436ZM16.8918 7.8565L16.0578 8.40834L16.0586 8.40945L16.8918 7.8565ZM17.0928 8.5315L18.0908 8.59377L18.0909 8.59298L17.0928 8.5315ZM8.61979 6.759L9.60952 6.61604L9.60935 6.61485L8.61979 6.759ZM8.65779 7L7.67177 7.16665L7.81262 8H8.65779V7ZM15.3418 7V8H16.1811L16.3266 7.17339L15.3418 7ZM15.3798 6.759L16.3694 6.90274L16.3695 6.90188L15.3798 6.759ZM15.4988 5.159L16.4987 5.17013L16.504 4.69931L16.1444 4.39533L15.4988 5.159ZM15.3783 5.065L14.7924 5.87539L14.7947 5.87705L15.3783 5.065ZM14.5798 4.6095L14.1566 5.51553L14.157 5.51572L14.5798 4.6095ZM9.41979 4.6095L9.8426 5.51572L9.843 5.51553L9.41979 4.6095ZM8.62179 5.0645L8.0363 4.25382L8.03588 4.25413L8.62179 5.0645ZM8.39379 8V7H8.09093L7.83897 7.16803L8.39379 8ZM8.39229 8.001L8.94681 8.83317L8.94711 8.83297L8.39229 8.001ZM8.14479 8.189L7.49184 7.43155L7.48569 7.43695L8.14479 8.189ZM7.94179 8.409L8.76511 8.97658L8.77252 8.96583L8.77965 8.95488L7.94179 8.409ZM7.91429 8.4555L7.02028 8.00746L6.6812 8.68405L7.24023 9.19418L7.91429 8.4555ZM7.93629 8.474L8.55459 7.68802L8.54838 7.68321L7.93629 8.474ZM8.48629 8.705L8.75072 7.74059L8.74902 7.74013L8.48629 8.705ZM8.68579 8.754L8.46595 9.72954L8.46879 9.73017L8.68579 8.754ZM8.69029 8.755L8.47329 9.73117L8.47439 9.73142L8.69029 8.755ZM9.62679 8.899L9.73026 7.90437L9.72982 7.90432L9.62679 8.899ZM11.6708 8.999L11.6613 9.99898L11.6677 9.99899L11.6708 8.999ZM11.9998 9L11.9967 10H11.9998V9ZM15.3098 8.755L15.5259 9.73138L15.5392 9.72843L15.5524 9.72512L15.3098 8.755ZM15.3138 8.754L15.0954 7.77813L15.0832 7.78086L15.0711 7.78388L15.3138 8.754ZM15.5138 8.705L15.2521 7.73984L15.2494 7.7406L15.5138 8.705ZM16.0633 8.474L15.4512 7.68316L15.4425 7.69006L16.0633 8.474ZM16.0853 8.4555L16.7593 9.19418L17.3141 8.68792L16.9826 8.01402L16.0853 8.4555ZM16.0583 8.409L16.8865 7.84859L16.8799 7.83882L16.8731 7.82921L16.0583 8.409ZM15.8548 8.189L15.2011 8.94574L15.2072 8.95101L15.2134 8.95619L15.8548 8.189ZM15.6078 8.001L16.1631 7.16933L16.1111 7.13462L16.0552 7.10666L15.6078 8.001ZM15.6058 8L16.0532 7.10566L15.842 7H15.6058V8ZM14.9938 9.808L15.9918 9.74483L15.9226 8.65165L14.8402 8.81986L14.9938 9.808ZM9.00379 9.8425L9.14056 8.8519L8.06142 8.7029L8.00513 9.79083L9.00379 9.8425ZM8.03879 19.4385L8.29771 18.4726L7.20532 18.1798L7.04846 19.2998L8.03879 19.4385ZM7.99979 20H8.99979V19.9995L7.99979 20ZM7.99979 20.5H6.99979L6.99979 20.5005L7.99979 20.5ZM7.06779 20.752L7.93179 20.2485L7.44347 19.4105L6.59096 19.873L7.06779 20.752ZM5.96629 20.8815L6.22625 19.9159L6.22526 19.9156L5.96629 20.8815ZM5.00029 20.6225L4.74104 21.5883L4.74132 21.5884L5.00029 20.6225ZM3.94029 18.7855L4.90621 19.0444L4.90626 19.0442L3.94029 18.7855ZM4.32829 17.3365L3.3624 17.0776L3.36232 17.0778L4.32829 17.3365ZM6.16529 16.276L5.90652 17.2419L5.90679 17.242L6.16529 16.276ZM7.13129 16.5345L7.39003 15.5686L7.38979 15.5685L7.13129 16.5345ZM7.94029 17.08L7.14103 17.681L7.95866 18.7683L8.75243 17.6635L7.94029 17.08ZM12.0003 15L11.9994 16L12.0009 16L12.0003 15ZM16.0583 17.079L15.2463 17.6627L16.039 18.7655L16.8568 17.681L16.0583 17.079ZM16.8663 16.535L17.1237 17.5013L17.1248 17.501L16.8663 16.535ZM17.8323 16.2765L18.0908 17.2425L18.0911 17.2424L17.8323 16.2765ZM19.6693 17.3365L20.6352 17.0776L20.6351 17.0773L19.6693 17.3365ZM20.0578 18.786L21.0238 18.5273L21.0237 18.5271L20.0578 18.786ZM18.9968 20.623L18.7382 19.657H18.7382L18.9968 20.623ZM18.0313 20.8815L17.7727 19.9155L17.7708 19.916L18.0313 20.8815ZM16.9313 20.7535L17.4065 19.8737L16.5564 19.4145L16.0683 20.2483L16.9313 20.7535ZM15.9998 20.5L16.9998 20.5018V20.5H15.9998ZM15.9998 20L14.9998 19.9995V20H15.9998ZM15.9608 19.4385L16.9511 19.2998L16.7943 18.1798L15.7019 18.4726L15.9608 19.4385ZM13.3588 20.136L13.0999 19.1701L12.65 19.2907L12.4528 19.7127L13.3588 20.136ZM10.6408 20.136L11.5468 19.7127L11.3496 19.2907L10.8997 19.1701L10.6408 20.136ZM10.5598 19.0785L10.3012 20.0445L11.2436 20.2967L11.5191 19.3609L10.5598 19.0785ZM11.4998 18.086L11.8339 19.0285L12.4998 18.7925V18.086H11.4998ZM11.4998 16.031H12.4998V14.8966L11.3744 15.0389L11.4998 16.031ZM8.30129 18.474L7.37714 18.092L6.9417 19.1453L8.04274 19.44L8.30129 18.474ZM15.6983 18.4735L15.9572 19.4394L17.0579 19.1443L16.6224 18.0913L15.6983 18.4735ZM12.4998 16.031L12.6252 15.0389L11.4998 14.8967V16.031H12.4998ZM12.4998 18.0855H11.4998V18.7923L12.1661 19.0282L12.4998 18.0855ZM13.4398 19.079L12.4797 19.3586L12.7534 20.2983L13.6987 20.0449L13.4398 19.079ZM16.7718 18.1135L17.7377 17.8548L17.7376 17.8544L16.7718 18.1135ZM17.1253 17.501L17.3841 18.4669L17.3843 18.4669L17.1253 17.501ZM18.0913 17.242L17.8331 16.2759L17.8323 16.2761L18.0913 17.242ZM18.7033 17.5955L19.6692 17.3365L19.6691 17.3364L18.7033 17.5955ZM19.0918 19.0445L18.1259 19.3035L18.1259 19.3036L19.0918 19.0445ZM18.7383 19.657L18.4794 18.6911L18.4793 18.6911L18.7383 19.657ZM17.7723 19.916L18.0311 20.8819L18.0313 20.8819L17.7723 19.916ZM17.1598 19.562L18.126 19.3041L18.1257 19.3033L17.1598 19.562ZM5.90679 17.242L5.64677 18.2076L5.64863 18.2081L5.90679 17.242ZM5.29379 17.5955L6.25974 17.8542L6.25977 17.8541L5.29379 17.5955ZM4.90579 19.044L5.87165 19.3031L5.87174 19.3027L4.90579 19.044ZM5.25929 19.6565L5.51826 18.6906L5.51815 18.6906L5.25929 19.6565ZM6.22529 19.9155L6.48437 18.9496L6.48426 18.9496L6.22529 19.9155ZM6.83779 19.562L7.80371 19.8209L7.80376 19.8207L6.83779 19.562ZM7.22579 18.113L6.26019 17.853L6.25982 17.8543L7.22579 18.113ZM6.87229 17.5L7.13089 16.534L7.13045 16.5339L6.87229 17.5ZM16.0643 8.47346C16.0051 8.51987 15.8872 8.58779 15.6711 8.65816L16.2905 10.5598C16.6424 10.4452 16.9954 10.2851 17.2993 10.0465L16.0643 8.47346ZM14.9855 9.70635C15.0263 10.123 14.9794 10.5435 14.8479 10.9409L16.7466 11.5692C16.9658 10.9069 17.044 10.206 16.976 9.51165L14.9855 9.70635ZM14.8479 10.9409C14.7164 11.3383 14.5032 11.7038 14.222 12.0138L15.7034 13.3574C16.1721 12.8407 16.5275 12.2315 16.7466 11.5692L14.8479 10.9409ZM14.222 12.0138C13.9408 12.3239 13.5978 12.5717 13.2151 12.7412L14.0252 14.5698C14.6631 14.2872 15.2347 13.8742 15.7034 13.3574L14.222 12.0138ZM13.2151 12.7412C12.8323 12.9108 12.4184 12.9984 11.9998 12.9984V14.9984C12.6974 14.9984 13.3874 14.8524 14.0252 14.5698L13.2151 12.7412ZM11.9998 12.9984C11.5812 12.9984 11.1672 12.9108 10.7845 12.7412L9.97435 14.5698C10.6122 14.8524 11.3021 14.9984 11.9998 14.9984V12.9984ZM10.7845 12.7412C10.4018 12.5717 10.0588 12.3239 9.77761 12.0138L8.29616 13.3574C8.76485 13.8742 9.3365 14.2872 9.97435 14.5698L10.7845 12.7412ZM9.77761 12.0138C9.4964 11.7038 9.28318 11.3383 9.15168 10.9409L7.25294 11.5692C7.47211 12.2315 7.82747 12.8407 8.29616 13.3574L9.77761 12.0138ZM9.15168 10.9409C9.02017 10.5435 8.97329 10.123 9.01404 9.70635L7.02354 9.51165C6.95562 10.206 7.03376 10.9069 7.25294 11.5692L9.15168 10.9409ZM8.32848 8.65816C8.11215 8.5877 7.99485 8.51992 7.93688 8.47428L6.6997 10.0457C7.00373 10.2851 7.35743 10.4453 7.7091 10.5598L8.32848 8.65816ZM7.93685 8.47426C7.90304 8.44764 7.89436 8.43188 7.8957 8.43418C7.8965 8.43556 7.899 8.44026 7.90136 8.44787C7.90377 8.45566 7.905 8.46312 7.90536 8.46883L5.90922 8.59317C5.94926 9.23588 6.29443 9.72667 6.69973 10.0457L7.93685 8.47426ZM7.90528 8.46761C7.90616 8.48145 7.90294 8.48576 7.90668 8.47478C7.9112 8.46153 7.9217 8.43868 7.94217 8.40769L6.27341 7.30531C6.10261 7.56386 5.87255 8.01581 5.9093 8.59439L7.90528 8.46761ZM7.93145 8.42359C7.98912 8.33983 8.0576 8.26405 8.13511 8.19822L6.84047 6.67378C6.62873 6.85361 6.44167 7.06061 6.28413 7.28941L7.93145 8.42359ZM8.14781 8.18725C8.19334 8.14724 8.24029 8.11 8.28677 8.0755L7.09481 6.4695C7.01329 6.53 6.92224 6.60175 6.82777 6.68475L8.14781 8.18725ZM8.67404 7.09024C8.6573 6.99993 8.63838 6.88842 8.61925 6.7577L6.64033 7.0473C6.6632 7.20358 6.68628 7.34007 6.70754 7.45476L8.67404 7.09024ZM8.62006 6.76333C8.53811 6.18022 8.49791 5.59201 8.49978 5.00318L6.4998 4.99682C6.49762 5.6809 6.54432 6.36425 6.63952 7.04167L8.62006 6.76333ZM8.49979 5C8.49979 5.12479 8.44818 5.20268 8.44531 5.20727L6.75027 4.14573C6.6854 4.24932 6.49979 4.56121 6.49979 5H8.49979ZM8.44617 5.20589C8.44027 5.21535 8.43624 5.22033 8.43567 5.22104C8.43503 5.22182 8.43629 5.22021 8.44017 5.21624L7.00941 3.81876C6.93487 3.89508 6.83796 4.00521 6.74941 4.14711L8.44617 5.20589ZM8.44824 5.20788C8.4741 5.18078 8.52913 5.13195 8.61991 5.06645L7.44967 3.44455C7.30345 3.55005 7.14248 3.67922 7.00134 3.82712L8.44824 5.20788ZM8.62176 5.06511C8.80274 4.9339 9.07627 4.7695 9.4198 4.60912L8.57378 2.79688C8.13331 3.0025 7.74684 3.2291 7.44782 3.44589L8.62176 5.06511ZM9.41996 4.60905C10.1108 4.2864 11.038 4 11.9998 4V2C10.6655 2 9.4458 2.3896 8.57362 2.79695L9.41996 4.60905ZM11.9998 4C12.9617 4 13.8886 4.28673 14.5801 4.60927L15.4255 2.79673C14.554 2.39027 13.3348 2 11.9998 2V4ZM14.5868 4.61239C14.8678 4.7409 15.1363 4.89511 15.3889 5.07304L16.5407 3.43796C16.1873 3.18908 15.8118 2.97337 15.4187 2.79361L14.5868 4.61239ZM15.3797 5.06645C15.4685 5.13054 15.5253 5.18079 15.5533 5.20995L16.9963 3.82505C16.8572 3.68021 16.6981 3.55146 16.5499 3.44455L15.3797 5.06645ZM15.5594 5.21624C15.5633 5.22021 15.5646 5.22182 15.5639 5.22104C15.5633 5.22034 15.5593 5.21535 15.5534 5.20589L17.2502 4.14711C17.1616 4.0052 17.0647 3.89507 16.9902 3.81876L15.5594 5.21624ZM15.5543 5.20727C15.5514 5.20268 15.4998 5.12479 15.4998 5H17.4998C17.4998 4.56121 17.3142 4.24932 17.2493 4.14573L15.5543 5.20727ZM15.4998 5C15.4998 5.74705 15.4392 6.34814 15.38 6.76031L17.3596 7.04469C17.4304 6.55186 17.4998 5.85495 17.4998 5H15.4998ZM15.3803 6.7577C15.3612 6.88842 15.3423 6.99993 15.3255 7.09024L17.292 7.45476C17.3133 7.34007 17.3364 7.20358 17.3593 7.0473L15.3803 6.7577ZM15.7128 8.0755C15.7614 8.11159 15.8083 8.14863 15.8523 8.18725L17.1723 6.68475C17.0763 6.60036 16.9841 6.52841 16.9048 6.4695L15.7128 8.0755ZM15.8534 8.1882C15.9453 8.2687 16.0153 8.34412 16.0578 8.40834L17.7257 7.30466C17.5452 7.03188 17.3293 6.8223 17.1712 6.6838L15.8534 8.1882ZM16.0586 8.40945C16.0783 8.4392 16.0886 8.46152 16.0931 8.47469C16.0968 8.48562 16.0939 8.48223 16.0947 8.47002L18.0909 8.59298C18.1264 8.01623 17.8986 7.56509 17.725 7.30355L16.0586 8.40945ZM16.0947 8.46923C16.0951 8.46327 16.0964 8.45566 16.0988 8.4478C16.1012 8.44012 16.1037 8.4354 16.1045 8.43405C16.1058 8.43181 16.0971 8.44763 16.0632 8.47426L17.3003 10.0457C17.7054 9.72686 18.0508 9.23617 18.0908 8.59377L16.0947 8.46923ZM7.50085 5.17013C7.5089 5.89322 7.56901 6.48286 7.63023 6.90315L9.60935 6.61485C9.55957 6.27314 9.50768 5.77278 9.50073 5.14787L7.50085 5.17013ZM7.63006 6.90196C7.64457 7.00242 7.65895 7.0908 7.67177 7.16665L9.64381 6.83335C9.63263 6.7672 9.62101 6.69558 9.60952 6.61604L7.63006 6.90196ZM8.65779 8H15.3418V6H8.65779V8ZM16.3266 7.17339C16.3416 7.08852 16.3557 6.99707 16.3694 6.90274L14.3902 6.61526C14.3779 6.69993 14.367 6.76948 14.3569 6.82661L16.3266 7.17339ZM16.3695 6.90188C16.43 6.48323 16.4907 5.89389 16.4987 5.17013L14.4989 5.14787C14.4919 5.77211 14.4396 6.27277 14.39 6.61612L16.3695 6.90188ZM16.1444 4.39533C16.0854 4.34549 16.0246 4.298 15.9619 4.25295L14.7947 5.87705C14.8148 5.89148 14.8343 5.9067 14.8532 5.92267L16.1444 4.39533ZM15.9642 4.25462C15.725 4.08172 15.3949 3.88632 15.0026 3.70328L14.157 5.51572C14.4527 5.65368 14.6705 5.78728 14.7924 5.87538L15.9642 4.25462ZM15.003 3.70347C14.221 3.33819 13.1482 3 11.9998 3V5C12.7754 5 13.5556 5.23481 14.1566 5.51553L15.003 3.70347ZM11.9998 3C10.8514 3 9.77859 3.33819 8.99658 3.70347L9.843 5.51553C10.444 5.23481 11.2242 5 11.9998 5V3ZM8.99698 3.70328C8.60469 3.88631 8.27472 4.08162 8.0363 4.25382L9.20728 5.87518C9.32886 5.78738 9.54689 5.65369 9.8426 5.51572L8.99698 3.70328ZM8.03588 4.25413C7.9729 4.29966 7.91176 4.34766 7.8526 4.39802L9.14898 5.92098C9.16794 5.90484 9.18753 5.88946 9.2077 5.87487L8.03588 4.25413ZM7.83897 7.16803L7.83747 7.16903L8.94711 8.83297L8.94861 8.83197L7.83897 7.16803ZM7.83777 7.16883C7.71716 7.2492 7.60164 7.33695 7.49186 7.43158L8.79772 8.94642C8.84503 8.90563 8.89483 8.86781 8.94681 8.83317L7.83777 7.16883ZM7.48569 7.43695C7.36475 7.54294 7.21788 7.68822 7.10393 7.86312L8.77965 8.95488C8.76999 8.96972 8.76285 8.97888 8.76014 8.98228C8.75726 8.98588 8.75691 8.98603 8.75989 8.98281C8.76278 8.97968 8.76789 8.97438 8.77552 8.96703C8.7831 8.95972 8.79253 8.95101 8.80389 8.94105L7.48569 7.43695ZM7.11847 7.84142C7.08194 7.89442 7.04912 7.9499 7.02028 8.00746L8.8083 8.90354C8.79561 8.92886 8.78118 8.95327 8.76511 8.97658L7.11847 7.84142ZM7.24023 9.19418C7.26724 9.21882 7.29525 9.24238 7.3242 9.26479L8.54838 7.68321C8.56217 7.69388 8.5755 7.7051 8.58835 7.71682L7.24023 9.19418ZM7.31801 9.25995C7.54212 9.43626 7.84781 9.56755 8.22356 9.66987L8.74902 7.74013C8.63131 7.70808 8.56251 7.68125 8.52941 7.66647C8.49329 7.65034 8.51061 7.65346 8.55457 7.68805L7.31801 9.25995ZM8.22186 9.6694C8.30434 9.69202 8.38717 9.71178 8.46595 9.72954L8.90563 7.77846C8.84241 7.76422 8.79224 7.75198 8.75072 7.7406L8.22186 9.6694ZM8.46879 9.73017L8.47329 9.73117L8.90729 7.77883L8.90279 7.77783L8.46879 9.73017ZM8.47439 9.73142C8.77038 9.79686 9.11813 9.85166 9.52376 9.89368L9.72982 7.90432C9.38245 7.86834 9.1122 7.82414 8.90619 7.77858L8.47439 9.73142ZM9.52332 9.89363C10.0959 9.9532 10.8 9.99074 11.6613 9.99895L11.6803 7.99904C10.8636 7.99126 10.2247 7.9558 9.73026 7.90437L9.52332 9.89363ZM11.6677 9.99899L11.9967 10L12.0028 8L11.6738 7.999L11.6677 9.99899ZM11.9998 10C13.6407 10 14.7683 9.89902 15.5259 9.73138L15.0937 7.77862C14.5453 7.89998 13.5859 8 11.9998 8V10ZM15.5524 9.72512L15.5564 9.72411L15.0711 7.78388L15.0671 7.78488L15.5524 9.72512ZM15.5322 9.72986C15.6125 9.7119 15.6956 9.69207 15.7782 9.6694L15.2494 7.7406C15.208 7.75193 15.1581 7.7641 15.0954 7.77813L15.5322 9.72986ZM15.7755 9.67015C16.1514 9.56823 16.4593 9.43602 16.6841 9.25794L15.4425 7.69006C15.4876 7.65427 15.5059 7.65078 15.4699 7.66689C15.4372 7.68151 15.3689 7.70817 15.2521 7.73985L15.7755 9.67015ZM16.6754 9.26479C16.7043 9.24242 16.7323 9.21887 16.7593 9.19418L15.4112 7.71682C15.4241 7.70506 15.4375 7.69384 15.4512 7.68321L16.6754 9.26479ZM16.9826 8.01402C16.9544 7.95671 16.9223 7.90144 16.8865 7.84859L15.2301 8.96941C15.2144 8.94629 15.2004 8.92209 15.188 8.89698L16.9826 8.01402ZM16.8731 7.82921C16.7654 7.67787 16.6387 7.54096 16.4962 7.42181L15.2134 8.95619C15.2248 8.96572 15.2349 8.97668 15.2435 8.98879L16.8731 7.82921ZM16.5085 7.43226C16.3989 7.33757 16.2835 7.24976 16.1631 7.16933L15.0525 8.83267C15.1043 8.86726 15.1539 8.90502 15.2011 8.94574L16.5085 7.43226ZM16.0552 7.10666L16.0532 7.10566L15.1584 8.89434L15.1604 8.89534L16.0552 7.10666ZM15.6058 7H8.39379V9H15.6058V7ZM11.8638 11C13.2156 11 14.2946 10.9287 15.1474 10.7961L14.8402 8.81986C14.123 8.93133 13.154 9 11.8638 9V11ZM13.9958 9.87117C14.013 10.1429 13.9745 10.4154 13.8827 10.6717L15.7656 11.346C15.9492 10.8332 16.0262 10.2884 15.9918 9.74483L13.9958 9.87117ZM13.8827 10.6717C13.7909 10.9281 13.6477 11.163 13.4619 11.3621L14.9241 12.7267C15.2957 12.3286 15.582 11.8587 15.7656 11.346L13.8827 10.6717ZM13.4619 11.3621C13.2761 11.5612 13.0516 11.7203 12.8022 11.8295L13.6046 13.6615C14.1034 13.443 14.5524 13.1249 14.9241 12.7267L13.4619 11.3621ZM12.8022 11.8295C12.5527 11.9388 12.2836 11.9959 12.0113 11.9975L12.0228 13.9975C12.5674 13.9943 13.1057 13.88 13.6046 13.6615L12.8022 11.8295ZM12.0113 11.9975C11.739 11.9991 11.4692 11.945 11.2185 11.8386L10.4373 13.6797C10.9387 13.8925 11.4782 14.0006 12.0228 13.9975L12.0113 11.9975ZM11.2185 11.8386C10.9679 11.7323 10.7415 11.5758 10.5535 11.3789L9.10714 12.7602C9.48331 13.1541 9.93595 13.467 10.4373 13.6797L11.2185 11.8386ZM10.5535 11.3789C10.3654 11.182 10.2195 10.9487 10.1247 10.6934L8.24971 11.3893C8.4392 11.8999 8.73098 12.3664 9.10714 12.7602L10.5535 11.3789ZM10.1247 10.6934C10.03 10.4381 9.98838 10.1661 10.0025 9.89417L8.00513 9.79083C7.97698 10.3347 8.06021 10.8787 8.24971 11.3893L10.1247 10.6934ZM8.86701 10.8331C9.65867 10.9424 10.645 11 11.8638 11V9C10.7006 9 9.81191 8.94459 9.14056 8.8519L8.86701 10.8331ZM7.04846 19.2998C7.01594 19.5319 6.99968 19.7661 6.99979 20.0005L8.99979 19.9995C8.99973 19.8582 9.00953 19.7171 9.02912 19.5772L7.04846 19.2998ZM6.99979 20V20.5H8.99979V20H6.99979ZM6.99979 20.5005C6.99973 20.3906 7.0359 20.2837 7.10269 20.1964L8.69109 21.4117C8.89146 21.1499 8.99996 20.8292 8.99979 20.4995L6.99979 20.5005ZM7.10269 20.1964C7.16948 20.1091 7.26318 20.0463 7.36928 20.0176L7.89131 21.9483C8.20963 21.8622 8.49071 21.6736 8.69109 21.4117L7.10269 20.1964ZM7.36928 20.0176C7.47539 19.9889 7.58799 19.996 7.68967 20.0377L6.93014 21.8879C7.23518 22.0131 7.57299 22.0343 7.89131 21.9483L7.36928 20.0176ZM7.68967 20.0377C7.79135 20.0795 7.87645 20.1535 7.93179 20.2485L6.20379 21.2555C6.36982 21.5404 6.6251 21.7627 6.93014 21.8879L7.68967 20.0377ZM6.59096 19.873C6.47939 19.9335 6.34882 19.9489 6.22625 19.9159L5.70633 21.8471C6.32414 22.0134 6.98223 21.9361 7.54462 21.631L6.59096 19.873ZM6.22526 19.9156L5.25926 19.6566L4.74132 21.5884L5.70732 21.8474L6.22526 19.9156ZM5.25954 19.6567C5.1315 19.6223 5.02235 19.5385 4.95609 19.4237L3.2238 20.4233C3.55509 20.9974 4.10084 21.4165 4.74104 21.5883L5.25954 19.6567ZM4.95609 19.4237C4.88983 19.3089 4.87189 19.1724 4.90621 19.0444L2.97437 18.5266C2.80279 19.1669 2.8925 19.8491 3.2238 20.4233L4.95609 19.4237ZM4.90626 19.0442L5.29426 17.5952L3.36232 17.0778L2.97432 18.5268L4.90626 19.0442ZM5.29418 17.5954C5.32852 17.4674 5.41232 17.3582 5.52715 17.2919L4.52721 15.5598C3.95305 15.8913 3.53406 16.4372 3.3624 17.0776L5.29418 17.5954ZM5.52715 17.2919C5.64198 17.2256 5.77844 17.2076 5.90652 17.2419L6.42406 15.3101C5.78368 15.1385 5.10137 15.2283 4.52721 15.5598L5.52715 17.2919ZM5.90679 17.242L6.87279 17.5005L7.38979 15.5685L6.42379 15.31L5.90679 17.242ZM6.87255 17.5004C6.98553 17.5307 7.07685 17.5956 7.14103 17.681L8.73955 16.479C8.41573 16.0484 7.94905 15.7183 7.39003 15.5686L6.87255 17.5004ZM8.75243 17.6635C9.1226 17.1482 9.6102 16.7286 10.1748 16.4393L9.26293 14.6593C8.4155 15.0934 7.6837 15.7232 7.12815 16.4965L8.75243 17.6635ZM10.1748 16.4393C10.7395 16.15 11.3649 15.9994 11.9994 16L12.0012 14C11.049 13.9991 10.1104 14.2251 9.26293 14.6593L10.1748 16.4393ZM12.0009 16C12.635 15.9996 13.2601 16.1502 13.8245 16.4393L14.7364 14.6593C13.8894 14.2254 12.9513 13.9994 11.9996 14L12.0009 16ZM13.8245 16.4393C14.3888 16.7284 14.8762 17.1478 15.2463 17.6627L16.8703 16.4953C16.3148 15.7226 15.5834 15.0932 14.7364 14.6593L13.8245 16.4393ZM16.8568 17.681C16.9232 17.593 17.0172 17.5297 17.1237 17.5013L16.6088 15.5687C16.0703 15.7122 15.5954 16.032 15.2598 16.477L16.8568 17.681ZM17.1248 17.501L18.0908 17.2425L17.5738 15.3105L16.6078 15.569L17.1248 17.501ZM18.0911 17.2424C18.2192 17.2081 18.3556 17.226 18.4705 17.2923L19.4701 15.56C18.8959 15.2287 18.2137 15.139 17.5734 15.3106L18.0911 17.2424ZM18.4705 17.2923C18.5853 17.3586 18.6691 17.4677 18.7035 17.5957L20.6351 17.0773C20.4633 16.437 20.0442 15.8913 19.4701 15.56L18.4705 17.2923ZM18.7034 17.5954L19.0919 19.0449L21.0237 18.5271L20.6352 17.0776L18.7034 17.5954ZM19.0918 19.0447C19.1088 19.1081 19.1131 19.1743 19.1046 19.2394L21.0874 19.5007C21.1303 19.1752 21.1087 18.8445 21.0238 18.5273L19.0918 19.0447ZM19.1046 19.2394C19.096 19.3045 19.0747 19.3672 19.0418 19.4241L20.7737 20.4244C20.9379 20.1401 21.0445 19.8262 21.0874 19.5007L19.1046 19.2394ZM19.0418 19.4241C19.009 19.481 18.9653 19.5308 18.9132 19.5708L20.1304 21.1577C20.3909 20.9579 20.6095 20.7087 20.7737 20.4244L19.0418 19.4241ZM18.9132 19.5708C18.8611 19.6107 18.8016 19.64 18.7382 19.657L19.2554 21.589C19.5726 21.5041 19.8699 21.3575 20.1304 21.1577L18.9132 19.5708ZM18.7382 19.657L17.7727 19.9155L18.2899 21.8475L19.2554 21.589L18.7382 19.657ZM17.7708 19.916C17.6484 19.9491 17.5181 19.9339 17.4065 19.8737L16.456 21.6333C17.0181 21.9369 17.6751 22.0134 18.2918 21.847L17.7708 19.916ZM16.0683 20.2483C16.1238 20.1535 16.209 20.0796 16.3107 20.038L17.0669 21.8896C17.3721 21.7649 17.6277 21.5432 17.7943 21.2587L16.0683 20.2483ZM16.3107 20.038C16.4125 19.9965 16.5251 19.9896 16.6311 20.0184L16.1059 21.9483C16.424 22.0348 16.7617 22.0142 17.0669 21.8896L16.3107 20.038ZM16.6311 20.0184C16.7371 20.0473 16.8307 20.1103 16.8973 20.1977L15.3072 21.4106C15.5071 21.6728 15.7878 21.8617 16.1059 21.9483L16.6311 20.0184ZM16.8973 20.1977C16.964 20.285 17 20.3919 16.9998 20.5018L14.9998 20.4982C14.9992 20.8279 15.1072 21.1485 15.3072 21.4106L16.8973 20.1977ZM16.9998 20.5V20H14.9998V20.5H16.9998ZM16.9998 20.0005C16.9999 19.7661 16.9836 19.5319 16.9511 19.2998L14.9705 19.5772C14.9901 19.7171 14.9999 19.8582 14.9998 19.9995L16.9998 20.0005ZM15.7019 18.4726L13.0999 19.1701L13.6177 21.1019L16.2197 20.4044L15.7019 18.4726ZM12.4528 19.7127C12.4125 19.7989 12.3485 19.8718 12.2683 19.9229L13.3423 21.6101C13.7435 21.3547 14.0635 20.9902 14.2648 20.5593L12.4528 19.7127ZM12.2683 19.9229C12.188 19.974 12.0949 20.0011 11.9998 20.0011V22.0011C12.4754 22.0011 12.9411 21.8654 13.3423 21.6101L12.2683 19.9229ZM11.9998 20.0011C11.9047 20.0011 11.8115 19.974 11.7313 19.9229L10.6573 21.6101C11.0585 21.8654 11.5242 22.0011 11.9998 22.0011V20.0011ZM11.7313 19.9229C11.6511 19.8718 11.5871 19.7989 11.5468 19.7127L9.73479 20.5593C9.93609 20.9902 10.2561 21.3547 10.6573 21.6101L11.7313 19.9229ZM10.8997 19.1701L8.29771 18.4726L7.77987 20.4044L10.3819 21.1019L10.8997 19.1701ZM11.5191 19.3609C11.5416 19.2846 11.5818 19.2147 11.6365 19.1569L10.1844 17.7816C9.91235 18.0689 9.71224 18.4165 9.6005 18.7961L11.5191 19.3609ZM11.6365 19.1569C11.6912 19.0991 11.7589 19.0551 11.8339 19.0285L11.1657 17.1435C10.7928 17.2756 10.4565 17.4943 10.1844 17.7816L11.6365 19.1569ZM12.4998 18.086V16.031H10.4998V18.086H12.4998ZM11.3744 15.0389C10.4979 15.1497 9.6664 15.4905 8.96433 16.0268L10.1783 17.6162C10.5998 17.2942 11.099 17.0896 11.6252 17.0231L11.3744 15.0389ZM8.96433 16.0268C8.26226 16.563 7.71465 17.2755 7.37714 18.092L9.22544 18.856C9.42806 18.3659 9.75683 17.9381 10.1783 17.6162L8.96433 16.0268ZM8.04274 19.44L10.3012 20.0445L10.8183 18.1125L8.55984 17.508L8.04274 19.44ZM16.6224 18.0913C16.2848 17.275 15.7371 16.5626 15.0351 16.0265L13.8212 17.616C14.2427 17.9379 14.5715 18.3656 14.7742 18.8557L16.6224 18.0913ZM15.0351 16.0265C14.333 15.4904 13.5015 15.1496 12.6252 15.0389L12.3744 17.0231C12.9006 17.0896 13.3998 17.2942 13.8212 17.616L15.0351 16.0265ZM11.4998 16.031V18.0855H13.4998V16.031H11.4998ZM12.1661 19.0282C12.3174 19.0817 12.4354 19.2067 12.4797 19.3586L14.3999 18.7994C14.1741 18.0243 13.5862 17.4093 12.8335 17.1428L12.1661 19.0282ZM13.6987 20.0449L15.9572 19.4394L15.4393 17.5076L13.1808 18.1131L13.6987 20.0449ZM17.7376 17.8544C17.7547 17.9179 17.759 17.984 17.7505 18.0491L15.7675 17.7885C15.7418 17.9838 15.7549 18.1823 15.8059 18.3726L17.7376 17.8544ZM17.7505 18.0491C17.7419 18.1142 17.7206 18.177 17.6878 18.2339L15.9556 17.2342C15.8571 17.4048 15.7932 17.5932 15.7675 17.7885L17.7505 18.0491ZM17.6878 18.2339C17.6549 18.2908 17.6112 18.3406 17.5591 18.3806L16.3415 16.794C16.1852 16.914 16.054 17.0635 15.9556 17.2342L17.6878 18.2339ZM17.5591 18.3806C17.507 18.4206 17.4476 18.4499 17.3841 18.4669L16.8664 16.5351C16.6761 16.5861 16.4977 16.6741 16.3415 16.794L17.5591 18.3806ZM17.3843 18.4669L18.3503 18.2079L17.8323 16.2761L16.8663 16.5351L17.3843 18.4669ZM18.3494 18.2081C18.2214 18.2423 18.085 18.2243 17.9703 18.158L18.9706 16.4262C18.6264 16.2273 18.2172 16.1733 17.8331 16.2759L18.3494 18.2081ZM17.9703 18.158C17.8555 18.0917 17.7718 17.9826 17.7374 17.8546L19.6691 17.3364C19.5661 16.9524 19.3149 16.625 18.9706 16.4262L17.9703 18.158ZM17.7374 17.8545L18.1259 19.3035L20.0577 18.7855L19.6692 17.3365L17.7374 17.8545ZM18.1259 19.3036C18.1089 19.2402 18.1046 19.174 18.1131 19.1089L20.0961 19.3695C20.1217 19.1742 20.1087 18.9757 20.0576 18.7854L18.1259 19.3036ZM18.1131 19.1089C18.1217 19.0438 18.143 18.981 18.1758 18.9241L19.908 19.9238C20.0065 19.7532 20.0704 19.5648 20.0961 19.3695L18.1131 19.1089ZM18.1758 18.9241C18.2086 18.8672 18.2523 18.8174 18.3044 18.7774L19.5221 20.364C19.6784 20.244 19.8095 20.0945 19.908 19.9238L18.1758 18.9241ZM18.3044 18.7774C18.3566 18.7374 18.416 18.7081 18.4794 18.6911L18.9971 20.6229C19.1874 20.5719 19.3658 20.4839 19.5221 20.364L18.3044 18.7774ZM18.4793 18.6911L17.5133 18.9501L18.0313 20.8819L18.9973 20.6229L18.4793 18.6911ZM17.5135 18.9501C17.5769 18.9331 17.6431 18.9287 17.7082 18.9373L17.4468 20.9202C17.6422 20.9459 17.8407 20.9329 18.0311 20.8819L17.5135 18.9501ZM17.7082 18.9373C17.7734 18.9459 17.8362 18.9673 17.8931 19.0001L16.8923 20.7317C17.0629 20.8304 17.2514 20.8944 17.4468 20.9202L17.7082 18.9373ZM17.8931 19.0001C17.95 19.033 17.9998 19.0768 18.0398 19.1289L16.4522 20.3454C16.5721 20.5018 16.7216 20.6331 16.8923 20.7317L17.8931 19.0001ZM18.0398 19.1289C18.0797 19.1811 18.109 19.2406 18.126 19.3041L16.1936 19.8199C16.2445 20.0104 16.3323 20.1889 16.4522 20.3454L18.0398 19.1289ZM18.1257 19.3033L17.7377 17.8548L15.8058 18.3722L16.1938 19.8207L18.1257 19.3033ZM6.16681 16.2764C5.97642 16.2251 5.7778 16.2119 5.58229 16.2375L5.84161 18.2206C5.77644 18.2291 5.71023 18.2247 5.64677 18.2076L6.16681 16.2764ZM5.58229 16.2375C5.38679 16.263 5.19825 16.3269 5.02744 16.4254L6.02656 18.1579C5.96963 18.1908 5.90678 18.2121 5.84161 18.2206L5.58229 16.2375ZM5.02744 16.4254C4.85664 16.5239 4.70693 16.6551 4.58688 16.8115L6.17341 18.0292C6.1334 18.0814 6.08349 18.1251 6.02656 18.1579L5.02744 16.4254ZM4.58688 16.8115C4.46683 16.9679 4.37879 17.1464 4.32781 17.3369L6.25977 17.8541C6.24278 17.9176 6.21344 17.9771 6.17341 18.0292L4.58688 16.8115ZM4.32784 17.3368L3.93984 18.7853L5.87174 19.3027L6.25974 17.8542L4.32784 17.3368ZM3.93994 18.7849C3.88889 18.9752 3.87583 19.1737 3.90151 19.369L5.88445 19.1084C5.89301 19.1735 5.88866 19.2397 5.87165 19.3031L3.93994 18.7849ZM3.90151 19.369C3.92718 19.5643 3.99108 19.7527 4.08956 19.9233L5.82177 18.9236C5.8546 18.9805 5.8759 19.0433 5.88445 19.1084L3.90151 19.369ZM4.08956 19.9233C4.18805 20.094 4.31918 20.2435 4.47546 20.3635L5.69314 18.7769C5.74523 18.8169 5.78894 18.8667 5.82177 18.9236L4.08956 19.9233ZM4.47546 20.3635C4.63175 20.4834 4.81013 20.5714 5.00044 20.6224L5.51815 18.6906C5.58158 18.7076 5.64104 18.7369 5.69314 18.7769L4.47546 20.3635ZM5.00032 20.6224L5.96632 20.8814L6.48426 18.9496L5.51826 18.6906L5.00032 20.6224ZM5.96621 20.8814C6.1565 20.9324 6.35498 20.9455 6.5503 20.9198L6.28968 18.9368C6.35477 18.9283 6.42093 18.9326 6.48437 18.9496L5.96621 20.8814ZM6.5503 20.9198C6.74564 20.8941 6.934 20.8302 7.10463 20.7317L6.1049 18.9995C6.16178 18.9667 6.22456 18.9454 6.28968 18.9368L6.5503 20.9198ZM7.10463 20.7317C7.27526 20.6333 7.42482 20.5021 7.54477 20.3458L5.95818 19.1282C5.99817 19.0761 6.04803 19.0323 6.1049 18.9995L7.10463 20.7317ZM7.54477 20.3458C7.66473 20.1895 7.75271 20.0111 7.80371 19.8209L5.87187 19.3031C5.88887 19.2397 5.9182 19.1803 5.95818 19.1282L7.54477 20.3458ZM7.80376 19.8207L8.19176 18.3717L6.25982 17.8543L5.87182 19.3033L7.80376 19.8207ZM8.19139 18.373C8.24266 18.1826 8.25589 17.984 8.23033 17.7885L6.24721 18.0478C6.23869 17.9826 6.2431 17.9164 6.26019 17.853L8.19139 18.373ZM8.23033 17.7885C8.20476 17.593 8.1409 17.4045 8.04241 17.2337L6.30985 18.2328C6.27702 18.1758 6.25573 18.113 6.24721 18.0478L8.23033 17.7885ZM8.04241 17.2337C7.94391 17.0628 7.8127 16.9131 7.6563 16.7931L6.43855 18.3796C6.38642 18.3396 6.34268 18.2897 6.30985 18.2328L8.04241 17.2337ZM7.6563 16.7931C7.4999 16.673 7.32136 16.585 7.13089 16.534L6.61369 18.466C6.5502 18.449 6.49068 18.4196 6.43855 18.3796L7.6563 16.7931ZM7.13045 16.5339L6.16495 16.2759L5.64863 18.2081L6.61413 18.4661L7.13045 16.5339ZM11.4998 19.5C11.4998 19.3674 11.5525 19.2402 11.6462 19.1464L13.0605 20.5607C13.3418 20.2794 13.4998 19.8978 13.4998 19.5H11.4998ZM11.6462 19.1464C11.74 19.0527 11.8672 19 11.9998 19V21C12.3976 21 12.7791 20.842 13.0605 20.5607L11.6462 19.1464ZM11.9998 19C12.1324 19 12.2596 19.0527 12.3533 19.1464L10.9391 20.5607C11.2204 20.842 11.602 21 11.9998 21V19ZM12.3533 19.1464C12.4471 19.2402 12.4998 19.3674 12.4998 19.5H10.4998C10.4998 19.8978 10.6578 20.2794 10.9391 20.5607L12.3533 19.1464ZM12.4998 19.5C12.4998 19.6326 12.4471 19.7598 12.3533 19.8536L10.9391 18.4393C10.6578 18.7206 10.4998 19.1022 10.4998 19.5H12.4998ZM12.3533 19.8536C12.2596 19.9473 12.1324 20 11.9998 20V18C11.602 18 11.2204 18.158 10.9391 18.4393L12.3533 19.8536ZM11.9998 20C11.8672 20 11.74 19.9473 11.6462 19.8536L13.0605 18.4393C12.7791 18.158 12.3976 18 11.9998 18V20ZM11.6462 19.8536C11.5525 19.7598 11.4998 19.6326 11.4998 19.5H13.4998C13.4998 19.1022 13.3418 18.7206 13.0605 18.4393L11.6462 19.8536Z" fill="black" mask="url(#path-3-inside-2_136_10261)"/>
</svg>
