<svg width="24" height="24" viewBox="0 0 24 24" fill="none" xmlns="http://www.w3.org/2000/svg">
<path d="M1.96379 3.50833L2.01837 3.39903L2.07295 3.50833H1.96379Z" fill="black" stroke="#262626" stroke-width="1.25"/>
<path d="M20.4863 22.0551V21.9455L20.5958 22.0003L20.4863 22.0551Z" fill="black" stroke="#262626" stroke-width="1.25"/>
<path d="M2.01855 3.70703V22.0004H20.2875" stroke="#262626" stroke-width="1.25" stroke-miterlimit="1.5" stroke-linecap="round" stroke-linejoin="round"/>
<path d="M6.45695 18.9772C7.24137 18.9772 7.87727 18.3405 7.87727 17.555C7.87727 16.7696 7.24137 16.1328 6.45695 16.1328C5.67252 16.1328 5.03662 16.7696 5.03662 17.555C5.03662 18.3405 5.67252 18.9772 6.45695 18.9772Z" stroke="black" stroke-width="1.25" stroke-miterlimit="1.5" stroke-linecap="round" stroke-linejoin="round"/>
<path d="M17.6424 18.6216C18.2307 18.6216 18.7076 18.1441 18.7076 17.5549C18.7076 16.9658 18.2307 16.4883 17.6424 16.4883C17.0541 16.4883 16.5771 16.9658 16.5771 17.5549C16.5771 18.1441 17.0541 18.6216 17.6424 18.6216Z" stroke="black" stroke-width="1.25" stroke-miterlimit="1.5" stroke-linecap="round" stroke-linejoin="round"/>
<path d="M6.45715 8.57721C7.63379 8.57721 8.58765 7.62209 8.58765 6.44388C8.58765 5.26567 7.63379 4.31055 6.45715 4.31055C5.28051 4.31055 4.32666 5.26567 4.32666 6.44388C4.32666 7.62209 5.28051 8.57721 6.45715 8.57721Z" stroke="black" stroke-width="1.25" stroke-miterlimit="1.5" stroke-linecap="round" stroke-linejoin="round"/>
<path d="M17.6423 7.15465C18.0345 7.15465 18.3525 6.83627 18.3525 6.44354C18.3525 6.0508 18.0345 5.73242 17.6423 5.73242C17.2501 5.73242 16.9321 6.0508 16.9321 6.44354C16.9321 6.83627 17.2501 7.15465 17.6423 7.15465Z" stroke="black" stroke-width="1.25" stroke-miterlimit="1.5" stroke-linecap="round" stroke-linejoin="round"/>
<path d="M12.2275 7.86592C13.0119 7.86592 13.6478 7.22917 13.6478 6.4437C13.6478 5.65823 13.0119 5.02148 12.2275 5.02148C11.443 5.02148 10.8071 5.65823 10.8071 6.4437C10.8071 7.22917 11.443 7.86592 12.2275 7.86592Z" stroke="black" stroke-width="1.25" stroke-miterlimit="1.5" stroke-linecap="round" stroke-linejoin="round"/>
<path d="M17.642 14.8665C18.5612 14.8665 19.3064 14.1203 19.3064 13.1999C19.3064 12.2794 18.5612 11.5332 17.642 11.5332C16.7227 11.5332 15.9775 12.2794 15.9775 13.1999C15.9775 14.1203 16.7227 14.8665 17.642 14.8665Z" stroke="black" stroke-width="1.25" stroke-miterlimit="1.5" stroke-linecap="round" stroke-linejoin="round"/>
<path d="M6.45734 14.1763C7.04566 14.1763 7.52258 13.6987 7.52258 13.1096C7.52258 12.5205 7.04566 12.043 6.45734 12.043C5.86902 12.043 5.39209 12.5205 5.39209 13.1096C5.39209 13.6987 5.86902 14.1763 6.45734 14.1763Z" stroke="black" stroke-width="1.25" stroke-miterlimit="1.5" stroke-linecap="round" stroke-linejoin="round"/>
<path d="M12.2273 18.266C12.6195 18.266 12.9374 17.9476 12.9374 17.5549C12.9374 17.1621 12.6195 16.8438 12.2273 16.8438C11.835 16.8438 11.5171 17.1621 11.5171 17.5549C11.5171 17.9476 11.835 18.266 12.2273 18.266Z" stroke="black" stroke-width="1.25" stroke-miterlimit="1.5" stroke-linecap="round" stroke-linejoin="round"/>
<path d="M12.2275 14.5319C13.0119 14.5319 13.6478 13.8952 13.6478 13.1097C13.6478 12.3242 13.0119 11.6875 12.2275 11.6875C11.443 11.6875 10.8071 12.3242 10.8071 13.1097C10.8071 13.8952 11.443 14.5319 12.2275 14.5319Z" stroke="black" stroke-width="1.25" stroke-miterlimit="1.5" stroke-linecap="round" stroke-linejoin="round"/>
</svg>
