<svg width="25" height="24" viewBox="0 0 25 24" fill="none" xmlns="http://www.w3.org/2000/svg">
<g id="lock">
<path id="Vector" d="M19.7791 11H5.77905C4.67448 11 3.77905 11.8954 3.77905 13V20C3.77905 21.1046 4.67448 22 5.77905 22H19.7791C20.8836 22 21.7791 21.1046 21.7791 20V13C21.7791 11.8954 20.8836 11 19.7791 11Z" stroke="#595959" stroke-width="1.25" stroke-linecap="round" stroke-linejoin="round"/>
<path id="Vector_2" d="M7.77905 11V7C7.77905 5.67392 8.30584 4.40215 9.24352 3.46447C10.1812 2.52678 11.453 2 12.7791 2C14.1051 2 15.3769 2.52678 16.3146 3.46447C17.2523 4.40215 17.7791 5.67392 17.7791 7V11" stroke="#595959" stroke-width="1.25" stroke-linecap="round" stroke-linejoin="round"/>
</g>
</svg>
