<svg width="14" height="14" viewBox="0 0 14 14" fill="none" xmlns="http://www.w3.org/2000/svg">
<g id="Tabler Icons" clip-path="url(#clip0_1073_379)">
<path id="Vector" d="M3.27771 10.0545C3.27771 10.3394 3.39087 10.6126 3.5923 10.814C3.79373 11.0155 4.06692 11.1286 4.35178 11.1286C4.63665 11.1286 4.90984 11.0155 5.11127 10.814C5.3127 10.6126 5.42586 10.3394 5.42586 10.0545C5.42586 9.76968 5.3127 9.49649 5.11127 9.29506C4.90984 9.09363 4.63665 8.98047 4.35178 8.98047C4.06692 8.98047 3.79373 9.09363 3.5923 9.29506C3.39087 9.49649 3.27771 9.76968 3.27771 10.0545Z" stroke="#DC4A41" stroke-width="0.671296" stroke-linecap="round" stroke-linejoin="round"/>
<path id="Vector_2" d="M8.96153 9.29688C8.75999 9.49827 8.64671 9.77148 8.64661 10.0564C8.64651 10.3413 8.75959 10.6146 8.96099 10.8162C9.16239 11.0177 9.4356 11.131 9.72052 11.1311C10.0054 11.1312 10.2787 11.0181 10.4803 10.8167" stroke="#DC4A41" stroke-width="0.537037" stroke-linecap="round" stroke-linejoin="round"/>
<path id="Vector_3" d="M3.27769 10.0558H2.20361V6.83362M2.20361 6.83362L3.27769 4.14844H3.81472M2.20361 6.83362H6.49991M5.96287 4.14844H8.11102L10.2592 6.83362M10.2592 6.83362H10.7962C11.0811 6.83362 11.3543 6.94678 11.5557 7.14821C11.7571 7.34964 11.8703 7.62283 11.8703 7.9077V10.0558M10.2592 6.83362H8.64806M8.64806 10.0558H5.42584M7.03695 5.22251V4.14844" stroke="#DC4A41" stroke-width="0.671296" stroke-linecap="round" stroke-linejoin="round"/>
<path id="Vector_4" d="M2.20361 2.53516L11.8703 12.2018" stroke="#DC4A41" stroke-width="0.716049" stroke-linecap="round" stroke-linejoin="round"/>
</g>
<defs>
<clipPath id="clip0_1073_379">
<rect width="12.8889" height="12.8889" fill="white" transform="translate(0.592529 0.925781)"/>
</clipPath>
</defs>
</svg>
