<svg width="24" height="25" viewBox="0 0 24 25" fill="none" xmlns="http://www.w3.org/2000/svg">
<g id="moon-star">
<path id="Vector" d="M12 3.98438C10.8065 5.17785 10.136 6.79655 10.136 8.48438C10.136 10.1722 10.8065 11.7909 12 12.9844C13.1935 14.1778 14.8122 14.8483 16.5 14.8483C18.1878 14.8483 19.8065 14.1778 21 12.9844C21 14.7644 20.4722 16.5045 19.4832 17.9845C18.4943 19.4645 17.0887 20.6181 15.4442 21.2993C13.7996 21.9805 11.99 22.1587 10.2442 21.8114C8.49836 21.4642 6.89472 20.607 5.63604 19.3483C4.37737 18.0897 3.5202 16.486 3.17294 14.7402C2.82567 12.9944 3.0039 11.1848 3.68509 9.54022C4.36628 7.89569 5.51983 6.49008 6.99987 5.50115C8.47991 4.51222 10.22 3.98438 12 3.98438Z" stroke="#262626" stroke-width="1.25" stroke-linecap="round" stroke-linejoin="round"/>
<path id="Vector_2" d="M19 3.98438V7.98438" stroke="#262626" stroke-width="1.25" stroke-linecap="round" stroke-linejoin="round"/>
<path id="Vector_3" d="M21 5.98438H17" stroke="#262626" stroke-width="1.25" stroke-linecap="round" stroke-linejoin="round"/>
</g>
</svg>
