<svg width="18" height="37" viewBox="0 0 18 37" fill="none" xmlns="http://www.w3.org/2000/svg">
<g id="Group 1901">
<g id="Group 19">
<g id="Group 18">
<g id="Rectangle 18" filter="url(#filter0_iii_173_16127)">
<path d="M1.02031 6.20798C1.08621 4.30463 2.42855 2.68659 4.28072 2.21694L6.29231 1.70686C8.40924 1.17007 10.6234 1.20581 12.7061 1.8104L14.4108 2.30526C16.2312 2.8337 17.4783 4.48926 17.4827 6.39085C17.4895 9.37032 17.4944 14.1677 17.4763 19.6392C17.4607 24.3721 17.2684 29.1271 17.1117 32.2552C17.0068 34.3495 15.3941 36.0617 13.311 36.3286L10.5717 36.6796C9.40413 36.8292 8.22346 36.8102 7.06603 36.623L4.85404 36.2654C2.7883 35.9314 1.27579 34.1687 1.24587 32.0732C1.20551 29.2465 1.12769 24.9191 0.981209 19.6556C0.82325 13.9796 0.917578 9.17517 1.02031 6.20798Z" fill="url(#paint0_linear_173_16127)"/>
</g>
<path id="Rectangle 19" d="M2.84303 12.5969C2.47675 11.1669 3.37276 9.62189 4.83255 9.34122L6.57253 9.00669C8.35991 8.66305 10.1933 8.68998 11.9585 9.08581L13.4353 9.41698C14.8743 9.73968 15.6811 11.3072 15.2721 12.7346C14.7016 14.7253 14.0811 17.6546 14.0889 20.9618C14.0945 23.3629 14.4468 25.7778 14.8353 27.7163C15.2583 29.8266 13.7966 31.9934 11.6435 32.2001L11.3016 32.2329C9.65315 32.3911 7.99504 32.3669 6.35752 32.1606C4.34047 31.9065 3.08488 29.7034 3.51741 27.7075C3.90308 25.9278 4.20116 23.6241 4.08671 20.9618C3.93942 17.5356 3.35319 14.5885 2.84303 12.5969Z" fill="#A7A5A5"/>
<path id="Subtract" fill-rule="evenodd" clip-rule="evenodd" d="M1.97314 8.3145C2.15121 5.55924 3.98253 3.17439 6.57578 2.1914C8.29153 1.54103 10.1846 1.52875 11.8876 2.16273C14.5598 3.15753 16.3443 5.67326 16.394 8.53582C16.4043 9.12976 16.4149 9.7609 16.4253 10.4179C16.4265 10.4948 16.3261 10.5328 16.2714 10.4787C16.2158 10.4238 16.1278 10.4792 16.1419 10.556C16.2103 10.9298 16.2006 11.3238 16.1003 11.7109C15.526 13.9276 14.8468 17.3916 14.8597 21.3423C14.8692 24.2187 15.3316 27.1131 15.8117 29.3504C15.9781 30.1258 15.8861 30.9103 15.5962 31.6029C15.5475 31.7195 15.6744 31.8336 15.7725 31.7542C15.8619 31.6818 16.0045 31.75 15.9951 31.8645C15.9706 32.1649 15.947 32.4445 15.9251 32.7002C15.8361 33.7346 15.1045 34.602 14.1018 34.8833L13.7923 34.9701C10.5581 35.8774 7.14506 35.8431 3.95738 34.8714C3.05275 34.5957 2.41265 33.8024 2.34308 32.8568C2.32049 32.5497 2.29539 32.2025 2.26841 31.82C2.25366 31.6108 2.56617 31.49 2.72426 31.6278C2.7567 31.6561 2.78978 31.6836 2.82346 31.7105C2.98228 31.8371 3.17236 31.6489 3.09473 31.4613C2.75956 30.6509 2.65644 29.7279 2.84973 28.8428C3.28304 26.8587 3.61527 24.2966 3.48324 21.3381C3.30452 17.3335 2.58023 13.9142 1.981 11.6897C1.91864 11.4583 1.88978 11.2235 1.89141 10.9914C1.89154 10.9717 1.86515 10.9648 1.85694 10.9828C1.84827 11.0018 1.81734 10.9951 1.81842 10.9742C1.867 10.0303 1.9202 9.13377 1.97314 8.3145ZM3.1812 12.1275C2.8273 10.7089 3.71356 9.1855 5.15766 8.89995L6.63618 8.6076C8.47024 8.24495 10.3546 8.27313 12.1655 8.6903L13.3931 8.9731C14.816 9.30091 15.615 10.8464 15.2189 12.2619C14.6647 14.2422 14.0592 17.1647 14.0657 20.4655C14.0706 22.91 14.4269 25.3688 14.8126 27.3191C15.2153 29.355 13.8053 31.4348 11.7302 31.6398L11.4277 31.6697C9.79122 31.8313 8.14443 31.8068 6.51902 31.5966C4.58684 31.3467 3.38342 29.2477 3.79985 27.3356C4.18992 25.5446 4.5003 23.1949 4.38703 20.4667C4.24507 17.0478 3.67541 14.1086 3.1812 12.1275Z" fill="#181818"/>
<g id="Rectangle 20" filter="url(#filter1_di_173_16127)">
<path d="M2.10539 10.1101C2.06351 9.99011 2.13944 9.85901 2.26524 9.83482L9.24052 8.49374C9.26811 8.48843 9.29641 8.48885 9.32366 8.49496L15.9635 9.98391C16.0875 10.0117 16.1554 10.1452 16.1074 10.264C15.6954 11.2839 14.0763 15.6323 14.0889 20.9618C14.1 25.6718 15.4448 30.4348 15.7806 31.5512C15.8183 31.6765 15.7307 31.8077 15.5997 31.8203L8.8439 32.4688C8.82891 32.4703 8.81382 32.47 8.79893 32.4682L2.55168 31.6812C2.4146 31.6639 2.33304 31.5197 2.38757 31.3917C2.81893 30.3793 4.32159 26.4255 4.08671 20.9618C3.84828 15.4156 2.45968 11.1248 2.10539 10.1101Z" fill="url(#paint1_linear_173_16127)"/>
</g>
<g id="Group 17" filter="url(#filter2_d_173_16127)">
<g id="Vector 43" filter="url(#filter3_d_173_16127)">
<path d="M16.019 5.08056C15.4599 4.13442 14.6369 3.88636 14.0819 3.87807C13.9225 3.87569 13.8702 4.06139 13.9819 4.17717C14.9149 5.14503 15.7398 6.67961 16.1983 7.68616C16.2766 7.85794 16.5098 7.84182 16.5296 7.65623C16.602 6.97821 16.5473 5.97457 16.019 5.08056Z" fill="white"/>
<path d="M15.7645 5.22607C15.3728 4.56318 14.844 4.29462 14.4069 4.20784C15.1572 5.06431 15.8159 6.22246 16.2588 7.12718C16.2544 6.54829 16.1355 5.85387 15.7645 5.22607Z" stroke="white" stroke-width="0.591671" stroke-linecap="round"/>
</g>
</g>
<g id="Vector 42" filter="url(#filter4_d_173_16127)">
<path d="M2.15616 5.1374C2.71491 4.13378 3.57436 3.86556 4.15199 3.85189C4.31128 3.84812 4.36844 4.0338 4.25974 4.15129C3.30622 5.18185 2.4841 6.81769 2.03718 7.87694C1.96409 8.05019 1.73055 8.03793 1.70445 7.85267C1.60513 7.14762 1.62682 6.0882 2.15616 5.1374Z" fill="white"/>
<path d="M2.41438 5.27923C2.8141 4.56126 3.37747 4.27387 3.83965 4.18269C3.06273 5.10435 2.39419 6.36173 1.95626 7.32705C1.93633 6.71249 2.03459 5.96141 2.41438 5.27923Z" stroke="white" stroke-width="0.591671" stroke-linecap="round"/>
</g>
<g id="Subtract_2" filter="url(#filter5_di_173_16127)">
<path fill-rule="evenodd" clip-rule="evenodd" d="M3.77123 7.95978C2.77603 8.16663 2.01682 8.98057 1.92558 9.99065C1.74446 11.9957 1.51549 15.6392 1.68496 20.0957C1.8285 23.8705 2.0045 27.0196 2.13373 29.0881C2.1825 29.8688 2.5028 30.5717 3.00482 31.105C2.74644 30.3536 2.68087 29.5239 2.85459 28.726C3.27671 26.7874 3.59513 24.3025 3.46541 21.441C3.28835 17.535 2.57581 14.1948 1.9799 12.0035C1.58804 10.5626 2.49387 8.99158 3.9726 8.71705L6.65927 8.21827C8.44259 7.8872 10.2693 7.92451 12.0264 8.32789L14.2428 8.83674C15.6311 9.15546 16.4296 10.6349 16.067 12.0221C15.4961 14.2066 14.8291 17.5905 14.8419 21.4451C14.8512 24.2392 15.3016 27.0504 15.7747 29.2406C15.8553 29.6137 15.8762 29.9892 15.8441 30.3558C16.0205 30.0026 16.1347 29.6129 16.1721 29.2C16.3759 26.9476 16.6169 23.5747 16.6159 20.227C16.6147 15.9313 16.4734 12.2276 16.3755 10.1754C16.3268 9.15253 15.6114 8.29978 14.618 8.06058L12.2396 7.48787C10.3488 7.03257 8.37414 7.00305 6.45746 7.40144L3.77123 7.95978Z" fill="url(#paint2_linear_173_16127)"/>
</g>
<g id="Subtract_3" filter="url(#filter6_iii_173_16127)">
<path fill-rule="evenodd" clip-rule="evenodd" d="M1.63184 9.11377C1.82021 6.25454 3.74234 3.7896 6.44611 2.80076C8.16123 2.1735 10.0405 2.16171 11.7416 2.77272C14.5254 3.77262 16.394 6.37147 16.4469 9.34158C16.4581 9.96881 16.4695 10.635 16.4807 11.3272C16.4195 11.2521 16.3531 11.1816 16.2821 11.116C16.3771 11.5325 16.3749 11.9782 16.2581 12.4141C15.6693 14.6113 14.9841 18.0059 14.9973 21.8711C15.0068 24.6732 15.4696 27.4924 15.957 29.6921C16.167 30.6398 15.9915 31.605 15.5398 32.4026C15.724 32.2857 15.8954 32.1503 16.0508 31.9979C16.0232 32.3282 15.9967 32.6354 15.9719 32.9156C15.8753 34.0075 15.0958 34.9201 14.0343 35.2073L13.7233 35.2915C10.433 36.182 6.97491 36.1486 3.73219 35.1949C2.77496 34.9134 2.09409 34.0799 2.01836 33.0824C1.98803 32.6828 1.95361 32.2192 1.91648 31.7017C2.27166 32.1443 2.75634 32.4734 3.30929 32.6575C2.63269 31.6754 2.3482 30.3794 2.61904 29.1622C3.05181 27.2173 3.37672 24.7295 3.24339 21.867C3.06097 17.9505 2.32842 14.5996 1.71381 12.396C1.60771 12.0155 1.59231 11.6254 1.65424 11.252C1.59382 11.329 1.53866 11.4105 1.48938 11.4962C1.53429 10.6568 1.58299 9.85542 1.63184 9.11377ZM2.94167 12.8155C2.57401 11.3818 3.47349 9.82884 4.93819 9.54941L6.63385 9.22591C8.40743 8.88755 10.2257 8.9138 11.977 9.30307L13.4113 9.62188C14.8551 9.94279 15.6635 11.5177 15.2523 12.9494C14.6896 14.9083 14.0839 17.7697 14.0905 20.9962C14.0953 23.3287 14.4351 25.6744 14.8141 27.5698C15.2369 29.6846 13.7716 31.8601 11.6135 32.0658L11.3003 32.0957C9.6764 32.2505 8.04328 32.227 6.43025 32.0257C4.42179 31.7751 3.17276 29.5772 3.60344 27.5896C3.98165 25.8442 4.27171 23.594 4.15997 20.9975C4.01612 17.6549 3.44426 14.7755 2.94167 12.8155Z" fill="url(#paint3_linear_173_16127)"/>
</g>
<g id="Rectangle 21" filter="url(#filter7_ii_173_16127)">
<path d="M3.55905 16.0324C7.0655 14.9762 10.8029 14.9588 14.319 15.9823L14.4482 16.0199C14.4482 16.0199 14.1452 17.8258 14.1452 21.6635C14.2614 25.4775 14.6812 27.1906 14.6812 27.1906L13.5184 27.3908C10.4853 27.9129 7.38304 27.8846 4.35998 27.3073L3.62498 27.1669C3.62498 27.1669 4.06394 24.2329 4.03903 21.66C4.01762 19.449 3.55905 16.0324 3.55905 16.0324Z" fill="url(#paint4_linear_173_16127)"/>
</g>
</g>
</g>
</g>
<defs>
<filter id="filter0_iii_173_16127" x="0.897034" y="0.501777" width="17.2116" height="36.4841" filterUnits="userSpaceOnUse" color-interpolation-filters="sRGB">
<feFlood flood-opacity="0" result="BackgroundImageFix"/>
<feBlend mode="normal" in="SourceGraphic" in2="BackgroundImageFix" result="shape"/>
<feColorMatrix in="SourceAlpha" type="matrix" values="0 0 0 0 0 0 0 0 0 0 0 0 0 0 0 0 0 0 127 0" result="hardAlpha"/>
<feOffset dx="0.619761" dy="-0.826348"/>
<feGaussianBlur stdDeviation="2.47904"/>
<feComposite in2="hardAlpha" operator="arithmetic" k2="-1" k3="1"/>
<feColorMatrix type="matrix" values="0 0 0 0 0 0 0 0 0 0 0 0 0 0 0 0 0 0 0.07 0"/>
<feBlend mode="normal" in2="shape" result="effect1_innerShadow_173_16127"/>
<feColorMatrix in="SourceAlpha" type="matrix" values="0 0 0 0 0 0 0 0 0 0 0 0 0 0 0 0 0 0 127 0" result="hardAlpha"/>
<feOffset dy="-0.103294"/>
<feGaussianBlur stdDeviation="0.206587"/>
<feComposite in2="hardAlpha" operator="arithmetic" k2="-1" k3="1"/>
<feColorMatrix type="matrix" values="0 0 0 0 0 0 0 0 0 0 0 0 0 0 0 0 0 0 0.25 0"/>
<feBlend mode="normal" in2="effect1_innerShadow_173_16127" result="effect2_innerShadow_173_16127"/>
<feColorMatrix in="SourceAlpha" type="matrix" values="0 0 0 0 0 0 0 0 0 0 0 0 0 0 0 0 0 0 127 0" result="hardAlpha"/>
<feOffset dy="0.413174"/>
<feGaussianBlur stdDeviation="0.103294"/>
<feComposite in2="hardAlpha" operator="arithmetic" k2="-1" k3="1"/>
<feColorMatrix type="matrix" values="0 0 0 0 0 0 0 0 0 0 0 0 0 0 0 0 0 0 0.25 0"/>
<feBlend mode="normal" in2="effect2_innerShadow_173_16127" result="effect3_innerShadow_173_16127"/>
</filter>
<filter id="filter1_di_173_16127" x="1.69936" y="8.49023" width="14.5255" height="24.3749" filterUnits="userSpaceOnUse" color-interpolation-filters="sRGB">
<feFlood flood-opacity="0" result="BackgroundImageFix"/>
<feColorMatrix in="SourceAlpha" type="matrix" values="0 0 0 0 0 0 0 0 0 0 0 0 0 0 0 0 0 0 127 0" result="hardAlpha"/>
<feOffset dy="0.101978"/>
<feGaussianBlur stdDeviation="0.0509888"/>
<feColorMatrix type="matrix" values="0 0 0 0 0.925374 0 0 0 0 0.925374 0 0 0 0 0.925374 0 0 0 0.37 0"/>
<feBlend mode="normal" in2="BackgroundImageFix" result="effect1_dropShadow_173_16127"/>
<feBlend mode="normal" in="SourceGraphic" in2="effect1_dropShadow_173_16127" result="shape"/>
<feColorMatrix in="SourceAlpha" type="matrix" values="0 0 0 0 0 0 0 0 0 0 0 0 0 0 0 0 0 0 127 0" result="hardAlpha"/>
<feOffset dx="-0.394448" dy="0.49306"/>
<feGaussianBlur stdDeviation="0.197224"/>
<feComposite in2="hardAlpha" operator="arithmetic" k2="-1" k3="1"/>
<feColorMatrix type="matrix" values="0 0 0 0 0 0 0 0 0 0 0 0 0 0 0 0 0 0 0.8 0"/>
<feBlend mode="normal" in2="shape" result="effect2_innerShadow_173_16127"/>
</filter>
<filter id="filter2_d_173_16127" x="13.7251" y="3.48446" width="3.02732" height="4.32218" filterUnits="userSpaceOnUse" color-interpolation-filters="sRGB">
<feFlood flood-opacity="0" result="BackgroundImageFix"/>
<feColorMatrix in="SourceAlpha" type="matrix" values="0 0 0 0 0 0 0 0 0 0 0 0 0 0 0 0 0 0 127 0" result="hardAlpha"/>
<feOffset dy="-0.197224"/>
<feGaussianBlur stdDeviation="0.0986119"/>
<feColorMatrix type="matrix" values="0 0 0 0 0 0 0 0 0 0 0 0 0 0 0 0 0 0 0.25 0"/>
<feBlend mode="normal" in2="BackgroundImageFix" result="effect1_dropShadow_173_16127"/>
<feBlend mode="normal" in="SourceGraphic" in2="effect1_dropShadow_173_16127" result="shape"/>
</filter>
<filter id="filter3_d_173_16127" x="13.8238" y="3.87891" width="2.8301" height="4.12496" filterUnits="userSpaceOnUse" color-interpolation-filters="sRGB">
<feFlood flood-opacity="0" result="BackgroundImageFix"/>
<feColorMatrix in="SourceAlpha" type="matrix" values="0 0 0 0 0 0 0 0 0 0 0 0 0 0 0 0 0 0 127 0" result="hardAlpha"/>
<feOffset dy="0.0986119"/>
<feGaussianBlur stdDeviation="0.0493059"/>
<feColorMatrix type="matrix" values="0 0 0 0 1 0 0 0 0 1 0 0 0 0 1 0 0 0 0.25 0"/>
<feBlend mode="normal" in2="BackgroundImageFix" result="effect1_dropShadow_173_16127"/>
<feBlend mode="normal" in="SourceGraphic" in2="effect1_dropShadow_173_16127" result="shape"/>
</filter>
<filter id="filter4_d_173_16127" x="1.46074" y="3.45711" width="3.05213" height="4.54289" filterUnits="userSpaceOnUse" color-interpolation-filters="sRGB">
<feFlood flood-opacity="0" result="BackgroundImageFix"/>
<feColorMatrix in="SourceAlpha" type="matrix" values="0 0 0 0 0 0 0 0 0 0 0 0 0 0 0 0 0 0 127 0" result="hardAlpha"/>
<feOffset dy="-0.197224"/>
<feGaussianBlur stdDeviation="0.0986119"/>
<feColorMatrix type="matrix" values="0 0 0 0 0 0 0 0 0 0 0 0 0 0 0 0 0 0 0.25 0"/>
<feBlend mode="normal" in2="BackgroundImageFix" result="effect1_dropShadow_173_16127"/>
<feBlend mode="normal" in="SourceGraphic" in2="effect1_dropShadow_173_16127" result="shape"/>
</filter>
<filter id="filter5_di_173_16127" x="1.23113" y="7.12305" width="15.4868" height="24.3769" filterUnits="userSpaceOnUse" color-interpolation-filters="sRGB">
<feFlood flood-opacity="0" result="BackgroundImageFix"/>
<feColorMatrix in="SourceAlpha" type="matrix" values="0 0 0 0 0 0 0 0 0 0 0 0 0 0 0 0 0 0 127 0" result="hardAlpha"/>
<feOffset dy="0.101978"/>
<feGaussianBlur stdDeviation="0.0509888"/>
<feColorMatrix type="matrix" values="0 0 0 0 0.925374 0 0 0 0 0.925374 0 0 0 0 0.925374 0 0 0 0.37 0"/>
<feBlend mode="normal" in2="BackgroundImageFix" result="effect1_dropShadow_173_16127"/>
<feBlend mode="normal" in="SourceGraphic" in2="effect1_dropShadow_173_16127" result="shape"/>
<feColorMatrix in="SourceAlpha" type="matrix" values="0 0 0 0 0 0 0 0 0 0 0 0 0 0 0 0 0 0 127 0" result="hardAlpha"/>
<feOffset dx="-0.394448" dy="0.49306"/>
<feGaussianBlur stdDeviation="0.197224"/>
<feComposite in2="hardAlpha" operator="arithmetic" k2="-1" k3="1"/>
<feColorMatrix type="matrix" values="0 0 0 0 0 0 0 0 0 0 0 0 0 0 0 0 0 0 0.8 0"/>
<feBlend mode="normal" in2="shape" result="effect2_innerShadow_173_16127"/>
</filter>
<filter id="filter6_iii_173_16127" x="1.48938" y="2.11568" width="14.9913" height="34.233" filterUnits="userSpaceOnUse" color-interpolation-filters="sRGB">
<feFlood flood-opacity="0" result="BackgroundImageFix"/>
<feBlend mode="normal" in="SourceGraphic" in2="BackgroundImageFix" result="shape"/>
<feColorMatrix in="SourceAlpha" type="matrix" values="0 0 0 0 0 0 0 0 0 0 0 0 0 0 0 0 0 0 127 0" result="hardAlpha"/>
<feOffset dy="0.619761"/>
<feGaussianBlur stdDeviation="0.206587"/>
<feComposite in2="hardAlpha" operator="arithmetic" k2="-1" k3="1"/>
<feColorMatrix type="matrix" values="0 0 0 0 0.00392157 0 0 0 0 0.00392157 0 0 0 0 0.00392157 0 0 0 0.2 0"/>
<feBlend mode="normal" in2="shape" result="effect1_innerShadow_173_16127"/>
<feColorMatrix in="SourceAlpha" type="matrix" values="0 0 0 0 0 0 0 0 0 0 0 0 0 0 0 0 0 0 127 0" result="hardAlpha"/>
<feOffset dy="-0.103293"/>
<feGaussianBlur stdDeviation="0.206587"/>
<feComposite in2="hardAlpha" operator="arithmetic" k2="-1" k3="1"/>
<feColorMatrix type="matrix" values="0 0 0 0 0 0 0 0 0 0 0 0 0 0 0 0 0 0 0.25 0"/>
<feBlend mode="normal" in2="effect1_innerShadow_173_16127" result="effect2_innerShadow_173_16127"/>
<feColorMatrix in="SourceAlpha" type="matrix" values="0 0 0 0 0 0 0 0 0 0 0 0 0 0 0 0 0 0 127 0" result="hardAlpha"/>
<feOffset dy="-0.206587"/>
<feGaussianBlur stdDeviation="0.206587"/>
<feComposite in2="hardAlpha" operator="arithmetic" k2="-1" k3="1"/>
<feColorMatrix type="matrix" values="0 0 0 0 1 0 0 0 0 1 0 0 0 0 1 0 0 0 0.25 0"/>
<feBlend mode="normal" in2="effect2_innerShadow_173_16127" result="effect3_innerShadow_173_16127"/>
</filter>
<filter id="filter7_ii_173_16127" x="3.55905" y="14.4002" width="11.742" height="13.3615" filterUnits="userSpaceOnUse" color-interpolation-filters="sRGB">
<feFlood flood-opacity="0" result="BackgroundImageFix"/>
<feBlend mode="normal" in="SourceGraphic" in2="BackgroundImageFix" result="shape"/>
<feColorMatrix in="SourceAlpha" type="matrix" values="0 0 0 0 0 0 0 0 0 0 0 0 0 0 0 0 0 0 127 0" result="hardAlpha"/>
<feOffset dx="0.619761" dy="-0.826348"/>
<feGaussianBlur stdDeviation="2.47904"/>
<feComposite in2="hardAlpha" operator="arithmetic" k2="-1" k3="1"/>
<feColorMatrix type="matrix" values="0 0 0 0 0 0 0 0 0 0 0 0 0 0 0 0 0 0 0.07 0"/>
<feBlend mode="normal" in2="shape" result="effect1_innerShadow_173_16127"/>
<feColorMatrix in="SourceAlpha" type="matrix" values="0 0 0 0 0 0 0 0 0 0 0 0 0 0 0 0 0 0 127 0" result="hardAlpha"/>
<feOffset dy="-0.103293"/>
<feGaussianBlur stdDeviation="0.206587"/>
<feComposite in2="hardAlpha" operator="arithmetic" k2="-1" k3="1"/>
<feColorMatrix type="matrix" values="0 0 0 0 0 0 0 0 0 0 0 0 0 0 0 0 0 0 0.25 0"/>
<feBlend mode="normal" in2="effect1_innerShadow_173_16127" result="effect2_innerShadow_173_16127"/>
</filter>
<linearGradient id="paint0_linear_173_16127" x1="6.89259" y1="35.2983" x2="-7.04294" y2="28.7649" gradientUnits="userSpaceOnUse">
<stop stop-color="#3D3D3D"/>
<stop offset="0.628054" stop-color="#737373"/>
<stop offset="1" stop-color="#B8B8B8"/>
</linearGradient>
<linearGradient id="paint1_linear_173_16127" x1="14.0795" y1="78.3611" x2="-16.3293" y2="60.2118" gradientUnits="userSpaceOnUse">
<stop stop-color="#E8EAE9"/>
<stop offset="0.498386" stop-color="#707072"/>
<stop offset="1" stop-color="#2F3032"/>
</linearGradient>
<linearGradient id="paint2_linear_173_16127" x1="16.0446" y1="76.921" x2="-15.5861" y2="58.2656" gradientUnits="userSpaceOnUse">
<stop stop-color="#E8EAE9"/>
<stop offset="0.498386" stop-color="#707072"/>
<stop offset="1" stop-color="#2F3032"/>
</linearGradient>
<linearGradient id="paint3_linear_173_16127" x1="7.40546" y1="34.4568" x2="-5.08871" y2="29.3687" gradientUnits="userSpaceOnUse">
<stop stop-color="#3D3D3D"/>
<stop offset="0.628054" stop-color="#737373"/>
<stop offset="1" stop-color="#B8B8B8"/>
</linearGradient>
<linearGradient id="paint4_linear_173_16127" x1="12.6902" y1="26.3838" x2="4.1908" y2="11.22" gradientUnits="userSpaceOnUse">
<stop stop-color="#3D3D3D"/>
<stop offset="0.287417" stop-color="#4D4D4D"/>
<stop offset="0.432494" stop-color="#585858"/>
<stop offset="0.682295" stop-color="#737373"/>
<stop offset="1" stop-color="#A8A8A8"/>
</linearGradient>
</defs>
</svg>
