<svg width="18" height="37" viewBox="0 0 18 37" fill="none" xmlns="http://www.w3.org/2000/svg">
<g id="Group 20">
<g id="Group 19">
<g id="Group 18">
<g id="Rectangle 18" filter="url(#filter0_ii_173_16102)">
<path d="M0.75626 6.21821C0.820205 4.30582 2.15864 2.67615 4.01532 2.18944L5.61301 1.77062C7.81737 1.19277 10.1308 1.23133 12.2992 1.88205L13.6086 2.275C15.4323 2.82229 16.6766 4.49007 16.6808 6.39985C16.6874 9.37997 16.6921 14.1732 16.6747 19.6392C16.6596 24.3586 16.4746 29.1001 16.3233 32.2285C16.2211 34.34 14.6024 36.0694 12.5037 36.3474L10.1311 36.6617C8.9124 36.8231 7.6787 36.8025 6.47061 36.6006L4.60311 36.2884C2.523 35.9408 1.00368 34.1603 0.974448 32.0485C0.935307 29.2214 0.860057 24.9038 0.718779 19.6556C0.566159 13.9861 0.657019 9.1862 0.75626 6.21821Z" fill="url(#paint0_linear_173_16102)"/>
</g>
<path id="Rectangle 19" d="M2.51665 12.5865C2.16141 11.1547 3.05459 9.61937 4.51083 9.32993L5.92086 9.04967C7.78463 8.67923 9.70035 8.7083 11.5408 9.13496L12.7013 9.404C14.1363 9.73667 14.9429 11.2945 14.5462 12.7229C13.9934 14.7138 13.3904 17.649 13.3979 20.9638C13.4036 23.4359 13.7646 25.9226 14.1534 27.889C14.5549 29.9196 13.1494 31.9919 11.0802 32.1973L10.7774 32.2273C9.13293 32.3905 7.4778 32.3655 5.84428 32.1528C3.91692 31.9018 2.71576 29.81 3.13076 27.9027C3.52347 26.0979 3.83749 23.7235 3.72273 20.9638C3.57996 17.5305 3.01085 14.5783 2.51665 12.5865Z" fill="#A7A5A5"/>
<g id="Subtract" filter="url(#filter1_di_173_16102)">
<path fill-rule="evenodd" clip-rule="evenodd" d="M1.68889 8.11078C1.85613 5.47438 3.58963 3.18489 6.05955 2.21701C7.75924 1.55096 9.64746 1.53831 11.3357 2.18804C13.8829 3.16834 15.5755 5.58179 15.622 8.32125C15.6333 8.9901 15.645 9.7094 15.6566 10.4622C15.6577 10.5357 15.5614 10.5714 15.5099 10.5188C15.4577 10.4655 15.3726 10.5173 15.3856 10.5909C15.45 10.9559 15.4405 11.3398 15.3457 11.7177C14.7896 13.9339 14.1303 17.403 14.1428 21.3605C14.1519 24.2387 14.5998 27.1349 15.0645 29.3728C15.2244 30.1428 15.1327 30.9197 14.8475 31.6072C14.7999 31.7219 14.9259 31.8331 15.0213 31.7536C15.108 31.6814 15.2489 31.7474 15.24 31.8599C15.213 32.201 15.1874 32.5154 15.1637 32.7983C15.0822 33.7725 14.399 34.5947 13.4572 34.8678L13.1524 34.9562C9.99984 35.8704 6.65978 35.8357 3.55253 34.8566C2.70261 34.5887 2.10403 33.836 2.04036 32.945C2.01665 32.6131 1.98989 32.2313 1.9609 31.8061C1.947 31.6021 2.25179 31.4855 2.40362 31.6225C2.55228 31.7566 2.7493 31.5801 2.67929 31.3925C2.39963 30.6431 2.32139 29.8055 2.49614 28.9978C2.92942 26.9953 3.26886 24.3832 3.13819 21.3563C2.96499 17.3443 2.26212 13.9198 1.68185 11.6956C1.62405 11.4741 1.5965 11.2498 1.59664 11.0279C1.59665 11.0084 1.57056 11.0019 1.56258 11.0197C1.55414 11.0385 1.52354 11.032 1.52456 11.0114C1.57596 9.97491 1.6328 8.99487 1.68889 8.11078ZM2.84216 12.1139C2.49897 10.6936 3.38219 9.17965 4.82262 8.8852L5.97542 8.64955C7.88765 8.25866 9.85661 8.28908 11.7445 8.73869L12.6597 8.95666C14.0786 9.29457 14.877 10.8308 14.493 12.247C13.9559 14.2275 13.3675 17.1558 13.3738 20.4641C13.3787 22.9897 13.7464 25.5305 14.1335 27.51C14.5136 29.4537 13.1688 31.4286 11.1899 31.6308L10.8957 31.6608C9.26413 31.8275 7.62126 31.8022 6.00082 31.5855C4.15565 31.3388 3.00478 29.3476 3.40344 27.5213C3.79922 25.7082 4.12496 23.2896 4.01153 20.4654C3.87393 17.0394 3.32089 14.0951 2.84216 12.1139Z" fill="url(#paint1_linear_173_16102)"/>
</g>
<g id="Rectangle 20" filter="url(#filter2_di_173_16102)">
<path d="M1.80594 10.1113C1.7653 9.99098 1.84106 9.86057 1.96655 9.83563L8.70489 8.49632C8.73365 8.49061 8.76322 8.49105 8.79163 8.49764L15.2057 9.98458C15.3294 10.0132 15.3974 10.146 15.3508 10.2651C14.9527 11.2837 13.3858 15.6329 13.3979 20.9638C13.4087 25.6738 14.7096 30.4368 15.0344 31.5532C15.071 31.6791 14.9831 31.8099 14.8519 31.823L8.32616 32.4706C8.3105 32.4721 8.29474 32.4719 8.27918 32.4699L2.24511 31.6841C2.10799 31.6662 2.02595 31.5227 2.07898 31.3941C2.49604 30.3823 3.94997 26.4282 3.72273 20.9638C3.49204 15.4163 2.14825 11.1247 1.80594 10.1113Z" fill="url(#paint2_linear_173_16102)"/>
</g>
<g id="Group 17" filter="url(#filter3_d_173_16102)">
<g id="Vector 43" filter="url(#filter4_d_173_16102)">
<path d="M15.2648 5.08056C14.726 4.13796 13.9337 3.88823 13.397 3.87818C13.2379 3.8752 13.1846 4.05967 13.2939 4.17687C14.189 5.13655 14.9811 6.65366 15.4269 7.66058C15.5049 7.83673 15.7428 7.81997 15.7613 7.63004C15.8272 6.95254 15.7693 5.96313 15.2648 5.08056Z" fill="white"/>
<path d="M15.0052 5.2245C14.6338 4.57473 14.137 4.30655 13.724 4.21573C14.4329 5.05426 15.0565 6.17896 15.4831 7.07223C15.472 6.50382 15.3529 5.83274 15.0052 5.2245Z" stroke="white" stroke-width="0.598061" stroke-linecap="round"/>
</g>
</g>
<g id="Vector 42" filter="url(#filter5_d_173_16102)">
<path d="M1.85506 5.1374C2.39365 4.1373 3.22107 3.86745 3.77976 3.85205C3.93867 3.84767 3.99668 4.03198 3.89024 4.15088C2.97533 5.17293 2.18545 6.79064 1.75073 7.85064C1.67787 8.02829 1.43929 8.01567 1.41457 7.82607C1.32264 7.12116 1.34942 6.07632 1.85506 5.1374Z" fill="white"/>
<path d="M2.11813 5.27735C2.49783 4.57229 3.02815 4.28536 3.46557 4.19023C2.73021 5.09407 2.09586 6.31779 1.67315 7.27276C1.66111 6.66764 1.76136 5.93984 2.11813 5.27735Z" stroke="white" stroke-width="0.598061" stroke-linecap="round"/>
</g>
<g id="Subtract_2" filter="url(#filter6_di_173_16102)">
<path fill-rule="evenodd" clip-rule="evenodd" d="M3.47959 7.94169C2.47823 8.15686 1.71841 8.98024 1.62965 9.99836C1.45462 12.0059 1.23435 15.6437 1.39795 20.0913C1.53619 23.8495 1.70555 26.9875 1.8304 29.0564C1.87402 29.7791 2.14777 30.4368 2.58223 30.9578C2.38662 30.2857 2.34794 29.5591 2.49972 28.8559C2.92233 26.8981 3.24807 24.3636 3.11963 21.4346C2.94805 17.5216 2.25664 14.1764 1.67958 11.9854C1.29948 10.5422 2.20272 8.98081 3.67804 8.69766L6.00291 8.25146C7.8626 7.89454 9.77133 7.93479 11.6031 8.36955L13.4808 8.8152C14.8657 9.14389 15.6637 10.6159 15.3122 12.0041C14.7593 14.1882 14.1118 17.5773 14.1242 21.4387C14.1332 24.2347 14.5694 27.0478 15.0274 29.2386C15.1032 29.6012 15.1234 29.9655 15.0939 30.3214C15.2667 29.968 15.378 29.5791 15.4139 29.1677C15.6106 26.9155 15.8418 23.5565 15.8409 20.2225C15.8396 15.9343 15.7034 12.2359 15.6088 10.1815C15.5614 9.15131 14.8451 8.28936 13.8465 8.04077L11.8254 7.53765C9.85461 7.04706 7.7913 7.01521 5.79334 7.44452L3.47959 7.94169Z" fill="url(#paint3_linear_173_16102)"/>
</g>
<g id="Subtract_3" filter="url(#filter7_ii_173_16102)">
<path fill-rule="evenodd" clip-rule="evenodd" d="M1.39933 8.97589C1.57645 6.23909 3.397 3.87068 5.97376 2.89644C7.67347 2.25381 9.54787 2.24167 11.2348 2.86808C13.8899 3.85398 15.6636 6.35247 15.713 9.19582C15.7241 9.82836 15.7353 10.5033 15.7465 11.2067C15.7473 11.2575 15.6807 11.281 15.6471 11.243C15.6126 11.2041 15.5512 11.2371 15.5592 11.2884C15.6147 11.646 15.5999 12.0202 15.5045 12.388C14.9342 14.5848 14.269 17.9846 14.2818 21.8567C14.291 24.6607 14.7394 27.4819 15.2112 29.6824C15.3813 30.4758 15.2846 31.2792 14.984 31.9868C14.9417 32.0866 15.0534 32.1824 15.1352 32.1114C15.2088 32.0474 15.3307 32.1038 15.3228 32.201C15.2966 32.5228 15.2714 32.8212 15.2481 33.0925C15.1594 34.1212 14.4314 34.9836 13.4339 35.2627L13.1272 35.3485C9.91919 36.2461 6.53489 36.2122 3.37309 35.2509C2.47326 34.9773 1.83633 34.1887 1.76699 33.2484C1.75107 33.0325 1.7339 32.7966 1.71571 32.5426C1.69698 32.281 2.0585 32.1164 2.27452 32.265C2.48877 32.4124 2.71643 32.1576 2.61003 31.9203C2.23068 31.0741 2.10292 30.0984 2.30427 29.166C2.72485 27.2184 3.04152 24.724 2.91214 21.8525C2.73537 17.929 2.02453 14.5732 1.42936 12.3697C1.33856 12.0335 1.31756 11.6905 1.35737 11.3583C1.36058 11.3314 1.32648 11.3172 1.31118 11.3395C1.29592 11.3617 1.25948 11.3501 1.2609 11.3232C1.3049 10.4937 1.3522 9.70408 1.39933 8.97589ZM2.6145 12.7925C2.2579 11.3569 3.15462 9.81386 4.6158 9.52567L5.98423 9.25578C7.83367 8.89102 9.73353 8.91936 11.5596 9.33896L12.6803 9.59647C14.1201 9.92732 14.9284 11.4924 14.5296 12.925C13.9842 14.8842 13.3955 17.7515 13.402 20.9857C13.4068 23.3993 13.7586 25.8271 14.1403 27.7554C14.5407 29.7779 13.1398 31.845 11.0781 32.0482L10.778 32.0778C9.15767 32.2374 7.52719 32.2132 5.91779 32.0056C3.9983 31.7579 2.80286 29.6719 3.21646 27.7723C3.60211 26.0011 3.9082 23.6804 3.79608 20.9869C3.65664 17.6372 3.10141 14.7527 2.6145 12.7925Z" fill="url(#paint4_linear_173_16102)"/>
</g>
<g id="Rectangle 21" filter="url(#filter8_ii_173_16102)">
<path d="M3.26184 16.0324C6.64888 14.9777 10.274 14.9603 13.671 15.9825L13.795 16.0199C13.795 16.0199 13.5019 17.8258 13.5019 21.6635C13.6144 25.4775 14.0204 27.1906 14.0204 27.1906L13.247 27.3282C10.0825 27.8914 6.8408 27.8609 3.68739 27.2383L3.32561 27.1669C3.32561 27.1669 3.75022 24.2329 3.72613 21.66C3.70542 19.449 3.26184 16.0324 3.26184 16.0324Z" fill="url(#paint5_linear_173_16102)"/>
</g>
</g>
</g>
</g>
<defs>
<filter id="filter0_ii_173_16102" x="0.637329" y="0.565866" width="16.6475" height="36.2037" filterUnits="userSpaceOnUse" color-interpolation-filters="sRGB">
<feFlood flood-opacity="0" result="BackgroundImageFix"/>
<feBlend mode="normal" in="SourceGraphic" in2="BackgroundImageFix" result="shape"/>
<feColorMatrix in="SourceAlpha" type="matrix" values="0 0 0 0 0 0 0 0 0 0 0 0 0 0 0 0 0 0 127 0" result="hardAlpha"/>
<feOffset dx="0.598061" dy="-0.797415"/>
<feGaussianBlur stdDeviation="2.39225"/>
<feComposite in2="hardAlpha" operator="arithmetic" k2="-1" k3="1"/>
<feColorMatrix type="matrix" values="0 0 0 0 0 0 0 0 0 0 0 0 0 0 0 0 0 0 0.07 0"/>
<feBlend mode="normal" in2="shape" result="effect1_innerShadow_173_16102"/>
<feColorMatrix in="SourceAlpha" type="matrix" values="0 0 0 0 0 0 0 0 0 0 0 0 0 0 0 0 0 0 127 0" result="hardAlpha"/>
<feOffset dy="-0.0996769"/>
<feGaussianBlur stdDeviation="0.199354"/>
<feComposite in2="hardAlpha" operator="arithmetic" k2="-1" k3="1"/>
<feColorMatrix type="matrix" values="0 0 0 0 0 0 0 0 0 0 0 0 0 0 0 0 0 0 0.25 0"/>
<feBlend mode="normal" in2="effect1_innerShadow_173_16102" result="effect2_innerShadow_173_16102"/>
</filter>
<filter id="filter1_di_173_16102" x="1.12583" y="1.70898" width="14.6339" height="34.3069" filterUnits="userSpaceOnUse" color-interpolation-filters="sRGB">
<feFlood flood-opacity="0" result="BackgroundImageFix"/>
<feColorMatrix in="SourceAlpha" type="matrix" values="0 0 0 0 0 0 0 0 0 0 0 0 0 0 0 0 0 0 127 0" result="hardAlpha"/>
<feOffset dy="0.103079"/>
<feGaussianBlur stdDeviation="0.0515394"/>
<feColorMatrix type="matrix" values="0 0 0 0 0.925374 0 0 0 0 0.925374 0 0 0 0 0.925374 0 0 0 0.37 0"/>
<feBlend mode="normal" in2="BackgroundImageFix" result="effect1_dropShadow_173_16102"/>
<feBlend mode="normal" in="SourceGraphic" in2="effect1_dropShadow_173_16102" result="shape"/>
<feColorMatrix in="SourceAlpha" type="matrix" values="0 0 0 0 0 0 0 0 0 0 0 0 0 0 0 0 0 0 127 0" result="hardAlpha"/>
<feOffset dx="-0.398708" dy="0.498385"/>
<feGaussianBlur stdDeviation="0.199354"/>
<feComposite in2="hardAlpha" operator="arithmetic" k2="-1" k3="1"/>
<feColorMatrix type="matrix" values="0 0 0 0 0 0 0 0 0 0 0 0 0 0 0 0 0 0 0.8 0"/>
<feBlend mode="normal" in2="shape" result="effect2_innerShadow_173_16102"/>
</filter>
<filter id="filter2_di_173_16102" x="1.39621" y="8.49219" width="14.0724" height="24.3772" filterUnits="userSpaceOnUse" color-interpolation-filters="sRGB">
<feFlood flood-opacity="0" result="BackgroundImageFix"/>
<feColorMatrix in="SourceAlpha" type="matrix" values="0 0 0 0 0 0 0 0 0 0 0 0 0 0 0 0 0 0 127 0" result="hardAlpha"/>
<feOffset dy="0.103079"/>
<feGaussianBlur stdDeviation="0.0515394"/>
<feColorMatrix type="matrix" values="0 0 0 0 0.925374 0 0 0 0 0.925374 0 0 0 0 0.925374 0 0 0 0.37 0"/>
<feBlend mode="normal" in2="BackgroundImageFix" result="effect1_dropShadow_173_16102"/>
<feBlend mode="normal" in="SourceGraphic" in2="effect1_dropShadow_173_16102" result="shape"/>
<feColorMatrix in="SourceAlpha" type="matrix" values="0 0 0 0 0 0 0 0 0 0 0 0 0 0 0 0 0 0 127 0" result="hardAlpha"/>
<feOffset dx="-0.398708" dy="0.498385"/>
<feGaussianBlur stdDeviation="0.199354"/>
<feComposite in2="hardAlpha" operator="arithmetic" k2="-1" k3="1"/>
<feColorMatrix type="matrix" values="0 0 0 0 0 0 0 0 0 0 0 0 0 0 0 0 0 0 0.8 0"/>
<feBlend mode="normal" in2="shape" result="effect2_innerShadow_173_16102"/>
</filter>
<filter id="filter3_d_173_16102" x="13.0371" y="3.4802" width="2.9457" height="4.303" filterUnits="userSpaceOnUse" color-interpolation-filters="sRGB">
<feFlood flood-opacity="0" result="BackgroundImageFix"/>
<feColorMatrix in="SourceAlpha" type="matrix" values="0 0 0 0 0 0 0 0 0 0 0 0 0 0 0 0 0 0 127 0" result="hardAlpha"/>
<feOffset dy="-0.199354"/>
<feGaussianBlur stdDeviation="0.0996769"/>
<feColorMatrix type="matrix" values="0 0 0 0 0 0 0 0 0 0 0 0 0 0 0 0 0 0 0.25 0"/>
<feBlend mode="normal" in2="BackgroundImageFix" result="effect1_dropShadow_173_16102"/>
<feBlend mode="normal" in="SourceGraphic" in2="effect1_dropShadow_173_16102" result="shape"/>
</filter>
<filter id="filter4_d_173_16102" x="13.1368" y="3.87891" width="2.74635" height="4.10365" filterUnits="userSpaceOnUse" color-interpolation-filters="sRGB">
<feFlood flood-opacity="0" result="BackgroundImageFix"/>
<feColorMatrix in="SourceAlpha" type="matrix" values="0 0 0 0 0 0 0 0 0 0 0 0 0 0 0 0 0 0 127 0" result="hardAlpha"/>
<feOffset dy="0.0996769"/>
<feGaussianBlur stdDeviation="0.0498385"/>
<feColorMatrix type="matrix" values="0 0 0 0 1 0 0 0 0 1 0 0 0 0 1 0 0 0 0.25 0"/>
<feBlend mode="normal" in2="BackgroundImageFix" result="effect1_dropShadow_173_16102"/>
<feBlend mode="normal" in="SourceGraphic" in2="effect1_dropShadow_173_16102" result="shape"/>
</filter>
<filter id="filter5_d_173_16102" x="1.17382" y="3.45285" width="2.96981" height="4.52371" filterUnits="userSpaceOnUse" color-interpolation-filters="sRGB">
<feFlood flood-opacity="0" result="BackgroundImageFix"/>
<feColorMatrix in="SourceAlpha" type="matrix" values="0 0 0 0 0 0 0 0 0 0 0 0 0 0 0 0 0 0 127 0" result="hardAlpha"/>
<feOffset dy="-0.199354"/>
<feGaussianBlur stdDeviation="0.0996769"/>
<feColorMatrix type="matrix" values="0 0 0 0 0 0 0 0 0 0 0 0 0 0 0 0 0 0 0.25 0"/>
<feBlend mode="normal" in2="BackgroundImageFix" result="effect1_dropShadow_173_16102"/>
<feBlend mode="normal" in="SourceGraphic" in2="effect1_dropShadow_173_16102" result="shape"/>
</filter>
<filter id="filter6_di_173_16102" x="0.941808" y="7.14453" width="15.0022" height="24.2112" filterUnits="userSpaceOnUse" color-interpolation-filters="sRGB">
<feFlood flood-opacity="0" result="BackgroundImageFix"/>
<feColorMatrix in="SourceAlpha" type="matrix" values="0 0 0 0 0 0 0 0 0 0 0 0 0 0 0 0 0 0 127 0" result="hardAlpha"/>
<feOffset dy="0.103079"/>
<feGaussianBlur stdDeviation="0.0515394"/>
<feColorMatrix type="matrix" values="0 0 0 0 0.925374 0 0 0 0 0.925374 0 0 0 0 0.925374 0 0 0 0.37 0"/>
<feBlend mode="normal" in2="BackgroundImageFix" result="effect1_dropShadow_173_16102"/>
<feBlend mode="normal" in="SourceGraphic" in2="effect1_dropShadow_173_16102" result="shape"/>
<feColorMatrix in="SourceAlpha" type="matrix" values="0 0 0 0 0 0 0 0 0 0 0 0 0 0 0 0 0 0 127 0" result="hardAlpha"/>
<feOffset dx="-0.398708" dy="0.498385"/>
<feGaussianBlur stdDeviation="0.199354"/>
<feComposite in2="hardAlpha" operator="arithmetic" k2="-1" k3="1"/>
<feColorMatrix type="matrix" values="0 0 0 0 0 0 0 0 0 0 0 0 0 0 0 0 0 0 0.8 0"/>
<feBlend mode="normal" in2="shape" result="effect2_innerShadow_173_16102"/>
</filter>
<filter id="filter7_ii_173_16102" x="1.26086" y="1.60883" width="15.0837" height="34.3892" filterUnits="userSpaceOnUse" color-interpolation-filters="sRGB">
<feFlood flood-opacity="0" result="BackgroundImageFix"/>
<feBlend mode="normal" in="SourceGraphic" in2="BackgroundImageFix" result="shape"/>
<feColorMatrix in="SourceAlpha" type="matrix" values="0 0 0 0 0 0 0 0 0 0 0 0 0 0 0 0 0 0 127 0" result="hardAlpha"/>
<feOffset dx="0.598061" dy="-0.797415"/>
<feGaussianBlur stdDeviation="2.39225"/>
<feComposite in2="hardAlpha" operator="arithmetic" k2="-1" k3="1"/>
<feColorMatrix type="matrix" values="0 0 0 0 0 0 0 0 0 0 0 0 0 0 0 0 0 0 0.07 0"/>
<feBlend mode="normal" in2="shape" result="effect1_innerShadow_173_16102"/>
<feColorMatrix in="SourceAlpha" type="matrix" values="0 0 0 0 0 0 0 0 0 0 0 0 0 0 0 0 0 0 127 0" result="hardAlpha"/>
<feOffset dy="-0.0996769"/>
<feGaussianBlur stdDeviation="0.199354"/>
<feComposite in2="hardAlpha" operator="arithmetic" k2="-1" k3="1"/>
<feColorMatrix type="matrix" values="0 0 0 0 0 0 0 0 0 0 0 0 0 0 0 0 0 0 0.09 0"/>
<feBlend mode="normal" in2="effect1_innerShadow_173_16102" result="effect2_innerShadow_173_16102"/>
</filter>
<filter id="filter8_ii_173_16102" x="3.26184" y="14.4311" width="11.3567" height="13.2974" filterUnits="userSpaceOnUse" color-interpolation-filters="sRGB">
<feFlood flood-opacity="0" result="BackgroundImageFix"/>
<feBlend mode="normal" in="SourceGraphic" in2="BackgroundImageFix" result="shape"/>
<feColorMatrix in="SourceAlpha" type="matrix" values="0 0 0 0 0 0 0 0 0 0 0 0 0 0 0 0 0 0 127 0" result="hardAlpha"/>
<feOffset dx="0.598061" dy="-0.797415"/>
<feGaussianBlur stdDeviation="2.39225"/>
<feComposite in2="hardAlpha" operator="arithmetic" k2="-1" k3="1"/>
<feColorMatrix type="matrix" values="0 0 0 0 0 0 0 0 0 0 0 0 0 0 0 0 0 0 0.07 0"/>
<feBlend mode="normal" in2="shape" result="effect1_innerShadow_173_16102"/>
<feColorMatrix in="SourceAlpha" type="matrix" values="0 0 0 0 0 0 0 0 0 0 0 0 0 0 0 0 0 0 127 0" result="hardAlpha"/>
<feOffset dy="-0.0996769"/>
<feGaussianBlur stdDeviation="0.199354"/>
<feComposite in2="hardAlpha" operator="arithmetic" k2="-1" k3="1"/>
<feColorMatrix type="matrix" values="0 0 0 0 0 0 0 0 0 0 0 0 0 0 0 0 0 0 0.25 0"/>
<feBlend mode="normal" in2="effect1_innerShadow_173_16102" result="effect2_innerShadow_173_16102"/>
</filter>
<linearGradient id="paint0_linear_173_16102" x1="7.15555" y1="35.2023" x2="-3.91493" y2="32.0019" gradientUnits="userSpaceOnUse">
<stop stop-color="#FF0000"/>
<stop offset="1" stop-color="#FF0000"/>
</linearGradient>
<linearGradient id="paint1_linear_173_16102" x1="15.1207" y1="100.397" x2="-19.6938" y2="86.7038" gradientUnits="userSpaceOnUse">
<stop stop-color="#E8EAE9"/>
<stop offset="0.498386" stop-color="#707072"/>
<stop offset="1" stop-color="#2F3032"/>
</linearGradient>
<linearGradient id="paint2_linear_173_16102" x1="13.3889" y1="78.363" x2="-16.5312" y2="61.0892" gradientUnits="userSpaceOnUse">
<stop stop-color="#E8EAE9"/>
<stop offset="0.498386" stop-color="#BABABA"/>
<stop offset="1" stop-color="#9B9B9B"/>
</linearGradient>
<linearGradient id="paint3_linear_173_16102" x1="15.2882" y1="76.4518" x2="-15.7168" y2="58.638" gradientUnits="userSpaceOnUse">
<stop stop-color="#E8EAE9"/>
<stop offset="0.498386" stop-color="#707072"/>
<stop offset="1" stop-color="#2F3032"/>
</linearGradient>
<linearGradient id="paint4_linear_173_16102" x1="7.58315" y1="34.4224" x2="-2.40978" y2="31.9113" gradientUnits="userSpaceOnUse">
<stop stop-color="#FF0000"/>
<stop offset="1" stop-color="#DE3E3E"/>
</linearGradient>
<linearGradient id="paint5_linear_173_16102" x1="12.4187" y1="30.4235" x2="1.526" y2="25.7122" gradientUnits="userSpaceOnUse">
<stop stop-color="#FF0000"/>
<stop offset="0.350909" stop-color="#FF0000"/>
<stop offset="1" stop-color="#FF0000"/>
</linearGradient>
</defs>
</svg>
