<svg width="14" height="14" viewBox="0 0 14 14" fill="none" xmlns="http://www.w3.org/2000/svg">
<g id="Tabler Icons" clip-path="url(#clip0_1182_373)">
<path id="Vector" d="M11.3332 6.3528C11.2019 5.40773 10.7634 4.53206 10.0855 3.86067C9.40749 3.18929 8.52758 2.75944 7.58128 2.63733C6.63497 2.51523 5.67477 2.70765 4.84858 3.18495C4.02239 3.66225 3.37605 4.39795 3.00912 5.27872M2.7406 3.13058V5.27872H4.88875" stroke="#595959" stroke-width="0.671296" stroke-linecap="round" stroke-linejoin="round"/>
<path id="Vector_2" d="M2.7406 7.42578C2.87194 8.37085 3.31036 9.24652 3.98833 9.9179C4.6663 10.5893 5.54621 11.0191 6.49252 11.1412C7.43882 11.2633 8.39903 11.0709 9.22521 10.5936C10.0514 10.1163 10.6977 9.38063 11.0647 8.49986M11.3332 10.648V8.49986H9.18504" stroke="#595959" stroke-width="0.537037" stroke-linecap="round" stroke-linejoin="round"/>
</g>
<defs>
<clipPath id="clip0_1182_373">
<rect width="12.8889" height="12.8889" fill="white" transform="translate(0.592529 0.445312)"/>
</clipPath>
</defs>
</svg>
