<svg width="16" height="16" viewBox="0 0 16 16" fill="none" xmlns="http://www.w3.org/2000/svg">
<g id="bell">
<path id="Vector" d="M4 5.33203C4 4.27117 4.42143 3.25375 5.17157 2.5036C5.92172 1.75346 6.93913 1.33203 8 1.33203C9.06087 1.33203 10.0783 1.75346 10.8284 2.5036C11.5786 3.25375 12 4.27117 12 5.33203C12 9.9987 14 11.332 14 11.332H2C2 11.332 4 9.9987 4 5.33203Z" stroke="white" stroke-width="1.25" stroke-linecap="round" stroke-linejoin="round"/>
<path id="Vector_2" d="M6.8667 14C6.97829 14.203 7.14233 14.3722 7.34169 14.4901C7.54106 14.608 7.76842 14.6702 8.00003 14.6702C8.23165 14.6702 8.45901 14.608 8.65837 14.4901C8.85773 14.3722 9.02178 14.203 9.13337 14" stroke="white" stroke-width="1.25" stroke-linecap="round" stroke-linejoin="round"/>
</g>
</svg>
