<svg width="37" height="36" viewBox="0 0 37 36" fill="none" xmlns="http://www.w3.org/2000/svg">
<path d="M0.666504 8C0.666504 3.58172 4.24823 0 8.6665 0H28.6665C33.0848 0 36.6665 3.58172 36.6665 8V28C36.6665 32.4183 33.0848 36 28.6665 36H8.6665C4.24823 36 0.666504 32.4183 0.666504 28V8Z" fill="#FBEDEC"/>
<path d="M25.6665 15H15.6665C14.5619 15 13.6665 15.8954 13.6665 17V23C13.6665 24.1046 14.5619 25 15.6665 25H25.6665C26.7711 25 27.6665 24.1046 27.6665 23V17C27.6665 15.8954 26.7711 15 25.6665 15Z" stroke="#DC4A41" stroke-width="1.5" stroke-linecap="round" stroke-linejoin="round"/>
<path d="M20.6665 22C21.7711 22 22.6665 21.1046 22.6665 20C22.6665 18.8954 21.7711 18 20.6665 18C19.5619 18 18.6665 18.8954 18.6665 20C18.6665 21.1046 19.5619 22 20.6665 22Z" fill="#DC4A41"/>
<path d="M23.6665 15V13C23.6665 12.4696 23.4558 11.9609 23.0807 11.5858C22.7056 11.2107 22.1969 11 21.6665 11H11.6665C11.1361 11 10.6274 11.2107 10.2523 11.5858C9.87721 11.9609 9.6665 12.4696 9.6665 13V19C9.6665 19.5304 9.87721 20.0391 10.2523 20.4142C10.6274 20.7893 11.1361 21 11.6665 21H13.6665" stroke="#DC4A41" stroke-width="1.5" stroke-linecap="round" stroke-linejoin="round"/>
</svg>
