<svg width="14" height="13" viewBox="0 0 14 13" fill="none" xmlns="http://www.w3.org/2000/svg">
<g id="pencil" clip-path="url(#clip0_1073_6827)">
<path id="Vector" d="M9.72206 1.61046C9.85883 1.44883 10.028 1.31727 10.2188 1.22416C10.4096 1.13105 10.6179 1.07843 10.8303 1.06967C11.0427 1.0609 11.2547 1.09618 11.4526 1.17325C11.6505 1.25032 11.8301 1.36749 11.9799 1.51729C12.1297 1.6671 12.2465 1.84625 12.3227 2.04333C12.3989 2.24041 12.4329 2.4511 12.4226 2.66197C12.4123 2.87283 12.3578 3.07925 12.2627 3.26806C12.1676 3.45687 12.0339 3.62394 11.8702 3.75861L4.62021 11.0086L1.6665 11.8142L2.47206 8.86046L9.72206 1.61046Z" stroke="#595959" stroke-width="0.671296" stroke-linecap="round" stroke-linejoin="round"/>
<path id="Vector_2" d="M8.64807 2.68555L10.7962 4.83369" stroke="#595959" stroke-width="0.671296" stroke-linecap="round" stroke-linejoin="round"/>
</g>
<defs>
<clipPath id="clip0_1073_6827">
<rect width="12.8889" height="12.8889" fill="white" transform="translate(0.592529)"/>
</clipPath>
</defs>
</svg>
