<svg width="14" height="14" viewBox="0 0 14 14" fill="none" xmlns="http://www.w3.org/2000/svg">
<g id="Tabler Icons" clip-path="url(#clip0_1073_6838)">
<path id="Vector" d="M11.3332 6.87038C11.2019 5.92531 10.7634 5.04964 10.0855 4.37825C9.40749 3.70687 8.52758 3.27702 7.58128 3.15491C6.63497 3.03281 5.67477 3.22523 4.84858 3.70253C4.02239 4.17982 3.37605 4.91553 3.00912 5.7963M2.7406 3.64815V5.7963H4.88875" stroke="#595959" stroke-width="0.671296" stroke-linecap="round" stroke-linejoin="round"/>
<path id="Vector_2" d="M2.7406 7.94531C2.87194 8.89038 3.31036 9.76605 3.98833 10.4374C4.6663 11.1088 5.54621 11.5387 6.49252 11.6608C7.43882 11.7829 8.39903 11.5905 9.22521 11.1132C10.0514 10.6359 10.6977 9.90016 11.0647 9.01939M11.3332 11.1675V9.01939H9.18504" stroke="#595959" stroke-width="0.537037" stroke-linecap="round" stroke-linejoin="round"/>
</g>
<defs>
<clipPath id="clip0_1073_6838">
<rect width="12.8889" height="12.8889" fill="white" transform="translate(0.592529 0.962891)"/>
</clipPath>
</defs>
</svg>
