<svg width="36" height="36" viewBox="0 0 36 36" fill="none" xmlns="http://www.w3.org/2000/svg">
<path d="M0 8C0 3.58172 3.58172 0 8 0H28C32.4183 0 36 3.58172 36 8V28C36 32.4183 32.4183 36 28 36H8C3.58172 36 0 32.4183 0 28V8Z" fill="#F1F8FF"/>
<g clip-path="url(#clip0_111_52138)">
<path d="M24.1399 20.5934C23.7158 21.5964 23.0525 22.4802 22.2079 23.1676C21.3633 23.855 20.3631 24.325 19.2949 24.5366C18.2267 24.7481 17.1229 24.6948 16.08 24.3813C15.0372 24.0677 14.087 23.5034 13.3126 22.7378C12.5382 21.9722 11.9632 21.0286 11.6377 19.9894C11.3122 18.9501 11.2463 17.847 11.4457 16.7765C11.645 15.7059 12.1036 14.7005 12.7813 13.8481C13.459 12.9957 14.3352 12.3223 15.3333 11.8867" stroke="#007AF5" stroke-width="1.25" stroke-linecap="round" stroke-linejoin="round"/>
<path d="M24.6667 18.0007C24.6667 17.1252 24.4942 16.2583 24.1592 15.4494C23.8242 14.6406 23.3331 13.9057 22.714 13.2866C22.095 12.6675 21.3601 12.1765 20.5512 11.8415C19.7424 11.5064 18.8755 11.334 18 11.334V18.0007H24.6667Z" stroke="#007AF5" stroke-width="1.25" stroke-linecap="round" stroke-linejoin="round"/>
</g>
<defs>
<clipPath id="clip0_111_52138">
<rect width="16" height="16" fill="white" transform="translate(10 10)"/>
</clipPath>
</defs>
</svg>
