<svg width="25" height="24" viewBox="0 0 25 24" fill="none" xmlns="http://www.w3.org/2000/svg">
<g id="users">
<path id="Vector" d="M16.7791 21V19C16.7791 17.9391 16.3576 16.9217 15.6075 16.1716C14.8573 15.4214 13.8399 15 12.7791 15H6.77905C5.71819 15 4.70077 15.4214 3.95063 16.1716C3.20048 16.9217 2.77905 17.9391 2.77905 19V21" stroke="#595959" stroke-width="1.25" stroke-linecap="round" stroke-linejoin="round"/>
<path id="Vector_2" d="M9.77905 11C11.9882 11 13.7791 9.20914 13.7791 7C13.7791 4.79086 11.9882 3 9.77905 3C7.56991 3 5.77905 4.79086 5.77905 7C5.77905 9.20914 7.56991 11 9.77905 11Z" stroke="#595959" stroke-width="1.25" stroke-linecap="round" stroke-linejoin="round"/>
<path id="Vector_3" d="M22.7791 21.0009V19.0009C22.7784 18.1146 22.4834 17.2536 21.9404 16.5532C21.3974 15.8527 20.6372 15.3524 19.7791 15.1309" stroke="#595959" stroke-width="1.25" stroke-linecap="round" stroke-linejoin="round"/>
<path id="Vector_4" d="M16.7791 3.13086C17.6395 3.35116 18.4021 3.85156 18.9467 4.55317C19.4913 5.25478 19.7869 6.11769 19.7869 7.00586C19.7869 7.89403 19.4913 8.75694 18.9467 9.45855C18.4021 10.1602 17.6395 10.6606 16.7791 10.8809" stroke="#595959" stroke-width="1.25" stroke-linecap="round" stroke-linejoin="round"/>
</g>
</svg>
