<svg width="37" height="36" viewBox="0 0 37 36" fill="none" xmlns="http://www.w3.org/2000/svg">
<path d="M0.333496 8C0.333496 3.58172 3.91522 0 8.3335 0H28.3335C32.7518 0 36.3335 3.58172 36.3335 8V28C36.3335 32.4183 32.7518 36 28.3335 36H8.3335C3.91522 36 0.333496 32.4183 0.333496 28V8Z" fill="#F4ECFF"/>
<g clip-path="url(#clip0_136_10462)">
<path d="M11.3335 23C11.3335 23.5304 11.5442 24.0391 11.9193 24.4142C12.2944 24.7893 12.8031 25 13.3335 25C13.8639 25 14.3726 24.7893 14.7477 24.4142C15.1228 24.0391 15.3335 23.5304 15.3335 23C15.3335 22.4696 15.1228 21.9609 14.7477 21.5858C14.3726 21.2107 13.8639 21 13.3335 21C12.8031 21 12.2944 21.2107 11.9193 21.5858C11.5442 21.9609 11.3335 22.4696 11.3335 23Z" stroke="#8952E0" stroke-width="1.25" stroke-linecap="round" stroke-linejoin="round"/>
<path d="M21.3335 23C21.3335 23.5304 21.5442 24.0391 21.9193 24.4142C22.2944 24.7893 22.8031 25 23.3335 25C23.8639 25 24.3726 24.7893 24.7477 24.4142C25.1228 24.0391 25.3335 23.5304 25.3335 23C25.3335 22.4696 25.1228 21.9609 24.7477 21.5858C24.3726 21.2107 23.8639 21 23.3335 21C22.8031 21 22.2944 21.2107 21.9193 21.5858C21.5442 21.9609 21.3335 22.4696 21.3335 23Z" stroke="#8952E0" stroke-linecap="round" stroke-linejoin="round"/>
<path d="M11.3335 23H9.3335V17M9.3335 17L11.3335 12H20.3335L24.3335 17M9.3335 17H24.3335M24.3335 17H25.3335C25.8639 17 26.3726 17.2107 26.7477 17.5858C27.1228 17.9609 27.3335 18.4696 27.3335 19V23H25.3335M21.3335 23H15.3335M18.3335 17V12" stroke="#8952E0" stroke-width="1.25" stroke-linecap="round" stroke-linejoin="round"/>
</g>
<defs>
<clipPath id="clip0_136_10462">
<rect width="24" height="24" fill="white" transform="translate(6.3335 6)"/>
</clipPath>
</defs>
</svg>
